<svg xmlns="http://www.w3.org/2000/svg" width="295" height="209" viewBox="0 0 295 209">
  <g id="_28" data-name="28" transform="translate(6880 1606.186)">
    <rect id="new-features-of-nuke-11" width="295" height="209" rx="10" transform="translate(-6880 -1606.186)" fill="#ffe799"/>
    <g id="Grupo_91173" data-name="Grupo 91173" transform="translate(-7617.065 -1105.263)">
      <path id="Trazado_138644" data-name="Trazado 138644" d="M954.865-445.126a22.192,22.192,0,0,1,1.172,7.407Q956-403.861,956.007-370c-.956.787-2.106.572-3.193.573q-22.431.022-44.862.01-45.14,0-90.279-.012c-1.2,0-2.482.281-3.562-.57q-.006-47.661.006-95.323c.013-9.658,7.9-18.033,17.489-18.992,2.154-.215,4.291-.26,6.439-.261q35.467-.015,70.934.011a21.906,21.906,0,0,1,8.257,1.387c-.269,8.17-.763,16.371.2,24.5.926,7.787,7.315,13.005,15.209,13.061,6.518.046,13.037,0,19.555.018A3.934,3.934,0,0,1,954.865-445.126Z" fill="#bac0c3"/>
      <path id="Trazado_138645" data-name="Trazado 138645" d="M814.112-252.738c.613-.034,1.225-.1,1.838-.1q69.111-.007,138.221,0c.613,0,1.225.064,1.838.1.006,12.995.04,25.989.009,38.984a19.732,19.732,0,0,1-19.785,20.06c-3.447.074-6.9.015-10.345.015q-45.54,0-91.079,0c-9.969,0-17.721-5.789-20.108-14.96a17.228,17.228,0,0,1-.6-4.372Q814.113-232.876,814.112-252.738Z" transform="translate(-0.001 -117.266)" fill="#324152"/>
      <path id="Trazado_138646" data-name="Trazado 138646" d="M1059.776-443.684c-7.8.012-15.607.18-23.4-.006-8.229-.2-14.758-7.21-14.888-15.789-.105-6.942-.028-13.886-.014-20.83,0-.551-.281-1.3.677-1.43a21.162,21.162,0,0,1,7.274,4.914q12.638,12.684,25.317,25.328A19.389,19.389,0,0,1,1059.776-443.684Z" transform="translate(-104.911 -1.442)" fill="#324152"/>
      <path id="Trazado_138647" data-name="Trazado 138647" d="M911.3-380.946c0-6.281-.017-12.561,0-18.842a8.436,8.436,0,0,1,12.766-7.273q16.152,9.25,32.292,18.521c6.563,3.758,6.624,11.582.07,15.372q-15.794,9.133-31.634,18.186c-5.551,3.164-11.57,1.111-13.253-4.383a7.9,7.9,0,0,1-.24-2.37Q911.293-371.34,911.3-380.946Z" transform="translate(-49.184 -38.631)" fill="#eaedee"/>
      <path id="Trazado_138648" data-name="Trazado 138648" d="M954.509-209.31a2.964,2.964,0,0,1,.009-.735c.27-1.026-.749-2.794.624-3,2.139-.318,4.629-.777,6.315,1.4a3.664,3.664,0,0,1,.256,4.463,3.977,3.977,0,0,1-3.569,1.877c-3.637.1-3.636.125-3.636-3.451Z" transform="translate(-70.997 -137.265)" fill="#324152"/>
      <text id="DIVX" transform="translate(839.214 -327.828)" fill="#eaedee" font-size="37" font-family="BerlinSansFBDemi-Bold, Berlin Sans FB" font-weight="700"><tspan x="0" y="0">DIVX</tspan></text>
    </g>
  </g>
</svg>
