<svg xmlns="http://www.w3.org/2000/svg" width="120" height="120" viewBox="0 0 120 120">
  <g id="Grupo_91099" data-name="Grupo 91099" transform="translate(-635 -12057)">
    <circle id="Elipse_4389" data-name="Elipse 4389" cx="60" cy="60" r="60" transform="translate(635 12057)" fill="#d44f4a"/>
    <g id="Grupo_90756" data-name="Grupo 90756" transform="translate(435.337 11945.266)">
      <path id="Trazado_138245" data-name="Trazado 138245" d="M278.847,224.079c.222-2.242.435-4.39.654-6.593H233.659l2.17,6.62H207.663c.153-.482.29-.932.439-1.377,1.031-3.088,2.1-6.163,3.066-9.272a4.035,4.035,0,0,0-.012-2.2c-.661-2.249-1.561-4.431-2.159-6.694a20.37,20.37,0,0,1-.677-4.864c-.08-5.61-.044-11.221-.028-16.831a33.012,33.012,0,0,1,9.554-23.536,2.311,2.311,0,0,0,.532-1.468q.045-16.2.023-32.4c0-3.655,2.009-5.677,5.642-5.677,19.7,0,39.409.053,59.113-.045,4.031-.02,6.307,2.786,5.943,5.953-.027.234,0,.474,0,.826h1.21q8.415,0,16.829,0c3.439,0,5.522,2.064,5.524,5.479q.008,13.045,0,26.09a5.07,5.07,0,0,1-5.435,5.465c-4.87.007-9.74,0-14.686,0v10.484l11.058,2.771c1.664.417,3.328.83,4.99,1.255a5.029,5.029,0,0,1,4.072,5.259q.011,8.469,0,16.937a11.871,11.871,0,0,1-2.581,7.507c-1.23,1.572-2.486,3.123-3.75,4.707a18.936,18.936,0,0,1,2.927,11.609Zm3.486-53.741H246.813c.7,3.473-.767,5.624-4.025,6.694a10.2,10.2,0,0,1,2.084,9.739.981.981,0,0,0-.008.6c.844,2.025.351,3.9-.559,5.761-.636,1.3-1.172,2.651-1.818,4.131H255.35v13.368H241.937V198.917a23.455,23.455,0,0,0-1.749,3.5,20.791,20.791,0,0,1-5.141,7.472c-.768.717-1.492,1.483-2.237,2.225-.39.388-.813.691-.525,1.413s.828.518,1.3.518c15.284.01,30.568-.015,45.852.047a2.14,2.14,0,0,0,2.462-1.705c-1.142-1.429-2.314-2.911-3.5-4.38a12.006,12.006,0,0,1-2.672-6.185,14.422,14.422,0,0,1-.091-1.677c-.011-1.788-.09-3.581.016-5.363a12.767,12.767,0,0,0-1.778-7.44c-.373-.632-.654-1.317-.994-1.968a4.32,4.32,0,0,1,.246-4.855,4.263,4.263,0,0,1,4.651-1.715,43.052,43.052,0,0,1,4.559,1.563Zm6.762,25.145v-1.316q0-16.57,0-33.14a5.946,5.946,0,0,0-.027-1.05,1.669,1.669,0,0,0-3.31,0,5.891,5.891,0,0,0-.027,1.05q0,16.622,0,33.245v1.217h-3.366c0-.39,0-.731,0-1.072,0-2.244.029-4.489-.01-6.733a5.694,5.694,0,0,0-5.238-5.6c-1.274-.077-1.778.623-1.237,1.761.5,1.044,1.008,2.081,1.553,3.1a13.241,13.241,0,0,1,1.578,6.669c-.05,2.243-.012,4.489-.01,6.733a8.338,8.338,0,0,0,1.81,5.266c1.188,1.518,2.383,3.033,3.628,4.5a1.673,1.673,0,0,0,1.117.548q8.572.052,17.145,0a1.812,1.812,0,0,0,1.2-.6c1.207-1.411,2.345-2.882,3.5-4.335a7.8,7.8,0,0,0,1.863-4.819q.08-8.889-.015-17.779a2.372,2.372,0,0,0-1.04-1.623,8.229,8.229,0,0,0-2.3-.644v14.6h-3.359V180.01l-3.393-.822v16.3h-3.325V178.33l-3.39-.825v17.979Zm-63.962-40.539v-1.056q0-10.942,0-21.883c0-3.422,2.078-5.489,5.512-5.491q12.991-.005,25.983,0c3.489,0,5.532,2.06,5.533,5.577q0,12.941,0,25.881c0,3.508-2.053,5.574-5.536,5.576q-9.257.006-18.514,0h-.988l-1.328,3.312h46.5v-3.224a1.271,1.271,0,0,0-.261-.074c-2.665-.007-5.33.006-7.994-.019a5.01,5.01,0,0,1-5.136-5.122q-.028-13.414,0-26.828a4.99,4.99,0,0,1,5.074-5.073c3.506-.029,7.013-.008,10.519-.008h1.112c.372-2.279.038-3.405-2.688-3.4-19.6.057-39.2.03-58.8.031-1.852,0-2.353.508-2.354,2.38q0,14.624,0,29.248v1Zm67.558,5.238c4.753,0,9.588,0,14.422,0,1.624,0,2.179-.573,2.179-2.239q0-12.884,0-25.768c0-1.772-.533-2.293-2.335-2.293q-16.195,0-32.389,0c-1.783,0-2.305.526-2.306,2.322q0,12.832,0,25.663a5.008,5.008,0,0,0,.024.84,1.524,1.524,0,0,0,1.447,1.436c2.862.057,5.726.022,8.594.022a5.222,5.222,0,0,1,2.194-4.111,5.133,5.133,0,0,1,4.483-.7c.219-1.867.219-1.867-1.21-2.919a4.957,4.957,0,0,1,.494-8.362,1.385,1.385,0,0,0,.816-1.461c-.029-2.419-.011-4.838-.011-7.257V133.3h3.366v1.071c0,2.84-.02,5.68.027,8.519a1.408,1.408,0,0,0,.584,1.02,5.051,5.051,0,0,1,.02,8.969,1.478,1.478,0,0,0-.6,1.012c-.083.957-.028,1.925-.028,2.871l-1.009.106Zm-70.591,50.5c2.208,0,4.416.01,6.624-.011a1.483,1.483,0,0,0,.961-.243c2.154-2.241,4.813-4.091,6.2-6.947,2.078-4.277,3.974-8.646,5.857-13.015a2.421,2.421,0,0,0-2.229-3.348,2.665,2.665,0,0,0-2.58,1.287c-1.191,1.816-2.361,3.648-3.624,5.413a8.179,8.179,0,0,1-8.851,3.092,8.327,8.327,0,0,1-6.044-7.19,14.682,14.682,0,0,1,14.757-16.072c2.839-.009,5.678.008,8.516-.006,1.21-.006,1.974-.7,1.952-1.722a1.694,1.694,0,0,0-1.924-1.635c-4.1-.006-8.206-.125-12.3.047a18.049,18.049,0,0,0-13.455,6.6c-2.8,3.288-3.651,7.322-4.024,11.406-.35,3.827-.267,7.7-.248,11.552a15.66,15.66,0,0,0,.631,4.02c.557,2.021,1.318,3.985,1.941,5.989a.96.96,0,0,0,1.111.8C217.614,210.663,219.857,210.687,222.1,210.687Zm7.952-52.1A5.972,5.972,0,0,1,235.474,160a1.229,1.229,0,0,0,.782.176q10.309.013,20.618,0a1.688,1.688,0,0,0,1.916-1.862q.023-8.259,0-16.518a1.671,1.671,0,0,0-1.648-1.808,1.7,1.7,0,0,0-1.7,1.861c-.022.946,0,1.894-.006,2.841a5.058,5.058,0,1,1-10.1.022c-.008-2.069.015-4.138-.008-6.207a1.688,1.688,0,0,0-2.1-1.827,1.772,1.772,0,0,0-1.27,1.94c.014,4.349.022,8.7,0,13.046a5.046,5.046,0,1,1-10.089-.038c-.016-1.578.015-3.157-.01-4.734a1.69,1.69,0,0,0-1.816-1.856c-.48-.019-.962,0-1.543,0,0,2.929.07,5.763-.025,8.591C228.414,155.457,228.526,157.165,230.053,158.591ZM228.5,141.664c.449,0,.79,0,1.132,0,3.574.013,5.594,2.037,5.6,5.611,0,1.472-.029,2.945.013,4.416a1.652,1.652,0,0,0,2.31,1.605,1.8,1.8,0,0,0,1.048-1.882q-.017-6.414,0-12.828a5.054,5.054,0,1,1,10.094-.041c.012,2.1-.012,4.206.01,6.309a1.683,1.683,0,1,0,3.352.034c.027-1.086-.01-2.173.013-3.259a4.966,4.966,0,0,1,4.1-4.9,14.963,14.963,0,0,1,2.6-.024c.008-.173.027-.38.027-.587,0-1.507.029-3.015-.012-4.521a1.65,1.65,0,0,0-1.845-1.711q-13.3-.017-26.6,0a1.659,1.659,0,0,0-1.833,1.831C228.488,134.978,228.5,138.236,228.5,141.664Zm77.277,79.073a13.54,13.54,0,0,0-2.227-6.312,1.187,1.187,0,0,0-.878-.355q-8.512-.031-17.024,0c-.285,0-.709.06-.832.248a13.2,13.2,0,0,0-2.288,6.425Zm-74.612,0c-.7-2.126-1.364-4.184-2.086-6.219a1,1,0,0,0-.782-.448q-6.56-.042-13.121,0a.985.985,0,0,0-.763.462c-.725,2.032-1.39,4.086-2.1,6.2Zm.892-31.087c.748-1.12,1.448-2.207,2.187-3.266a5.953,5.953,0,0,1,5.934-2.585,15.513,15.513,0,0,1,1.691.372,6.617,6.617,0,0,0-4.889-6.926,6.716,6.716,0,0,0-4.923,12.4Zm-6.1-10.051c-2.937,2.054-4.892,7.005-4.1,10.368a4.885,4.885,0,0,0,8.156,2.5C225.478,189.16,224.077,184.912,225.961,179.6Zm26.057,21.058h-6.6v6.6h6.6Zm-39.153-26.844.2.089a.7.7,0,0,0,.156-.139,37.52,37.52,0,0,1,13.024-13.282,1.057,1.057,0,0,0,.251-.987c-.5-1.145-2.063-1.346-3.244-.439a28.3,28.3,0,0,0-8.061,9.553C214.326,170.3,213.636,172.078,212.865,173.816Zm8.6-5.432.152.223c.223-.063.443-.135.668-.188a46.468,46.468,0,0,1,5.906-1.32c2.027-.2,3.33-1.493,4.812-2.532a1.64,1.64,0,0,0,.4-1.48,1.873,1.873,0,0,0-1.182-1.13,3.718,3.718,0,0,0-2.2.307,37.738,37.738,0,0,0-4.448,2.76C224.142,166.058,222.831,167.258,221.468,168.384Zm69.26-18.311a1.676,1.676,0,1,0-1.623-1.726A1.7,1.7,0,0,0,290.728,150.073Z" transform="translate(0 0)" fill="#fff"/>
      <path id="Trazado_138247" data-name="Trazado 138247" d="M372.755,321.34a9.391,9.391,0,1,1-9.409-9.373A9.418,9.418,0,0,1,372.755,321.34Zm-9.382,6.28a6.261,6.261,0,1,0-6.268-6.277A6.28,6.28,0,0,0,363.373,327.62Z" transform="translate(-104.59 -137.41)" fill="#fff"/>
      <path id="Trazado_138248" data-name="Trazado 138248" d="M402.67,396.247v12.406h-12.4V396.247Zm-9.313,9.251h6.176v-6.131h-6.176Z" transform="translate(-130.864 -197.081)" fill="#fff"/>
      <path id="Trazado_138249" data-name="Trazado 138249" d="M453.154,168.068h3.132c0,.883.022,1.75-.008,2.616a.972.972,0,0,0,.6,1.058,4.612,4.612,0,0,1,.021,8.213,1.052,1.052,0,0,0-.619,1.145c.015,2.9.007,5.8.007,8.773h-3.131v-1.017c0-2.607-.009-5.214.008-7.821a.991.991,0,0,0-.59-1.067,4.61,4.61,0,0,1-.038-8.212.973.973,0,0,0,.632-1.04C453.122,169.872,453.154,169.024,453.154,168.068Zm3.123,7.8a1.558,1.558,0,1,0-1.569,1.548A1.574,1.574,0,0,0,456.277,175.866Z" transform="translate(-173.888 -35.723)" fill="#fff"/>
      <path id="Trazado_138250" data-name="Trazado 138250" d="M528.264,189.819h-3.131v-1.046c0-3.65-.009-7.3.01-10.951a1.067,1.067,0,0,0-.653-1.127,4.535,4.535,0,0,1-2.338-5.191,4.677,4.677,0,0,1,9.075-.083,4.556,4.556,0,0,1-2.24,5.237,1.205,1.205,0,0,0-.733,1.274c.026,3.585.013,7.17.013,10.755Zm-.009-17.237a1.558,1.558,0,1,0-1.525,1.591A1.575,1.575,0,0,0,528.255,172.582Z" transform="translate(-224.997 -35.614)" fill="#fff"/>
    </g>
  </g>
</svg>
