<svg xmlns="http://www.w3.org/2000/svg" xmlns:xlink="http://www.w3.org/1999/xlink" width="1029" height="438" viewBox="0 0 1029 438">
  <defs>
    <clipPath id="clip-path">
      <rect id="Rect치ngulo_35103" data-name="Rect치ngulo 35103" width="1029" height="438" rx="30" transform="translate(136 19092.324)" fill="#fff"/>
    </clipPath>
    <linearGradient id="linear-gradient" x1="0.501" y1="0.153" x2="0.489" y2="1.031" gradientUnits="objectBoundingBox">
      <stop offset="0" stop-color="#eeb9b7"/>
      <stop offset="1" stop-color="#d44f4a"/>
    </linearGradient>
  </defs>
  <g id="Grupo_91098" data-name="Grupo 91098" transform="translate(5336 2127)">
    <rect id="Rect치ngulo_35102" data-name="Rect치ngulo 35102" width="1029" height="436" rx="30" transform="translate(-5336 -2126)" fill="#f6dcdb"/>
    <g id="Enmascarar_grupo_126" data-name="Enmascarar grupo 126" transform="translate(-5472 -21219.324)" opacity="0.6" clip-path="url(#clip-path)">
      <path id="Trazado_138230" data-name="Trazado 138230" d="M235.385,303.914c-47.537,7.949-85.717,35.372-134.07,18.593-40.356-14.005-74.1-47.492-89.423-87.233-23.435-60.791-9.951-130.82,20.546-188.392,13.155-24.834,35.9-51.1,63.59-46.313,17.6,3.04,30.571,18.1,39.572,33.53,20.41,35,37.779,64.732,83.124,66.251,27.306.915,53.827-8.314,79.486-17.7S350.075,63.475,377.4,63.2c109.282-1.118,151.142,120.25,193.677,198.829C610.6,335.048,672.017,422.31,758.187,427.749c75.544,4.769,157.663-59.392,206.2-111.5,54.861-58.893,111.62-122.652,174.119-174.775,151.556-126.4,229.009,54.111,355.985,106.329,74.479,30.627,128.832,2.661,172.861-62.339,36.349-53.662,61.2-117.8,113.122-156.6,35.7-26.67,96.887-32.279,116.717,7.623,16.722,33.649-8.253,72.23-31.927,101.407-44.351,54.664-89.126,109.754-143.749,154.156s-120.54,77.894-190.794,82.3c-137.217,8.6-274.432-92.474-404.38-47.577-63.231,21.846-109.869,74.338-159.244,119.477S855.519,532.886,789.2,524.073c-65.191-8.666-113.175-62.467-164.354-103.767C515.067,331.714,374.522,280.648,235.385,303.914Z" transform="translate(-517.236 18865.934) rotate(7)" opacity="0.18" fill="url(#linear-gradient)"/>
    </g>
  </g>
</svg>
