<svg id="Grupo_91219" data-name="Grupo 91219" xmlns="http://www.w3.org/2000/svg" width="42.631" height="78.631" viewBox="0 0 42.631 78.631">
  <path id="Trazado_138938" data-name="Trazado 138938" d="M191.1,142.755a8.989,8.989,0,0,1-.771-.766c-.182-.241-.771-.124-.771-.124l-24.33,14.046a3.312,3.312,0,0,0-1.5,2.594v21.07l1.543.89,39.641-24.557V150.73C197.252,151.736,191.1,142.755,191.1,142.755Z" transform="translate(-163.729 -141.707)" fill="#2973ba"/>
  <path id="Trazado_138939" data-name="Trazado 138939" d="M163.729,182v38.8a1.056,1.056,0,0,0,.433.966c.271.16,1.589.911,1.589.911l37.665-22.95a3.312,3.312,0,0,0,1.5-2.594v-38.8l-39.641,24.557Z" transform="translate(-163.729 -144.127)" fill="#dedede"/>
  <path id="Trazado_138940" data-name="Trazado 138940" d="M191.364,142.913l-24.33,14.047a3.307,3.307,0,0,0-1.5,2.594v21.07L206.625,156.9v-5.178C198.014,152.854,191.743,144.882,191.364,142.913Z" transform="translate(-163.994 -141.865)" fill="#3594f0"/>
  <path id="Trazado_138941" data-name="Trazado 138941" d="M165.537,221.832c0,.955.67,1.342,1.5.864L205.127,200.7a3.312,3.312,0,0,0,1.5-2.594v-38.8L165.537,183.03Z" transform="translate(-163.994 -144.27)" fill="#f6f6f6"/>
  <path id="Trazado_138942" data-name="Trazado 138942" d="M179.065,216.9l28.048-16.193a3.312,3.312,0,0,0,1.5-2.594V159.359C207.192,161.767,210.043,193.454,179.065,216.9Z" transform="translate(-165.979 -144.278)" fill="#f0f0f0"/>
  <path id="Trazado_138943" data-name="Trazado 138943" d="M192.908,159.493c-.259,2.924,1.092,2.618,2.684,1.784l15.044-9.409-16.453-8.148Z" transform="translate(-168.006 -141.983)" fill="#3086d9"/>
  <path id="Trazado_138944" data-name="Trazado 138944" d="M209.532,152.388a10.307,10.307,0,0,1,1.447-.835c-.209-.137-15.769-9.8-15.769-9.8C196.328,148.9,209.041,152.768,209.532,152.388Z" transform="translate(-168.348 -141.694)" fill="#389dff"/>
  <path id="Trazado_138945" data-name="Trazado 138945" d="M194.384,143.6l-.144,14.736c.045,1.511,2.175,1.537,2.175,1.537l13.336-8.713-14.174-8.248Z" transform="translate(-168.206 -141.865)" fill="#2973ba"/>
  <path id="Trazado_138946" data-name="Trazado 138946" d="M195.806,158.8c0,.956.67,1.342,1.5.865l13.763-7.946-15.261-8.811Z" transform="translate(-168.436 -141.865)" fill="#389dff"/>
  <path id="Trazado_138947" data-name="Trazado 138947" d="M194,141.843c.8.06.351,1.579.351,1.579l1.192-.689C195.541,141.129,194,141.843,194,141.843Z" transform="translate(-168.171 -141.684)" fill="#2973ba"/>
  <g id="Grupo_91218" data-name="Grupo 91218" transform="translate(9.836 24.242)">
    <path id="Trazado_138948" data-name="Trazado 138948" d="M175.257,214.1l27.953-16.139V170.1l-27.953,16.139Z" transform="translate(-175.257 -170.096)" fill="#231d2a"/>
    <path id="Trazado_138949" data-name="Trazado 138949" d="M178.491,208.962l22.485-12.981V177.322L178.491,190.3Z" transform="translate(-175.731 -171.156)" fill="#2b8ae5"/>
    <g id="Grupo_91216" data-name="Grupo 91216" transform="translate(0.831 1.081)">
      <path id="Trazado_138950" data-name="Trazado 138950" d="M204.564,175.55l2.418-1.4v-2.792l-2.418,1.4Z" transform="translate(-180.388 -171.362)" fill="#fff"/>
      <path id="Trazado_138951" data-name="Trazado 138951" d="M198.9,178.821l2.418-1.4v-2.792l-2.418,1.4Z" transform="translate(-179.556 -171.842)" fill="#fff"/>
      <path id="Trazado_138952" data-name="Trazado 138952" d="M193.23,182.093l2.418-1.4v-2.792l-2.418,1.4Z" transform="translate(-178.725 -172.323)" fill="#fff"/>
      <path id="Trazado_138953" data-name="Trazado 138953" d="M187.564,185.365l2.418-1.4v-2.792l-2.418,1.4Z" transform="translate(-177.893 -172.803)" fill="#fff"/>
      <path id="Trazado_138954" data-name="Trazado 138954" d="M181.9,188.636l2.417-1.4v-2.792l-2.417,1.4Z" transform="translate(-177.062 -173.283)" fill="#fff"/>
      <path id="Trazado_138955" data-name="Trazado 138955" d="M176.23,191.908l2.418-1.4v-2.792l-2.418,1.4Z" transform="translate(-176.23 -173.763)" fill="#fff"/>
    </g>
    <g id="Grupo_91217" data-name="Grupo 91217" transform="translate(0.831 24.629)">
      <path id="Trazado_138956" data-name="Trazado 138956" d="M204.564,203.148l2.418-1.4V198.96l-2.418,1.4Z" transform="translate(-180.388 -198.96)" fill="#fff"/>
      <path id="Trazado_138957" data-name="Trazado 138957" d="M198.9,206.42l2.418-1.4v-2.792l-2.418,1.4Z" transform="translate(-179.556 -199.441)" fill="#fff"/>
      <path id="Trazado_138958" data-name="Trazado 138958" d="M193.23,209.691l2.418-1.4V205.5l-2.418,1.4Z" transform="translate(-178.725 -199.921)" fill="#fff"/>
      <path id="Trazado_138959" data-name="Trazado 138959" d="M187.564,212.963l2.418-1.4v-2.792l-2.418,1.4Z" transform="translate(-177.893 -200.401)" fill="#fff"/>
      <path id="Trazado_138960" data-name="Trazado 138960" d="M181.9,216.234l2.417-1.4v-2.792l-2.417,1.4Z" transform="translate(-177.062 -200.881)" fill="#fff"/>
      <path id="Trazado_138961" data-name="Trazado 138961" d="M176.23,219.506l2.418-1.4v-2.792l-2.418,1.4Z" transform="translate(-176.23 -201.361)" fill="#fff"/>
    </g>
  </g>
  <path id="Trazado_138962" data-name="Trazado 138962" d="M190.4,202.23l6.524-9.319-6.524-1.133Z" transform="translate(-167.642 -149.035)" fill="#fff"/>
  <path id="Trazado_138963" data-name="Trazado 138963" d="M172.4,164.525l-1.595.921-2.91,10.307.811.468.79-1.392.616-2.316,2.986-1.724.653,1.584.811.468.83-1.415-2.181-6.432Zm-1.825,6.267,1.009-3.784,1.03,2.607Z" transform="translate(-164.34 -145.036)" fill="#d7d7d7"/>
  <path id="Trazado_138964" data-name="Trazado 138964" d="M181.169,159.218l-1.83,7.44-1.08-4.825-.811-.468-1.636.945,2.671,7.084.811.468.8-1.4,3.486-9.7-.811-.468Z" transform="translate(-165.502 -144.122)" fill="#d7d7d7"/>
  <path id="Trazado_138965" data-name="Trazado 138965" d="M184.813,157.655v8.626l.811.468,1.508-9.5-.811-.468Z" transform="translate(-166.823 -143.9)" fill="#d7d7d7"/>
  <path id="Trazado_138966" data-name="Trazado 138966" d="M171.753,165.994l-2.91,10.307,1.6-.924.616-2.315,2.986-1.724.653,1.583,1.641-.947-2.992-6.9Zm-.23,5.347,1.009-3.783,1.03,2.607Z" transform="translate(-164.479 -145.116)" fill="#fafafa"/>
  <path id="Trazado_138967" data-name="Trazado 138967" d="M180.289,167.207l-1.89-5.293-1.636.945,2.671,7.084,1.609-.929,2.675-10.171-1.6.924Z" transform="translate(-165.642 -144.202)" fill="#fafafa"/>
  <path id="Trazado_138968" data-name="Trazado 138968" d="M185.763,166.83l1.508-.871v-8.626l-1.508.871Z" transform="translate(-166.962 -143.98)" fill="#fafafa"/>
</svg>
