<svg id="Grupo_91233" data-name="Grupo 91233" xmlns="http://www.w3.org/2000/svg" width="42.631" height="78.632" viewBox="0 0 42.631 78.632">
  <path id="Trazado_138992" data-name="Trazado 138992" d="M318.107,266.763a8.906,8.906,0,0,1-.771-.767c-.182-.24-.771-.124-.771-.124l-24.33,14.047a3.312,3.312,0,0,0-1.5,2.594v21.07l1.543.89,39.641-24.558v-5.178C324.26,275.743,318.107,266.763,318.107,266.763Z" transform="translate(-290.737 -265.714)" fill="#419cb8"/>
  <path id="Trazado_138993" data-name="Trazado 138993" d="M290.737,306v38.8a1.056,1.056,0,0,0,.433.966c.271.16,1.589.911,1.589.911l37.665-22.95a3.312,3.312,0,0,0,1.5-2.594v-38.8L292.28,306.894Z" transform="translate(-290.737 -268.134)" fill="#dedede"/>
  <path id="Trazado_138994" data-name="Trazado 138994" d="M318.372,266.921l-24.33,14.047a3.307,3.307,0,0,0-1.5,2.593v21.07l41.088-23.721v-5.178C325.022,276.861,318.751,268.89,318.372,266.921Z" transform="translate(-291.002 -265.872)" fill="#54caee"/>
  <path id="Trazado_138995" data-name="Trazado 138995" d="M292.545,345.84c0,.955.67,1.342,1.5.864l38.093-21.993a3.312,3.312,0,0,0,1.5-2.594v-38.8l-41.088,23.721Z" transform="translate(-291.002 -268.278)" fill="#f6f6f6"/>
  <path id="Trazado_138996" data-name="Trazado 138996" d="M306.073,340.913l28.048-16.193a3.312,3.312,0,0,0,1.5-2.594V283.367C334.2,285.775,337.051,317.462,306.073,340.913Z" transform="translate(-292.987 -268.285)" fill="#f0f0f0"/>
  <path id="Trazado_138997" data-name="Trazado 138997" d="M319.916,283.5c-.259,2.925,1.092,2.619,2.684,1.785l15.044-9.41-16.453-8.148Z" transform="translate(-295.014 -265.99)" fill="#4cb8d9"/>
  <path id="Trazado_138998" data-name="Trazado 138998" d="M336.54,276.4a10.31,10.31,0,0,1,1.447-.835c-.209-.137-15.769-9.8-15.769-9.8C323.336,272.908,336.049,276.776,336.54,276.4Z" transform="translate(-295.356 -265.701)" fill="#54d7f4"/>
  <path id="Trazado_138999" data-name="Trazado 138999" d="M321.392,267.609l-.144,14.737c.045,1.511,2.175,1.537,2.175,1.537l13.336-8.713-14.175-8.249Z" transform="translate(-295.214 -265.872)" fill="#419cb8"/>
  <path id="Trazado_139000" data-name="Trazado 139000" d="M322.814,282.813c0,.955.67,1.342,1.5.865l13.763-7.946-15.261-8.811Z" transform="translate(-295.444 -265.872)" fill="#54d7f4"/>
  <path id="Trazado_139001" data-name="Trazado 139001" d="M321.006,265.85c.8.061.351,1.579.351,1.579l1.192-.688C322.549,265.136,321.006,265.85,321.006,265.85Z" transform="translate(-295.179 -265.692)" fill="#419cb8"/>
  <g id="Grupo_91232" data-name="Grupo 91232" transform="translate(9.621 29.489)">
    <path id="Trazado_139002" data-name="Trazado 139002" d="M331.258,314.461a33.943,33.943,0,0,1-4.825,6.09,29.657,29.657,0,0,1-6.973,5,7.717,7.717,0,0,0-2.911,2.168l.745.73a7.18,7.18,0,0,1,2.128-1.431,31.8,31.8,0,0,0,7.4-5.308,36.715,36.715,0,0,0,5.219-6.562c1.539-2.3,2.742-4.085,4.43-5.085a7.159,7.159,0,0,0-.641-1.022A20.635,20.635,0,0,0,331.258,314.461Z" transform="translate(-304.145 -301.541)" fill="#272729"/>
    <g id="Grupo_91231" data-name="Grupo 91231">
      <path id="Trazado_139003" data-name="Trazado 139003" d="M315.644,308.017c-4.7,2.717-8.519,9.323-8.519,14.755s3.814,7.634,8.519,4.918,8.518-9.323,8.518-14.755S320.349,305.3,315.644,308.017Z" transform="translate(-302.762 -301.221)" fill="#272729"/>
      <g id="Grupo_91230" data-name="Grupo 91230">
        <path id="Trazado_139004" data-name="Trazado 139004" d="M314.894,302.011c-7.115,4.107-12.882,14.1-12.882,22.31s5.767,11.545,12.882,7.437,12.881-14.1,12.881-22.31S322.007,297.9,314.894,302.011Zm-11.123,17.167c.607-2.508,2.613-4.846,4.48-5.224s2.89,1.349,2.282,3.856-2.613,4.846-4.48,5.223S303.163,321.685,303.771,319.178ZM313.022,328c-1.154,2.5-3.379,4.191-4.968,3.776s-1.94-2.78-.787-5.281,3.378-4.192,4.968-3.776S314.176,325.495,313.022,328Zm1.835-16.37c-1.963,1.134-3.556.215-3.556-2.053a7.859,7.859,0,0,1,3.556-6.159c1.964-1.134,3.556-.215,3.556,2.053A7.859,7.859,0,0,1,314.857,311.627Zm6.934,12.167c-1.589,2.25-3.813,3.127-4.968,1.959s-.8-3.94.787-6.19,3.813-3.127,4.968-1.959S323.379,321.543,321.791,323.793Zm1.921-11.034c-1.868,1.779-3.874,1.757-4.481-.049s.416-4.713,2.283-6.492,3.874-1.757,4.48.049S325.579,310.98,323.711,312.759Z" transform="translate(-302.012 -300.252)" fill="#c4ccd2"/>
      </g>
      <path id="Trazado_139005" data-name="Trazado 139005" d="M316.678,316.3a5.534,5.534,0,0,0-2.5,4.335c0,1.6,1.121,2.243,2.5,1.445a5.533,5.533,0,0,0,2.5-4.335C319.181,316.148,318.061,315.5,316.678,316.3Z" transform="translate(-303.797 -302.557)" fill="#627b8e"/>
    </g>
  </g>
  <path id="Trazado_139006" data-name="Trazado 139006" d="M298.37,289.017l-1.341,6.659-.544-4.634-.811-.468-1.962,1.133v8.626l.811.468.59-8.068,1.183,6.108.811.468.642-1.307,1.483-7.647v6.791l.811.468,1.105-9.264-.811-.468Z" transform="translate(-291.174 -268.948)" fill="#d7d7d7"/>
  <path id="Trazado_139007" data-name="Trazado 139007" d="M309.129,284.015q-.992-.61-2.643.342a6.992,6.992,0,0,0-1.609,1.271,6.839,6.839,0,0,0-.966,1.336,8.146,8.146,0,0,0-.7,1.584,8.033,8.033,0,0,0-.342,2.41,3.2,3.2,0,0,0,.808,2.539c.055.046.986.594.986.594a8,8,0,0,0,1.84-.823,7.025,7.025,0,0,0,2.629-2.7,7.688,7.688,0,0,0,.984-3.837,22.218,22.218,0,0,0-.18-2.249S309.377,284.168,309.129,284.015Zm-1.147,6.161a3.917,3.917,0,0,1-1.48,1.605,1.312,1.312,0,0,1-1.487.1q-.587-.416-.587-1.882a5.356,5.356,0,0,1,.571-2.557,3.942,3.942,0,0,1,1.5-1.606q.933-.54,1.5-.134t.562,1.888A5.415,5.415,0,0,1,307.982,290.176Z" transform="translate(-292.518 -268.345)" fill="#d7d7d7"/>
  <path id="Trazado_139008" data-name="Trazado 139008" d="M317.206,278.109l-1.83,7.441-1.08-4.825-.811-.468-1.636.945,2.671,7.084.811.468.8-1.4,3.486-9.7-.811-.468Z" transform="translate(-293.835 -267.378)" fill="#d7d7d7"/>
  <path id="Trazado_139009" data-name="Trazado 139009" d="M297.98,296.224l-1.355-5.1-1.962,1.133v8.626l1.105-.638v-6.791l1.478,5.937,1.452-.839,1.483-7.647v6.791l1.105-.638V288.43l-1.967,1.135Z" transform="translate(-291.313 -269.028)" fill="#fafafa"/>
  <path id="Trazado_139010" data-name="Trazado 139010" d="M310.079,284.563q-.992-.609-2.643.343a6.992,6.992,0,0,0-1.609,1.27,6.832,6.832,0,0,0-.966,1.335,8.17,8.17,0,0,0-.7,1.584,8.064,8.064,0,0,0-.342,2.41q0,2.059.984,2.666t2.65-.356a7.007,7.007,0,0,0,2.629-2.7,7.684,7.684,0,0,0,.984-3.836Q311.07,285.174,310.079,284.563Zm-1.147,6.161a3.927,3.927,0,0,1-1.48,1.6,1.312,1.312,0,0,1-1.487.1q-.587-.417-.587-1.882a5.354,5.354,0,0,1,.571-2.557,3.939,3.939,0,0,1,1.5-1.607q.933-.539,1.5-.133t.562,1.887A5.419,5.419,0,0,1,308.932,290.724Z" transform="translate(-292.657 -268.426)" fill="#fafafa"/>
  <path id="Trazado_139011" data-name="Trazado 139011" d="M316.326,286.1l-1.891-5.293-1.636.945,2.671,7.084,1.609-.929,2.676-10.171-1.6.923Z" transform="translate(-293.974 -267.459)" fill="#fafafa"/>
</svg>
