<svg id="Grupo_91235" data-name="Grupo 91235" xmlns="http://www.w3.org/2000/svg" width="42.631" height="78.622" viewBox="0 0 42.631 78.622">
  <path id="Trazado_139012" data-name="Trazado 139012" d="M191.1,390.73a9.118,9.118,0,0,1-.771-.766c-.182-.24-.771-.124-.771-.124l-24.33,14.046a3.31,3.31,0,0,0-1.5,2.594v21.07l1.543.891,39.641-24.558v-5.178C197.252,399.711,191.1,390.73,191.1,390.73Z" transform="translate(-163.729 -389.682)" fill="#0475ad"/>
  <path id="Trazado_139013" data-name="Trazado 139013" d="M163.729,429.972v38.794a1.056,1.056,0,0,0,.433.965c.271.16,1.588.911,1.588.911L203.406,447.7a3.309,3.309,0,0,0,1.5-2.593V406.31l-39.631,24.552Z" transform="translate(-163.729 -392.103)" fill="#dedede"/>
  <path id="Trazado_139014" data-name="Trazado 139014" d="M191.364,390.888l-24.33,14.047a3.309,3.309,0,0,0-1.5,2.594V428.6l41.088-23.722V399.7C198.015,400.828,191.743,392.858,191.364,390.888Z" transform="translate(-163.994 -389.84)" fill="#019ae6"/>
  <path id="Trazado_139015" data-name="Trazado 139015" d="M165.537,469.8c0,.955.67,1.342,1.5.864l38.084-21.988a3.308,3.308,0,0,0,1.5-2.593V407.289l-41.078,23.716Z" transform="translate(-163.994 -392.246)" fill="#f6f6f6"/>
  <path id="Trazado_139016" data-name="Trazado 139016" d="M179.237,464.824l27.891-16.1a3.291,3.291,0,0,0,1.489-2.579V407.6C207.208,410,210.042,441.5,179.237,464.824Z" transform="translate(-166.005 -392.292)" fill="#f0f0f0"/>
  <path id="Trazado_139017" data-name="Trazado 139017" d="M192.909,407.468c-.259,2.925,1.092,2.618,2.684,1.784l15.044-9.409L194.184,391.7Z" transform="translate(-168.006 -389.958)" fill="#0190d6"/>
  <path id="Trazado_139018" data-name="Trazado 139018" d="M209.532,400.363a10.359,10.359,0,0,1,1.447-.835c-.209-.137-15.769-9.8-15.769-9.8C196.328,396.875,209.041,400.743,209.532,400.363Z" transform="translate(-168.348 -389.669)" fill="#01a9fc"/>
  <path id="Trazado_139019" data-name="Trazado 139019" d="M194.384,391.577l-.143,14.737c.045,1.51,2.175,1.536,2.175,1.536l13.336-8.712-14.175-8.249Z" transform="translate(-168.206 -389.84)" fill="#0475ad"/>
  <path id="Trazado_139020" data-name="Trazado 139020" d="M195.806,406.781c0,.955.671,1.341,1.5.864l13.763-7.946-15.261-8.811Z" transform="translate(-168.436 -389.84)" fill="#01a9fc"/>
  <path id="Trazado_139021" data-name="Trazado 139021" d="M194,389.818c.8.06.35,1.579.35,1.579l1.192-.689C195.541,389.1,194,389.818,194,389.818Z" transform="translate(-168.171 -389.659)" fill="#0475ad"/>
  <path id="Trazado_139022" data-name="Trazado 139022" d="M190.116,422.949c-5.667,3.272-10.262,11.231-10.262,17.775s4.595,9.2,10.262,5.925,10.263-11.231,10.263-17.775S195.784,419.677,190.116,422.949Z" transform="translate(-166.095 -394.339)" fill="#bbc5c8"/>
  <path id="Trazado_139023" data-name="Trazado 139023" d="M190.324,424.611c-5,2.887-9.055,9.909-9.055,15.684s4.054,8.115,9.055,5.228,9.056-9.909,9.056-15.684S195.325,421.724,190.324,424.611Z" transform="translate(-166.303 -394.607)" fill="#787878"/>
  <ellipse id="Elipse_4498" data-name="Elipse 4498" cx="11.568" cy="6.679" rx="11.568" ry="6.679" transform="translate(12.453 47.139) rotate(-60)" fill="#484848"/>
  <path id="Trazado_139024" data-name="Trazado 139024" d="M191.362,432.922a6.673,6.673,0,0,0-3.018,5.228c0,1.925,1.352,2.706,3.018,1.743a6.671,6.671,0,0,0,3.019-5.228C194.381,432.74,193.029,431.96,191.362,432.922Z" transform="translate(-167.341 -395.947)" fill="#6f7c82"/>
  <g id="Grupo_91234" data-name="Grupo 91234" transform="translate(15.742 51.113)">
    <path id="Trazado_139025" data-name="Trazado 139025" d="M182.179,462.125l16.362-9.446v-.786l-16.362,9.446Z" transform="translate(-182.179 -449.904)" fill="#4490ac"/>
    <path id="Trazado_139026" data-name="Trazado 139026" d="M185.067,463.487l.773-.446v-4.326l-.773.446Z" transform="translate(-182.602 -450.906)" fill="#4490ac"/>
    <path id="Trazado_139027" data-name="Trazado 139027" d="M183.888,464.861l.773-.446v-6l-.773.446Z" transform="translate(-182.429 -450.862)" fill="#4490ac"/>
    <path id="Trazado_139028" data-name="Trazado 139028" d="M187.426,464.2l.773-.446v-9.345l-.773.446Z" transform="translate(-182.949 -450.274)" fill="#4490ac"/>
    <path id="Trazado_139029" data-name="Trazado 139029" d="M186.247,465.577l.773-.446V454.112l-.773.446Z" transform="translate(-182.776 -450.23)" fill="#4490ac"/>
    <path id="Trazado_139030" data-name="Trazado 139030" d="M189.786,462.841l.773-.446V453.05l-.773.446Z" transform="translate(-183.295 -450.074)" fill="#4490ac"/>
    <path id="Trazado_139031" data-name="Trazado 139031" d="M188.606,462.829l.773-.446v-7.672l-.773.446Z" transform="translate(-183.122 -450.318)" fill="#4490ac"/>
    <path id="Trazado_139032" data-name="Trazado 139032" d="M192.145,460.093l.773-.446v-6l-.773.446Z" transform="translate(-183.641 -450.162)" fill="#4490ac"/>
    <path id="Trazado_139033" data-name="Trazado 139033" d="M190.965,459.249l.773-.446v-2.315l-.773.446Z" transform="translate(-183.468 -450.579)" fill="#4490ac"/>
    <path id="Trazado_139034" data-name="Trazado 139034" d="M198.042,456l.773-.446v-4.326l-.773.446Z" transform="translate(-184.506 -449.806)" fill="#4490ac"/>
    <path id="Trazado_139035" data-name="Trazado 139035" d="M199.222,456.007l.773-.446v-6l-.773.446Z" transform="translate(-184.68 -449.563)" fill="#4490ac"/>
    <path id="Trazado_139036" data-name="Trazado 139036" d="M195.683,459.436l.773-.446v-9.345l-.773.446Z" transform="translate(-184.16 -449.575)" fill="#4490ac"/>
    <path id="Trazado_139037" data-name="Trazado 139037" d="M196.863,458.206l.772-.446v-6.835l-.772.446Z" transform="translate(-184.333 -449.762)" fill="#4490ac"/>
    <path id="Trazado_139038" data-name="Trazado 139038" d="M193.324,460.8l.773-.446v-9.345l-.773.446Z" transform="translate(-183.814 -449.774)" fill="#4490ac"/>
    <path id="Trazado_139039" data-name="Trazado 139039" d="M194.5,457.759l.773-.446v-3.65l-.773.446Z" transform="translate(-183.987 -450.164)" fill="#4490ac"/>
  </g>
  <path id="Trazado_139040" data-name="Trazado 139040" d="M172.847,411.972l-1.341,6.659L170.962,414l-.811-.468-2.257,1.3v8.626l.811.468.59-8.068,1.478,5.937.811.468.642-1.307,1.483-7.647V420.1l.811.468,1.4-9.435-.811-.468Z" transform="translate(-164.34 -392.742)" fill="#d7d7d7"/>
  <path id="Trazado_139041" data-name="Trazado 139041" d="M182.319,406.944a10.478,10.478,0,0,0-1.793.905l-2.421,1.4v8.626l.811.468.7-4.592.984-.567a12.63,12.63,0,0,0,1.563-1.028,4.621,4.621,0,0,0,.783-.86,4.983,4.983,0,0,0,.634-1.217,4.292,4.292,0,0,0,.25-1.48,3.174,3.174,0,0,1,.174-1.11s-.718-.413-.777-.45A1.1,1.1,0,0,0,182.319,406.944Zm-.216,3.344a2.386,2.386,0,0,1-.471.7,6.1,6.1,0,0,1-1.193.823l-.825.476v-2.447l.729-.421a8.848,8.848,0,0,1,1.085-.568.63.63,0,0,1,.607.032.733.733,0,0,1,.239.638A1.9,1.9,0,0,1,182.1,410.288Z" transform="translate(-165.839 -392.188)" fill="#d7d7d7"/>
  <path id="Trazado_139042" data-name="Trazado 139042" d="M190.462,404.387c0-.533.286-.664.286-.664s-.954-.549-1.032-.575a1.822,1.822,0,0,0-1.472.308,4.676,4.676,0,0,0-1.888,2.093,6.048,6.048,0,0,0-.415,1.489l.811.468s.652-1.717.825-2.013a1.748,1.748,0,0,1,.627-.655.6.6,0,0,1,.6-.086c.15.086.224.275.224.565a1.854,1.854,0,0,1-.305,1,2.352,2.352,0,0,1-.887.8l-.158,1.439.811.468s.361-1.147.555-1.015a.939.939,0,0,1,.29.821,2.544,2.544,0,0,1-.3,1.222,2.019,2.019,0,0,1-.747.819c-.276.159-.25-.179-.25-.179l-.811-.468-1.386,1a1.548,1.548,0,0,0,.616,1.23c.05.032.869.5.869.5a4.339,4.339,0,0,1,.971-.712,4.992,4.992,0,0,0,1.788-1.834,14.363,14.363,0,0,0,.9-3.143s-.52-.284-.564-.322C190.158,406.719,190.462,405.145,190.462,404.387Z" transform="translate(-166.973 -391.63)" fill="#d7d7d7"/>
  <path id="Trazado_139043" data-name="Trazado 139043" d="M172.456,419.179l-1.355-5.1-2.258,1.3v8.626l1.4-.809v-6.791l1.478,5.937,1.452-.839,1.483-7.647v6.791l1.4-.809v-8.626L173.8,412.52Z" transform="translate(-164.48 -392.822)" fill="#fafafa"/>
  <path id="Trazado_139044" data-name="Trazado 139044" d="M183.269,407.492a10.439,10.439,0,0,0-1.793.906l-2.421,1.4v8.626l1.509-.87V414.3l.984-.568a12.638,12.638,0,0,0,1.563-1.027,4.627,4.627,0,0,0,.783-.861,4.962,4.962,0,0,0,.634-1.216,4.292,4.292,0,0,0,.25-1.48,1.9,1.9,0,0,0-.433-1.431A1.072,1.072,0,0,0,183.269,407.492Zm-.216,3.344a2.374,2.374,0,0,1-.471.7,6.063,6.063,0,0,1-1.193.823l-.825.477v-2.448l.729-.421a8.937,8.937,0,0,1,1.085-.567.628.628,0,0,1,.607.032.731.731,0,0,1,.239.638A1.888,1.888,0,0,1,183.054,410.836Z" transform="translate(-165.978 -392.268)" fill="#fafafa"/>
  <path id="Trazado_139045" data-name="Trazado 139045" d="M190.336,407.369a3.922,3.922,0,0,0,1.076-2.433,1.235,1.235,0,0,0-.525-1.132,1.6,1.6,0,0,0-1.693.2,4.544,4.544,0,0,0-1.113.91,4.492,4.492,0,0,0-.775,1.183,6.066,6.066,0,0,0-.415,1.49l1.32-.5a2.5,2.5,0,0,1,.316-1.041,1.758,1.758,0,0,1,.627-.656.6.6,0,0,1,.6-.086q.224.131.224.565a1.852,1.852,0,0,1-.305,1,2.339,2.339,0,0,1-.887.8l-.158,1.439a4.061,4.061,0,0,1,.657-.5.634.634,0,0,1,.709-.044.939.939,0,0,1,.29.821,2.55,2.55,0,0,1-.3,1.223,2.016,2.016,0,0,1-.747.818.705.705,0,0,1-.7.083.881.881,0,0,1-.357-.73l-1.386.995a1.448,1.448,0,0,0,.775,1.315,1.885,1.885,0,0,0,1.682-.3,4.992,4.992,0,0,0,1.788-1.834,4.619,4.619,0,0,0,.718-2.35,1.406,1.406,0,0,0-.385-1.114A1,1,0,0,0,190.336,407.369Z" transform="translate(-167.112 -391.711)" fill="#fafafa"/>
</svg>
