<svg xmlns="http://www.w3.org/2000/svg" width="1240" height="207" viewBox="0 0 1240 207">
  <g id="Grupo_91095" data-name="Grupo 91095" transform="translate(-180 -8778)">
    <rect id="Rectángulo_35164" data-name="Rectángulo 35164" width="1240" height="207" transform="translate(180 8778)" fill="#ffc200"/>
    <g id="Grupo_91079" data-name="Grupo 91079" transform="translate(535.353 8682.928)">
      <path id="Trazado_138643" data-name="Trazado 138643" d="M213.328,183.344a14.669,14.669,0,0,1-13.682-14.57,54.667,54.667,0,0,1,49.5-54.416c.677-.312,1.457.139,2.119-.285h.345a4.479,4.479,0,0,0,2.755,0h2.755c2.579.4,5.176.061,7.762.182a11.818,11.818,0,0,1,2.859.122c.014,1.194-1.026.865-1.6.988a60.5,60.5,0,0,0-12.735,4.12,53.789,53.789,0,0,0-18.5,14.01,52.294,52.294,0,0,0-12.632,28.867c-.3,2.7-.751,5.422-.231,8.209a14.9,14.9,0,0,0,9.195,11.584c.551.241,1.246.313,1.443,1.044-.256.365-.627.263-.955.263q-8.86.008-17.721,0A1.442,1.442,0,0,1,213.328,183.344Z" transform="translate(0 0)" fill="#ff3980"/>
      <path id="Trazado_138644" data-name="Trazado 138644" d="M229.43,183.344h18.927c-1.828-1.035-3.767-1.765-5.328-3.188-4.379-3.991-6-8.8-5.4-14.769a61.615,61.615,0,0,1,3.088-15.206,54.47,54.47,0,0,1,16.369-23.326,55.454,55.454,0,0,1,25.269-11.984,12.251,12.251,0,0,1,1.537-.118c.715-1.053,1.923-.111,2.758-.682h.689a3.524,3.524,0,0,0,2.411,0h5.51c.555.41,1.25-.022,1.819.3l.911.088c-.26,1-1.175.757-1.821.868a54.326,54.326,0,0,0-44.6,47.784,46.263,46.263,0,0,0-.3,4.97,14.4,14.4,0,0,0,6.238,12.373c.555.4,1.638.581,1.224,1.729A13.938,13.938,0,0,1,252.6,183.6c-7.281.035-14.562,0-21.842-.03A8.1,8.1,0,0,1,229.43,183.344Z" transform="translate(-16.102 0)" fill="#fec244"/>
      <path id="Trazado_138645" data-name="Trazado 138645" d="M298.356,462.314c-6.384-.565-12.174-6.639-12.628-13.249-.636-9.264,5.871-16.384,15.148-16.463,6.2-.053,12.392.033,18.588.057-.14.924-.993.809-1.572,1.02a14.863,14.863,0,0,0-10.03,13.671,14.649,14.649,0,0,0,10.076,14.128c.669.229,1.693.03,1.878,1.125h-19.63C299.626,462.2,298.935,462.613,298.356,462.314Z" transform="translate(-46.515 -172.196)" fill="#ff3980"/>
      <path id="Trazado_138646" data-name="Trazado 138646" d="M345.365,462.544c-2.922-.981-5.8-2.034-7.986-4.366-3.887-4.145-5.353-9.017-3.872-14.5,1.5-5.55,5.2-9.125,10.75-10.744a6.249,6.249,0,0,0,.755-.33c3.2-.226,6.385-.314,9.314,1.349.146.922-.667,1.1-1.184,1.472a14.58,14.58,0,0,0-4.392,19.442,16.311,16.311,0,0,0,4.377,4.757c.509.4,1.286.616,1.176,1.508-1.113.856-2.584.758-3.771,1.415Z" transform="translate(-72.062 -172.138)" fill="#fec244"/>
      <path id="Trazado_138647" data-name="Trazado 138647" d="M338.183,114.072c-.789.753-1.954-.011-2.758.682-1.857-.73-3.792-.143-5.679-.341-1.661-.174-3.373.4-4.994-.341Z" transform="translate(-67.635 0)" fill="#fdb97a"/>
      <path id="Trazado_138648" data-name="Trazado 138648" d="M315.512,114.072a2.574,2.574,0,0,1-2.755,0Z" transform="translate(-61.15 0)" fill="#fd9e47"/>
      <path id="Trazado_138649" data-name="Trazado 138649" d="M357.9,114.072a1.989,1.989,0,0,1-2.411,0Z" transform="translate(-84.253 0)" fill="#fec450"/>
      <path id="Trazado_138650" data-name="Trazado 138650" d="M309.514,114.072c-.64.585-1.4.309-2.119.286q.032-.142.052-.286Z" transform="translate(-58.251 0)" fill="#fdc490"/>
      <path id="Trazado_138651" data-name="Trazado 138651" d="M374.552,114.372c-.622-.006-1.291.277-1.819-.3h1.722A2.027,2.027,0,0,0,374.552,114.372Z" transform="translate(-93.575 0)" fill="#fec855"/>
      <path id="Trazado_138652" data-name="Trazado 138652" d="M313.268,497.211c.628-.017,1.3-.283,1.832.288h-1.722C313.34,497.4,313.3,497.307,313.268,497.211Z" transform="translate(-61.427 -207.093)" fill="#fda554"/>
      <path id="Trazado_138653" data-name="Trazado 138653" d="M283.982,182.642c-.419-1.125-1.587-1.422-2.4-2.077a13.638,13.638,0,0,1-5.441-10.642A52.823,52.823,0,0,1,288.111,135a54.286,54.286,0,0,1,17.635-14.421,48.216,48.216,0,0,1,16.889-5.379,2.12,2.12,0,0,0,.6-.278,50.794,50.794,0,0,1,24.571,9c13.018,9.058,21.066,21.387,23.344,37.171,3.708,25.689-10.538,49.606-34.984,59.057-2.878,1.113-3.888,2.618-3.927,5.738-.034,2.636.286,5.3-.171,7.9a14.754,14.754,0,0,1-8.479,11.183c-4.845-2.324-7.777-6.257-8.193-11.49-.42-5.286-.735-10.68.547-15.929,2.878-11.79,9.741-20.331,20.989-25.128,3.279-1.4,6.532-2.729,9.276-5.129a23.317,23.317,0,0,0,8.183-15.434c1-9.235-2.306-16.816-9.777-22.36a23.005,23.005,0,0,0-17.575-4.311,17.437,17.437,0,0,1-3.58.435,25.552,25.552,0,0,0-15.715,1.319,7.232,7.232,0,0,1-1,.228,11.219,11.219,0,0,0-4.984,2.895c-5.4,4.585-8.626,10.332-8.87,17.53-.16,4.741-1.28,9.052-4.939,12.386A17.288,17.288,0,0,1,283.982,182.642Z" transform="translate(-41.347 -0.457)" fill="#fed05b"/>
      <path id="Trazado_138654" data-name="Trazado 138654" d="M311.739,181.921c1.85-1.479,4.121-1.851,6.33-2.317a25.223,25.223,0,0,1,10.522.33c10.014,1.78,17.114,11.432,18.416,20.317,1.51,10.307-4.379,22.6-15.792,26.766a35.441,35.441,0,0,0-13.323,8.307,34.435,34.435,0,0,0-9.839,19.841,56.989,56.989,0,0,0-.283,11.5,14.153,14.153,0,0,0,9.046,12.926,5.032,5.032,0,0,1,1.679.839.28.28,0,0,1,.068.349c-.2.36-.58.213-.891.214q-9.2.014-18.409.007a1.278,1.278,0,0,1-.664-.13,14.223,14.223,0,0,1-12.873-12.538c-.639-6.828-.7-13.733,1.831-20.367,3.806-9.992,10.585-17.038,20.577-20.844,8.642-3.292,14.269-9.26,16.259-18.288a24.24,24.24,0,0,0-11.908-26.488C312.237,182.2,311.988,182.063,311.739,181.921Z" transform="translate(-46.336 -35.203)" fill="#ff3980"/>
      <path id="Trazado_138655" data-name="Trazado 138655" d="M314.186,280.888h20.069c-3.528-1.436-6.459-2.915-8.454-5.806a14.756,14.756,0,0,1-2.918-7.929c-.164-5.646-.355-11.316,1.3-16.846a36.358,36.358,0,0,1,7.185-13.316c4.177-4.92,9.461-8.111,15.4-10.485,9.015-3.607,14.048-10.407,15.341-20,.959-7.109-1.186-13.26-5.728-18.707a23.331,23.331,0,0,0-10.816-7.22,13.824,13.824,0,0,1-1.379-.63c2.505-.12,4.936-.835,7.486-.722,8.989.4,15.8,4.458,20.546,12.028,5.424,8.657,4.084,21.026-2.464,28.491-3.426,3.906-7.713,6.119-12.357,8.01a34.738,34.738,0,0,0-21.131,33.306c.145,2.682-.257,5.373.262,8.055a14.251,14.251,0,0,0,6.876,9.788c.338.208.751.333.769.831a11.936,11.936,0,0,1-5.433,1.406c-7.741.06-15.483.019-23.224.006A2.006,2.006,0,0,1,314.186,280.888Z" transform="translate(-61.923 -35.218)" fill="#fec244"/>
      <path id="Trazado_138656" data-name="Trazado 138656" d="M370.028,462.86c-1.156-1.179-2.6-2-3.771-3.186A14.948,14.948,0,0,1,367.138,438c.943-.824,2.138-1.308,2.912-2.32,5.556,2.792,8.584,7.273,8.6,13.51C378.66,455.486,375.664,460.046,370.028,462.86Z" transform="translate(-87.787 -173.87)" fill="#fed05b"/>
    </g>
  </g>
</svg>
