<svg xmlns="http://www.w3.org/2000/svg" width="674" height="98" viewBox="0 0 674 98">
  <g id="Grupo_91239" data-name="Grupo 91239" transform="translate(6996 -3406)">
    <g id="Grupo_91184" data-name="Grupo 91184" transform="translate(0 -124)">
      <rect id="Rectángulo_35265" data-name="Rectángulo 35265" width="674" height="98" rx="5" transform="translate(-6996 3530)" fill="#eeb9b7"/>
      <line id="Línea_121" data-name="Línea 121" y2="98" transform="translate(-6897.5 3530)" fill="none" stroke="#fff" stroke-width="1"/>
      <line id="Línea_122" data-name="Línea 122" y2="98" transform="translate(-6825.5 3530)" fill="none" stroke="#fff" stroke-width="1"/>
      <line id="Línea_123" data-name="Línea 123" y2="98" transform="translate(-6753.5 3530)" fill="none" stroke="#fff" stroke-width="1"/>
      <line id="Línea_124" data-name="Línea 124" y2="98" transform="translate(-6681.5 3530)" fill="none" stroke="#fff" stroke-width="1"/>
      <line id="Línea_125" data-name="Línea 125" y2="98" transform="translate(-6609.5 3530)" fill="none" stroke="#fff" stroke-width="1"/>
      <line id="Línea_126" data-name="Línea 126" y2="98" transform="translate(-6537.5 3530)" fill="none" stroke="#fff" stroke-width="1"/>
      <line id="Línea_127" data-name="Línea 127" y2="98" transform="translate(-6465.5 3530)" fill="none" stroke="#fff" stroke-width="1"/>
      <line id="Línea_128" data-name="Línea 128" y2="98" transform="translate(-6393.5 3530)" fill="none" stroke="#fff" stroke-width="1"/>
      <line id="Línea_129" data-name="Línea 129" x2="674" transform="translate(-6996 3562.5)" fill="none" stroke="#fff" stroke-width="1"/>
      <line id="Línea_130" data-name="Línea 130" x2="674" transform="translate(-6996 3595.5)" fill="none" stroke="#fff" stroke-width="1"/>
      <path id="Trazado_139046" data-name="Trazado 139046" d="M4.247-3.383H2.729V0H.825V-9.242H4.259a3.882,3.882,0,0,1,2.526.73,2.519,2.519,0,0,1,.889,2.063,2.843,2.843,0,0,1-.409,1.577A2.792,2.792,0,0,1,6.024-3.866l2,3.777V0H5.979ZM2.729-4.926H4.266a1.573,1.573,0,0,0,1.111-.365A1.3,1.3,0,0,0,5.77-6.3,1.4,1.4,0,0,0,5.4-7.325,1.543,1.543,0,0,0,4.259-7.7H2.729ZM12.162.127A3.372,3.372,0,0,1,9.7-.8a3.294,3.294,0,0,1-.949-2.469v-.178a4.149,4.149,0,0,1,.4-1.85,2.935,2.935,0,0,1,1.133-1.257A3.18,3.18,0,0,1,11.959-7a2.85,2.85,0,0,1,2.219.889,3.611,3.611,0,0,1,.809,2.52v.749H10.613a1.7,1.7,0,0,0,.536,1.079,1.621,1.621,0,0,0,1.133.406,1.98,1.98,0,0,0,1.657-.768l.9,1.009A2.754,2.754,0,0,1,13.724-.2,3.665,3.665,0,0,1,12.162.127Zm-.209-5.643a1.146,1.146,0,0,0-.885.37,1.915,1.915,0,0,0-.435,1.058h2.552v-.147a1.366,1.366,0,0,0-.33-.947A1.183,1.183,0,0,0,11.953-5.516ZM19.748-1.9a.591.591,0,0,0-.333-.53,3.785,3.785,0,0,0-1.07-.346q-2.45-.514-2.45-2.082a1.887,1.887,0,0,1,.759-1.527A3.06,3.06,0,0,1,18.637-7a3.293,3.293,0,0,1,2.092.616,1.94,1.94,0,0,1,.784,1.6H19.678a.888.888,0,0,0-.254-.651,1.075,1.075,0,0,0-.793-.257,1.1,1.1,0,0,0-.717.209.661.661,0,0,0-.254.533.565.565,0,0,0,.289.492,2.971,2.971,0,0,0,.974.324,7.958,7.958,0,0,1,1.155.308,1.9,1.9,0,0,1,1.454,1.847,1.792,1.792,0,0,1-.806,1.52,3.478,3.478,0,0,1-2.082.581A3.632,3.632,0,0,1,17.11-.181a2.572,2.572,0,0,1-1.051-.844,1.962,1.962,0,0,1-.381-1.158h1.739a.958.958,0,0,0,.362.749,1.435,1.435,0,0,0,.9.26,1.328,1.328,0,0,0,.8-.2A.622.622,0,0,0,19.748-1.9Zm2.679-1.6a4.073,4.073,0,0,1,.394-1.822,2.881,2.881,0,0,1,1.133-1.238A3.306,3.306,0,0,1,25.67-7a3.127,3.127,0,0,1,2.269.851,3.414,3.414,0,0,1,.981,2.311l.013.47A3.59,3.59,0,0,1,28.05-.828a3.067,3.067,0,0,1-2.368.955,3.082,3.082,0,0,1-2.371-.952,3.653,3.653,0,0,1-.885-2.59Zm1.834.13a2.567,2.567,0,0,0,.368,1.5,1.215,1.215,0,0,0,1.054.518,1.217,1.217,0,0,0,1.041-.512A2.809,2.809,0,0,0,27.1-3.5a2.542,2.542,0,0,0-.375-1.488,1.217,1.217,0,0,0-1.054-.528,1.2,1.2,0,0,0-1.041.524A2.857,2.857,0,0,0,24.261-3.367ZM32,0H30.158V-9.75H32Zm5.624-.7a2.3,2.3,0,0,1-1.879.825,2.17,2.17,0,0,1-1.685-.635,2.71,2.71,0,0,1-.594-1.86v-4.5H35.3v4.442q0,1.074.978,1.074A1.325,1.325,0,0,0,37.559-2V-6.868H39.4V0H37.673Zm6.018-.654a1.2,1.2,0,0,0,.825-.279.979.979,0,0,0,.33-.743h1.72a2.353,2.353,0,0,1-.381,1.279,2.513,2.513,0,0,1-1.025.9,3.208,3.208,0,0,1-1.438.321,2.982,2.982,0,0,1-2.323-.936A3.705,3.705,0,0,1,40.5-3.4v-.121a3.663,3.663,0,0,1,.844-2.533A2.947,2.947,0,0,1,43.659-7a2.889,2.889,0,0,1,2.066.733,2.6,2.6,0,0,1,.79,1.952H44.8a1.261,1.261,0,0,0-.33-.871,1.1,1.1,0,0,0-.838-.335,1.1,1.1,0,0,0-.968.467,2.708,2.708,0,0,0-.327,1.516v.191a2.742,2.742,0,0,0,.324,1.526A1.119,1.119,0,0,0,43.64-1.352ZM49.5,0H47.658V-6.868H49.5ZM47.55-8.646a.9.9,0,0,1,.276-.679,1.037,1.037,0,0,1,.752-.267,1.04,1.04,0,0,1,.749.267.9.9,0,0,1,.279.679.9.9,0,0,1-.282.686,1.042,1.042,0,0,1-.746.267,1.042,1.042,0,0,1-.746-.267A.9.9,0,0,1,47.55-8.646ZM50.724-3.5a4.073,4.073,0,0,1,.394-1.822,2.881,2.881,0,0,1,1.133-1.238A3.306,3.306,0,0,1,53.968-7a3.128,3.128,0,0,1,2.269.851,3.414,3.414,0,0,1,.981,2.311l.013.47a3.59,3.59,0,0,1-.882,2.536A3.067,3.067,0,0,1,53.98.127,3.082,3.082,0,0,1,51.61-.825a3.653,3.653,0,0,1-.885-2.59Zm1.834.13a2.567,2.567,0,0,0,.368,1.5,1.215,1.215,0,0,0,1.054.518,1.217,1.217,0,0,0,1.041-.512A2.809,2.809,0,0,0,55.4-3.5a2.542,2.542,0,0,0-.375-1.488,1.217,1.217,0,0,0-1.054-.528,1.2,1.2,0,0,0-1.041.524A2.857,2.857,0,0,0,52.559-3.367ZM54.33-9.75h2L54.571-7.782H53.079Zm5.719,2.882.057.793A2.4,2.4,0,0,1,62.08-7a1.993,1.993,0,0,1,1.625.641,2.991,2.991,0,0,1,.546,1.917V0H62.417V-4.4a1.2,1.2,0,0,0-.254-.849,1.135,1.135,0,0,0-.844-.264,1.261,1.261,0,0,0-1.162.662V0H58.322V-6.868Z" transform="translate(-6976 3552.424)" fill="#12263f"/>
      <path id="Trazado_139051" data-name="Trazado 139051" d="M-8.792-3.256V0h-1.9V-9.242H-7.09a4.171,4.171,0,0,1,1.831.381A2.807,2.807,0,0,1-4.043-7.779a3.018,3.018,0,0,1,.425,1.6,2.654,2.654,0,0,1-.93,2.142,3.873,3.873,0,0,1-2.574.784Zm0-1.542h1.7a1.673,1.673,0,0,0,1.152-.355,1.293,1.293,0,0,0,.4-1.016,1.524,1.524,0,0,0-.4-1.1,1.494,1.494,0,0,0-1.1-.432H-8.792ZM1.777-1.9H-1.562L-2.2,0H-4.221l3.44-9.242H.984L4.443,0H2.418ZM-1.047-3.447H1.263L.1-6.906ZM7.211-1.53h4.043V0H5.307V-9.242h1.9Z" transform="translate(-6861 3552.424)" fill="#12263f"/>
      <path id="Trazado_139052" data-name="Trazado 139052" d="M2.729-3.256V0H.825V-9.242H4.431a4.171,4.171,0,0,1,1.831.381A2.807,2.807,0,0,1,7.478-7.779a3.018,3.018,0,0,1,.425,1.6,2.654,2.654,0,0,1-.93,2.142A3.873,3.873,0,0,1,4.4-3.256Zm0-1.542h1.7a1.673,1.673,0,0,0,1.152-.355,1.293,1.293,0,0,0,.4-1.016,1.524,1.524,0,0,0-.4-1.1,1.494,1.494,0,0,0-1.1-.432H2.729ZM13.3-1.9H9.959L9.325,0H7.3l3.44-9.242H12.5L15.964,0H13.939ZM10.474-3.447h2.311L11.623-6.906ZM18.732-1.53h4.043V0H16.828V-9.242h1.9Z" transform="translate(-6801 3552.424)" fill="#12263f"/>
      <path id="Trazado_139053" data-name="Trazado 139053" d="M8.347,0h-1.9V-3.961H2.729V0H.825V-9.242h1.9V-5.5H6.443V-9.242h1.9ZM10.01,0V-9.242h2.844a4.319,4.319,0,0,1,2.18.549,3.829,3.829,0,0,1,1.5,1.562,4.816,4.816,0,0,1,.54,2.3v.425a4.83,4.83,0,0,1-.53,2.292A3.8,3.8,0,0,1,15.05-.559,4.351,4.351,0,0,1,12.873,0Zm1.9-7.7v6.17h.92a2.068,2.068,0,0,0,1.708-.73,3.3,3.3,0,0,0,.6-2.088v-.489a3.351,3.351,0,0,0-.584-2.136A2.061,2.061,0,0,0,12.854-7.7Z" transform="translate(-6727 3552.424)" fill="#12263f"/>
      <path id="Trazado_139058" data-name="Trazado 139058" d="M-18.929-3.777h-3.656V0h-1.9V-9.242h6.018V-7.7h-4.113v2.387h3.656Zm8.557-5.465v6.087a3.117,3.117,0,0,1-.949,2.4,3.659,3.659,0,0,1-2.593.882A3.7,3.7,0,0,1-16.485-.73a3.063,3.063,0,0,1-.971-2.355V-9.242h1.9v6.1a1.761,1.761,0,0,0,.435,1.323,1.669,1.669,0,0,0,1.2.416q1.606,0,1.631-1.688V-9.242ZM-6.906-1.53h4.043V0H-8.811V-9.242h1.9Zm7.04,0H4.177V0H-1.771V-9.242h1.9ZM16.028,0h-1.9V-3.961H10.41V0h-1.9V-9.242h1.9V-5.5h3.713V-9.242h1.9Zm1.663,0V-9.242h2.844a4.319,4.319,0,0,1,2.18.549,3.829,3.829,0,0,1,1.5,1.562,4.816,4.816,0,0,1,.54,2.3v.425a4.83,4.83,0,0,1-.53,2.292A3.8,3.8,0,0,1,22.731-.559,4.351,4.351,0,0,1,20.554,0Zm1.9-7.7v6.17h.92a2.068,2.068,0,0,0,1.708-.73,3.3,3.3,0,0,0,.6-2.088v-.489a3.351,3.351,0,0,0-.584-2.136A2.061,2.061,0,0,0,20.535-7.7ZM-9.833,13h-1.834V5.919l-2.19.676V5.116l3.828-1.371h.2ZM-.609,9.179A4.682,4.682,0,0,1-1.4,12.111a2.77,2.77,0,0,1-2.323,1.016,2.789,2.789,0,0,1-2.311-1,4.545,4.545,0,0,1-.819-2.856v-1.7a4.621,4.621,0,0,1,.8-2.939,2.79,2.79,0,0,1,2.314-1,2.793,2.793,0,0,1,2.311.993A4.531,4.531,0,0,1-.609,7.478Zm-1.834-1.87a3.384,3.384,0,0,0-.314-1.674,1.062,1.062,0,0,0-.981-.524,1.043,1.043,0,0,0-.955.5,3.167,3.167,0,0,0-.327,1.56V9.418A3.553,3.553,0,0,0-4.713,11.1a1.048,1.048,0,0,0,.987.55,1.03,1.03,0,0,0,.971-.527,3.468,3.468,0,0,0,.311-1.614Zm9.1-1.094a2.15,2.15,0,0,1-.336,1.193,2.421,2.421,0,0,1-.927.832,2.68,2.68,0,0,1,1.066.892,2.288,2.288,0,0,1,.394,1.336,2.422,2.422,0,0,1-.838,1.946,3.4,3.4,0,0,1-2.279.714,3.414,3.414,0,0,1-2.285-.717A2.416,2.416,0,0,1,.6,10.467,2.3,2.3,0,0,1,1,9.128a2.632,2.632,0,0,1,1.06-.889,2.4,2.4,0,0,1-.924-.832A2.165,2.165,0,0,1,.8,6.214a2.4,2.4,0,0,1,.787-1.882,3.1,3.1,0,0,1,2.139-.7,3.12,3.12,0,0,1,2.136.7A2.386,2.386,0,0,1,6.652,6.214Zm-1.644,4.12a1.331,1.331,0,0,0-.349-.965,1.245,1.245,0,0,0-.939-.362,1.243,1.243,0,0,0-.933.359,1.328,1.328,0,0,0-.349.968,1.328,1.328,0,0,0,.343.952,1.249,1.249,0,0,0,.952.362,1.246,1.246,0,0,0,.936-.349A1.325,1.325,0,0,0,5.008,10.334ZM4.818,6.3a1.27,1.27,0,0,0-.286-.866,1.014,1.014,0,0,0-.806-.327,1.021,1.021,0,0,0-.8.317,1.262,1.262,0,0,0-.286.876,1.326,1.326,0,0,0,.286.889,1,1,0,0,0,.806.336.99.99,0,0,0,.8-.336A1.336,1.336,0,0,0,4.818,6.3Zm9.49,2.875a4.682,4.682,0,0,1-.793,2.933,2.77,2.77,0,0,1-2.323,1.016,2.789,2.789,0,0,1-2.311-1,4.545,4.545,0,0,1-.819-2.856v-1.7a4.621,4.621,0,0,1,.8-2.939,2.79,2.79,0,0,1,2.314-1,2.793,2.793,0,0,1,2.311.993,4.531,4.531,0,0,1,.819,2.853Zm-1.834-1.87a3.384,3.384,0,0,0-.314-1.674,1.062,1.062,0,0,0-.981-.524,1.043,1.043,0,0,0-.955.5A3.167,3.167,0,0,0,9.9,7.168V9.418A3.553,3.553,0,0,0,10.2,11.1a1.048,1.048,0,0,0,.987.55,1.03,1.03,0,0,0,.971-.527,3.468,3.468,0,0,0,.311-1.614Z" transform="translate(-6645 3545.924)" fill="#12263f"/>
      <path id="Trazado_139063" data-name="Trazado 139063" d="M6.963,0H.628V-1.257l2.99-3.187a7.376,7.376,0,0,0,.911-1.174,1.887,1.887,0,0,0,.3-.952,1.412,1.412,0,0,0-.311-.968,1.123,1.123,0,0,0-.889-.352,1.211,1.211,0,0,0-.981.428,1.7,1.7,0,0,0-.359,1.127H.444a3.03,3.03,0,0,1,.4-1.542A2.841,2.841,0,0,1,1.987-8.972a3.463,3.463,0,0,1,1.669-.4,3.279,3.279,0,0,1,2.219.686,2.425,2.425,0,0,1,.79,1.936,3.108,3.108,0,0,1-.355,1.4A7.76,7.76,0,0,1,5.091-3.694L2.99-1.479H6.963Zm4.215-3.707-.99,1.066V0h-1.9V-9.242h1.9v4.189L11.026-6.2l2.355-3.041h2.342L12.441-5.135,15.818,0H13.552Z" transform="translate(-6583 3552.424)" fill="#12263f"/>
      <path id="Trazado_139064" data-name="Trazado 139064" d="M6.056-3.479H7.1V-2H6.056V0H4.221V-2H.432L.349-3.155,4.2-9.242H6.056Zm-3.878,0H4.221V-6.741L4.1-6.532Zm9-.229-.99,1.066V0h-1.9V-9.242h1.9v4.189L11.026-6.2l2.355-3.041h2.342L12.441-5.135,15.818,0H13.552Z" transform="translate(-6510 3552.424)" fill="#12263f"/>
      <path id="Trazado_139069" data-name="Trazado 139069" d="M6.652-6.786a2.15,2.15,0,0,1-.336,1.193,2.421,2.421,0,0,1-.927.832,2.68,2.68,0,0,1,1.066.892,2.288,2.288,0,0,1,.394,1.336A2.422,2.422,0,0,1,6.011-.587,3.4,3.4,0,0,1,3.732.127,3.414,3.414,0,0,1,1.447-.59,2.416,2.416,0,0,1,.6-2.533,2.3,2.3,0,0,1,1-3.872a2.632,2.632,0,0,1,1.06-.889,2.4,2.4,0,0,1-.924-.832A2.165,2.165,0,0,1,.8-6.786a2.4,2.4,0,0,1,.787-1.882,3.1,3.1,0,0,1,2.139-.7,3.12,3.12,0,0,1,2.136.7A2.386,2.386,0,0,1,6.652-6.786ZM5.008-2.666a1.331,1.331,0,0,0-.349-.965,1.245,1.245,0,0,0-.939-.362,1.243,1.243,0,0,0-.933.359,1.328,1.328,0,0,0-.349.968,1.328,1.328,0,0,0,.343.952,1.249,1.249,0,0,0,.952.362A1.246,1.246,0,0,0,4.669-1.7,1.325,1.325,0,0,0,5.008-2.666ZM4.818-6.7a1.27,1.27,0,0,0-.286-.866,1.014,1.014,0,0,0-.806-.327,1.021,1.021,0,0,0-.8.317,1.262,1.262,0,0,0-.286.876,1.326,1.326,0,0,0,.286.889,1,1,0,0,0,.806.336.99.99,0,0,0,.8-.336A1.336,1.336,0,0,0,4.818-6.7Zm6.36,2.99-.99,1.066V0h-1.9V-9.242h1.9v4.189L11.026-6.2l2.355-3.041h2.342L12.441-5.135,15.818,0H13.552Z" transform="translate(-6436 3552.424)" fill="#12263f"/>
      <path id="Trazado_139070" data-name="Trazado 139070" d="M6.652-6.786a2.15,2.15,0,0,1-.336,1.193,2.421,2.421,0,0,1-.927.832,2.68,2.68,0,0,1,1.066.892,2.288,2.288,0,0,1,.394,1.336A2.422,2.422,0,0,1,6.011-.587,3.4,3.4,0,0,1,3.732.127,3.414,3.414,0,0,1,1.447-.59,2.416,2.416,0,0,1,.6-2.533,2.3,2.3,0,0,1,1-3.872a2.632,2.632,0,0,1,1.06-.889,2.4,2.4,0,0,1-.924-.832A2.165,2.165,0,0,1,.8-6.786a2.4,2.4,0,0,1,.787-1.882,3.1,3.1,0,0,1,2.139-.7,3.12,3.12,0,0,1,2.136.7A2.386,2.386,0,0,1,6.652-6.786ZM5.008-2.666a1.331,1.331,0,0,0-.349-.965,1.245,1.245,0,0,0-.939-.362,1.243,1.243,0,0,0-.933.359,1.328,1.328,0,0,0-.349.968,1.328,1.328,0,0,0,.343.952,1.249,1.249,0,0,0,.952.362A1.246,1.246,0,0,0,4.669-1.7,1.325,1.325,0,0,0,5.008-2.666ZM4.818-6.7a1.27,1.27,0,0,0-.286-.866,1.014,1.014,0,0,0-.806-.327,1.021,1.021,0,0,0-.8.317,1.262,1.262,0,0,0-.286.876,1.326,1.326,0,0,0,.286.889,1,1,0,0,0,.806.336.99.99,0,0,0,.8-.336A1.336,1.336,0,0,0,4.818-6.7Zm6.36,2.99-.99,1.066V0h-1.9V-9.242h1.9v4.189L11.026-6.2l2.355-3.041h2.342L12.441-5.135,15.818,0H13.552Zm15.59-5.535v6.087a3.117,3.117,0,0,1-.949,2.4,3.659,3.659,0,0,1-2.593.882A3.7,3.7,0,0,1,20.655-.73a3.063,3.063,0,0,1-.971-2.355V-9.242h1.9v6.1a1.761,1.761,0,0,0,.435,1.323,1.669,1.669,0,0,0,1.2.416q1.606,0,1.631-1.688V-9.242ZM35.852,0h-1.9V-3.961H30.234V0h-1.9V-9.242h1.9V-5.5h3.713V-9.242h1.9Zm1.663,0V-9.242h2.844a4.319,4.319,0,0,1,2.18.549,3.829,3.829,0,0,1,1.5,1.562,4.816,4.816,0,0,1,.54,2.3v.425a4.83,4.83,0,0,1-.53,2.292A3.8,3.8,0,0,1,42.555-.559,4.351,4.351,0,0,1,40.377,0Zm1.9-7.7v6.17h.92a2.068,2.068,0,0,0,1.708-.73,3.3,3.3,0,0,0,.6-2.088v-.489a3.351,3.351,0,0,0-.584-2.136A2.061,2.061,0,0,0,40.358-7.7Zm9.82,5.408,2.095-6.951h2.12L50.235,0H48.249L45.043-9.242h2.114Z" transform="translate(-6383 3552.424)" fill="#12263f"/>
      <path id="Trazado_139047" data-name="Trazado 139047" d="M2.729-3.256V0H.825V-9.242H4.431a4.171,4.171,0,0,1,1.831.381A2.807,2.807,0,0,1,7.478-7.779a3.018,3.018,0,0,1,.425,1.6,2.654,2.654,0,0,1-.93,2.142A3.873,3.873,0,0,1,4.4-3.256Zm0-1.542h1.7a1.673,1.673,0,0,0,1.152-.355,1.293,1.293,0,0,0,.4-1.016,1.524,1.524,0,0,0-.4-1.1,1.494,1.494,0,0,0-1.1-.432H2.729ZM11.07,0H9.236V-6.868H11.07Zm-.54-9.655h2L10.772-7.687H9.28Zm4.735,4.837,1.155-2.05h1.961L16.428-3.5,18.465,0H16.5L15.272-2.158,14.054,0H12.08l2.038-3.5L12.168-6.868h1.968ZM22.3.127A3.372,3.372,0,0,1,19.84-.8a3.294,3.294,0,0,1-.949-2.469v-.178a4.149,4.149,0,0,1,.4-1.85,2.935,2.935,0,0,1,1.133-1.257A3.18,3.18,0,0,1,22.1-7a2.85,2.85,0,0,1,2.219.889,3.611,3.611,0,0,1,.809,2.52v.749H20.75a1.7,1.7,0,0,0,.536,1.079,1.621,1.621,0,0,0,1.133.406,1.98,1.98,0,0,0,1.657-.768l.9,1.009A2.754,2.754,0,0,1,23.861-.2,3.665,3.665,0,0,1,22.3.127ZM22.09-5.516a1.146,1.146,0,0,0-.885.37,1.915,1.915,0,0,0-.435,1.058h2.552v-.147a1.366,1.366,0,0,0-.33-.947A1.183,1.183,0,0,0,22.09-5.516ZM28.1,0H26.26V-9.75H28.1Zm4.672.127A3.372,3.372,0,0,1,30.313-.8a3.294,3.294,0,0,1-.949-2.469v-.178a4.149,4.149,0,0,1,.4-1.85A2.935,2.935,0,0,1,30.9-6.554,3.18,3.18,0,0,1,32.57-7a2.85,2.85,0,0,1,2.219.889,3.611,3.611,0,0,1,.809,2.52v.749H31.224a1.7,1.7,0,0,0,.536,1.079,1.621,1.621,0,0,0,1.133.406A1.98,1.98,0,0,0,34.55-2.12l.9,1.009A2.754,2.754,0,0,1,34.334-.2,3.665,3.665,0,0,1,32.773.127Zm-.209-5.643a1.146,1.146,0,0,0-.885.37,1.915,1.915,0,0,0-.435,1.058h2.552v-.147a1.366,1.366,0,0,0-.33-.947A1.183,1.183,0,0,0,32.563-5.516ZM40.358-1.9a.591.591,0,0,0-.333-.53,3.785,3.785,0,0,0-1.07-.346q-2.45-.514-2.45-2.082a1.887,1.887,0,0,1,.759-1.527A3.06,3.06,0,0,1,39.248-7a3.293,3.293,0,0,1,2.092.616,1.94,1.94,0,0,1,.784,1.6H40.289a.888.888,0,0,0-.254-.651,1.075,1.075,0,0,0-.793-.257,1.1,1.1,0,0,0-.717.209.661.661,0,0,0-.254.533.565.565,0,0,0,.289.492,2.971,2.971,0,0,0,.974.324,7.959,7.959,0,0,1,1.155.308,1.9,1.9,0,0,1,1.454,1.847,1.792,1.792,0,0,1-.806,1.52,3.478,3.478,0,0,1-2.082.581,3.632,3.632,0,0,1-1.533-.308,2.572,2.572,0,0,1-1.051-.844,1.962,1.962,0,0,1-.381-1.158h1.739a.958.958,0,0,0,.362.749,1.435,1.435,0,0,0,.9.26,1.328,1.328,0,0,0,.8-.2A.622.622,0,0,0,40.358-1.9Z" transform="translate(-6965 3583.5)" fill="#12263f"/>
      <path id="Trazado_139049" data-name="Trazado 139049" d="M-18.386-8.582-22.214,0h-1.231l3.815-8.277h-5v-.965h6.246ZM-11,0h-6.056V-.844l3.2-3.555a7.6,7.6,0,0,0,.981-1.311,2.188,2.188,0,0,0,.27-1.044,1.658,1.658,0,0,0-.438-1.187A1.531,1.531,0,0,0-14.209-8.4a1.814,1.814,0,0,0-1.362.5,1.9,1.9,0,0,0-.486,1.387h-1.174a2.726,2.726,0,0,1,.822-2.063,3.047,3.047,0,0,1,2.2-.787,2.928,2.928,0,0,1,2.038.676,2.306,2.306,0,0,1,.749,1.8,5.287,5.287,0,0,1-1.739,3.25L-15.637-.958H-11Zm7.04-3.942a5.371,5.371,0,0,1-.7,3.066,2.506,2.506,0,0,1-2.2,1,2.524,2.524,0,0,1-2.19-.981,5.1,5.1,0,0,1-.736-2.929V-5.351a5.251,5.251,0,0,1,.7-3.028,2.525,2.525,0,0,1,2.209-.99,2.548,2.548,0,0,1,2.2.955,5.068,5.068,0,0,1,.724,2.948ZM-5.132-5.548a4.3,4.3,0,0,0-.419-2.174A1.442,1.442,0,0,0-6.878-8.4a1.423,1.423,0,0,0-1.314.679,4.2,4.2,0,0,0-.425,2.088v1.879a4.372,4.372,0,0,0,.435,2.212,1.439,1.439,0,0,0,1.317.714A1.42,1.42,0,0,0-5.573-1.5a4.214,4.214,0,0,0,.441-2.12Zm5.1,1.187L1.495-6.868H2.866L.619-3.472,2.936,0H1.577L-.01-2.571-1.6,0H-2.961L-.644-3.472l-2.247-3.4h1.358Zm4.558-.273L5-9.242H9.734v1.085H6l-.279,2.52a2.983,2.983,0,0,1,1.542-.4A2.55,2.55,0,0,1,9.264-5.2a3.271,3.271,0,0,1,.743,2.257A3.158,3.158,0,0,1,9.236-.7,2.811,2.811,0,0,1,7.081.127a2.921,2.921,0,0,1-2-.679A2.711,2.711,0,0,1,4.2-2.431H5.31a1.865,1.865,0,0,0,.565,1.2,1.757,1.757,0,0,0,1.206.4A1.585,1.585,0,0,0,8.366-1.39a2.335,2.335,0,0,0,.467-1.542,2.143,2.143,0,0,0-.5-1.489,1.717,1.717,0,0,0-1.343-.562,1.936,1.936,0,0,0-1.206.336l-.311.254ZM17.256-8.582,13.428,0H12.2l3.815-8.277h-5v-.965h6.246ZM23.2-9.249v1h-.216a3.092,3.092,0,0,0-2.184.813,3.381,3.381,0,0,0-.939,2.215,2.507,2.507,0,0,1,1.993-.838,2.4,2.4,0,0,1,1.927.851,3.281,3.281,0,0,1,.72,2.2A3.27,3.27,0,0,1,23.721-.73a2.678,2.678,0,0,1-2.085.857A2.638,2.638,0,0,1,19.484-.892a4.038,4.038,0,0,1-.825-2.625v-.451a6.084,6.084,0,0,1,1.089-3.9,4,4,0,0,1,3.24-1.381ZM21.655-5.084a1.874,1.874,0,0,0-1.111.362,1.885,1.885,0,0,0-.7.908v.432a3.032,3.032,0,0,0,.514,1.841,1.541,1.541,0,0,0,1.282.7,1.493,1.493,0,0,0,1.247-.584,2.423,2.423,0,0,0,.454-1.53,2.424,2.424,0,0,0-.46-1.539A1.475,1.475,0,0,0,21.655-5.084Z" transform="translate(-6861 3583.5)" fill="#12263f"/>
      <path id="Trazado_139055" data-name="Trazado 139055" d="M-18.386-8.582-22.214,0h-1.231l3.815-8.277h-5v-.965h6.246ZM-11,0h-6.056V-.844l3.2-3.555a7.6,7.6,0,0,0,.981-1.311,2.188,2.188,0,0,0,.27-1.044,1.658,1.658,0,0,0-.438-1.187A1.531,1.531,0,0,0-14.209-8.4a1.814,1.814,0,0,0-1.362.5,1.9,1.9,0,0,0-.486,1.387h-1.174a2.726,2.726,0,0,1,.822-2.063,3.047,3.047,0,0,1,2.2-.787,2.928,2.928,0,0,1,2.038.676,2.306,2.306,0,0,1,.749,1.8,5.287,5.287,0,0,1-1.739,3.25L-15.637-.958H-11Zm7.04-3.942a5.371,5.371,0,0,1-.7,3.066,2.506,2.506,0,0,1-2.2,1,2.524,2.524,0,0,1-2.19-.981,5.1,5.1,0,0,1-.736-2.929V-5.351a5.251,5.251,0,0,1,.7-3.028,2.525,2.525,0,0,1,2.209-.99,2.548,2.548,0,0,1,2.2.955,5.068,5.068,0,0,1,.724,2.948ZM-5.132-5.548a4.3,4.3,0,0,0-.419-2.174A1.442,1.442,0,0,0-6.878-8.4a1.423,1.423,0,0,0-1.314.679,4.2,4.2,0,0,0-.425,2.088v1.879a4.372,4.372,0,0,0,.435,2.212,1.439,1.439,0,0,0,1.317.714A1.42,1.42,0,0,0-5.573-1.5a4.214,4.214,0,0,0,.441-2.12Zm5.1,1.187L1.495-6.868H2.866L.619-3.472,2.936,0H1.577L-.01-2.571-1.6,0H-2.961L-.644-3.472l-2.247-3.4h1.358Zm4.558-.273L5-9.242H9.734v1.085H6l-.279,2.52a2.983,2.983,0,0,1,1.542-.4A2.55,2.55,0,0,1,9.264-5.2a3.271,3.271,0,0,1,.743,2.257A3.158,3.158,0,0,1,9.236-.7,2.811,2.811,0,0,1,7.081.127a2.921,2.921,0,0,1-2-.679A2.711,2.711,0,0,1,4.2-2.431H5.31a1.865,1.865,0,0,0,.565,1.2,1.757,1.757,0,0,0,1.206.4A1.585,1.585,0,0,0,8.366-1.39a2.335,2.335,0,0,0,.467-1.542,2.143,2.143,0,0,0-.5-1.489,1.717,1.717,0,0,0-1.343-.562,1.936,1.936,0,0,0-1.206.336l-.311.254ZM17.256-8.582,13.428,0H12.2l3.815-8.277h-5v-.965h6.246ZM23.2-9.249v1h-.216a3.092,3.092,0,0,0-2.184.813,3.381,3.381,0,0,0-.939,2.215,2.507,2.507,0,0,1,1.993-.838,2.4,2.4,0,0,1,1.927.851,3.281,3.281,0,0,1,.72,2.2A3.27,3.27,0,0,1,23.721-.73a2.678,2.678,0,0,1-2.085.857A2.638,2.638,0,0,1,19.484-.892a4.038,4.038,0,0,1-.825-2.625v-.451a6.084,6.084,0,0,1,1.089-3.9,4,4,0,0,1,3.24-1.381ZM21.655-5.084a1.874,1.874,0,0,0-1.111.362,1.885,1.885,0,0,0-.7.908v.432a3.032,3.032,0,0,0,.514,1.841,1.541,1.541,0,0,0,1.282.7,1.493,1.493,0,0,0,1.247-.584,2.423,2.423,0,0,0,.454-1.53,2.424,2.424,0,0,0-.46-1.539A1.475,1.475,0,0,0,21.655-5.084Z" transform="translate(-6789 3583.5)" fill="#12263f"/>
      <path id="Trazado_139054" data-name="Trazado 139054" d="M-24.143,0h-1.181V-7.827l-2.368.87V-8.023l3.364-1.263h.184Zm9.5,0H-20.7V-.844L-17.5-4.4a7.6,7.6,0,0,0,.981-1.311,2.188,2.188,0,0,0,.27-1.044,1.658,1.658,0,0,0-.438-1.187A1.531,1.531,0,0,0-17.859-8.4a1.814,1.814,0,0,0-1.362.5,1.9,1.9,0,0,0-.486,1.387h-1.174a2.726,2.726,0,0,1,.822-2.063,3.047,3.047,0,0,1,2.2-.787,2.928,2.928,0,0,1,2.038.676,2.306,2.306,0,0,1,.749,1.8,5.287,5.287,0,0,1-1.739,3.25L-19.287-.958h4.64ZM-7.8-6.83A2.146,2.146,0,0,1-8.163-5.6a2.483,2.483,0,0,1-.987.844A2.649,2.649,0,0,1-8-3.847a2.284,2.284,0,0,1,.422,1.352A2.415,2.415,0,0,1-8.392-.584a3.109,3.109,0,0,1-2.13.711,3.1,3.1,0,0,1-2.136-.714,2.426,2.426,0,0,1-.8-1.907,2.352,2.352,0,0,1,.409-1.352,2.548,2.548,0,0,1,1.133-.914,2.422,2.422,0,0,1-.971-.844,2.177,2.177,0,0,1-.355-1.225A2.389,2.389,0,0,1-12.5-8.684a2.81,2.81,0,0,1,1.974-.686,2.812,2.812,0,0,1,1.971.686A2.384,2.384,0,0,1-7.8-6.83Zm-.958,4.31a1.7,1.7,0,0,0-.492-1.263,1.745,1.745,0,0,0-1.285-.489,1.714,1.714,0,0,0-1.273.482,1.723,1.723,0,0,0-.479,1.27,1.641,1.641,0,0,0,.467,1.238,1.791,1.791,0,0,0,1.3.451,1.786,1.786,0,0,0,1.295-.454A1.637,1.637,0,0,0-8.757-2.52ZM-10.521-8.4a1.515,1.515,0,0,0-1.12.428,1.574,1.574,0,0,0-.428,1.165,1.566,1.566,0,0,0,.422,1.139,1.5,1.5,0,0,0,1.127.435,1.5,1.5,0,0,0,1.127-.435,1.566,1.566,0,0,0,.422-1.139A1.567,1.567,0,0,0-9.41-7.96,1.494,1.494,0,0,0-10.521-8.4ZM-.308-3.942a5.371,5.371,0,0,1-.7,3.066,2.506,2.506,0,0,1-2.2,1,2.524,2.524,0,0,1-2.19-.981,5.1,5.1,0,0,1-.736-2.929V-5.351a5.251,5.251,0,0,1,.7-3.028,2.525,2.525,0,0,1,2.209-.99,2.548,2.548,0,0,1,2.2.955A5.068,5.068,0,0,1-.308-5.465ZM-1.482-5.548A4.3,4.3,0,0,0-1.9-7.722,1.442,1.442,0,0,0-3.228-8.4a1.423,1.423,0,0,0-1.314.679,4.2,4.2,0,0,0-.425,2.088v1.879a4.372,4.372,0,0,0,.435,2.212,1.439,1.439,0,0,0,1.317.714A1.42,1.42,0,0,0-1.923-1.5a4.214,4.214,0,0,0,.441-2.12Zm5.1,1.187L5.145-6.868H6.516l-2.247,3.4L6.586,0H5.227L3.64-2.571,2.053,0H.689L3.006-3.472.759-6.868H2.117Zm9.985-4.221L9.779,0H8.547l3.815-8.277h-5v-.965h6.246ZM20.995,0H14.939V-.844l3.2-3.555a7.6,7.6,0,0,0,.981-1.311,2.188,2.188,0,0,0,.27-1.044,1.658,1.658,0,0,0-.438-1.187A1.531,1.531,0,0,0,17.783-8.4a1.814,1.814,0,0,0-1.362.5,1.9,1.9,0,0,0-.486,1.387H14.761a2.726,2.726,0,0,1,.822-2.063,3.047,3.047,0,0,1,2.2-.787,2.928,2.928,0,0,1,2.038.676,2.306,2.306,0,0,1,.749,1.8,5.287,5.287,0,0,1-1.739,3.25L16.355-.958h4.64Zm7.04-3.942a5.371,5.371,0,0,1-.7,3.066,2.506,2.506,0,0,1-2.2,1,2.524,2.524,0,0,1-2.19-.981A5.1,5.1,0,0,1,22.2-3.783V-5.351a5.251,5.251,0,0,1,.7-3.028,2.525,2.525,0,0,1,2.209-.99,2.548,2.548,0,0,1,2.2.955,5.068,5.068,0,0,1,.724,2.948ZM26.86-5.548a4.3,4.3,0,0,0-.419-2.174A1.442,1.442,0,0,0,25.115-8.4a1.423,1.423,0,0,0-1.314.679,4.2,4.2,0,0,0-.425,2.088v1.879a4.372,4.372,0,0,0,.435,2.212,1.439,1.439,0,0,0,1.317.714A1.42,1.42,0,0,0,26.419-1.5a4.214,4.214,0,0,0,.441-2.12Z" transform="translate(-6718 3583.5)" fill="#12263f"/>
      <path id="Trazado_139059" data-name="Trazado 139059" d="M-28.647,0h-1.181V-7.827l-2.368.87V-8.023l3.364-1.263h.184Zm7.941-4.062a2.873,2.873,0,0,1-.879.7,2.385,2.385,0,0,1-1.12.267A2.463,2.463,0,0,1-24.1-3.485a2.558,2.558,0,0,1-.917-1.108A3.776,3.776,0,0,1-25.34-6.17a3.847,3.847,0,0,1,.352-1.669,2.588,2.588,0,0,1,1-1.136,2.851,2.851,0,0,1,1.511-.394,2.581,2.581,0,0,1,2.161,1.025,4.471,4.471,0,0,1,.79,2.8v.343a5.974,5.974,0,0,1-1.066,3.939A4.1,4.1,0,0,1-23.81.006h-.229v-1h.248a3.233,3.233,0,0,0,2.234-.757A3.248,3.248,0,0,0-20.706-4.062Zm-1.809,0a1.813,1.813,0,0,0,1.089-.362,2.133,2.133,0,0,0,.727-.9v-.47a3.232,3.232,0,0,0-.5-1.879,1.5,1.5,0,0,0-1.27-.724,1.508,1.508,0,0,0-1.244.594,2.448,2.448,0,0,0-.47,1.565,2.548,2.548,0,0,0,.454,1.558A1.437,1.437,0,0,0-22.515-4.062ZM-11.851,0h-6.056V-.844l3.2-3.555a7.6,7.6,0,0,0,.981-1.311,2.188,2.188,0,0,0,.27-1.044A1.658,1.658,0,0,0-13.9-7.941,1.531,1.531,0,0,0-15.063-8.4a1.814,1.814,0,0,0-1.362.5,1.9,1.9,0,0,0-.486,1.387h-1.174a2.726,2.726,0,0,1,.822-2.063,3.047,3.047,0,0,1,2.2-.787,2.928,2.928,0,0,1,2.038.676,2.306,2.306,0,0,1,.749,1.8,5.287,5.287,0,0,1-1.739,3.25L-16.491-.958h4.64Zm7.04-3.942a5.371,5.371,0,0,1-.7,3.066,2.506,2.506,0,0,1-2.2,1,2.524,2.524,0,0,1-2.19-.981,5.1,5.1,0,0,1-.736-2.929V-5.351a5.251,5.251,0,0,1,.7-3.028,2.525,2.525,0,0,1,2.209-.99,2.548,2.548,0,0,1,2.2.955,5.068,5.068,0,0,1,.724,2.948ZM-5.986-5.548A4.3,4.3,0,0,0-6.4-7.722,1.442,1.442,0,0,0-7.731-8.4a1.423,1.423,0,0,0-1.314.679,4.2,4.2,0,0,0-.425,2.088v1.879a4.372,4.372,0,0,0,.435,2.212,1.439,1.439,0,0,0,1.317.714A1.42,1.42,0,0,0-6.427-1.5a4.214,4.214,0,0,0,.441-2.12Zm6-.152L2.228-9.242H3.663L.743-4.659,3.732,0H2.285L.013-3.605-2.272,0H-3.713l3-4.659L-3.644-9.242h1.428ZM8.7,0H7.522V-7.827l-2.368.87V-8.023L8.519-9.287H8.7Zm9.236-3.942a5.371,5.371,0,0,1-.7,3.066,2.506,2.506,0,0,1-2.2,1,2.524,2.524,0,0,1-2.19-.981A5.1,5.1,0,0,1,12.1-3.783V-5.351a5.251,5.251,0,0,1,.7-3.028,2.525,2.525,0,0,1,2.209-.99,2.548,2.548,0,0,1,2.2.955,5.068,5.068,0,0,1,.724,2.948ZM16.764-5.548a4.3,4.3,0,0,0-.419-2.174A1.442,1.442,0,0,0,15.019-8.4a1.423,1.423,0,0,0-1.314.679,4.2,4.2,0,0,0-.425,2.088v1.879a4.372,4.372,0,0,0,.435,2.212,1.439,1.439,0,0,0,1.317.714A1.42,1.42,0,0,0,16.323-1.5a4.214,4.214,0,0,0,.441-2.12ZM25.048-6.83A2.146,2.146,0,0,1,24.683-5.6a2.483,2.483,0,0,1-.987.844,2.649,2.649,0,0,1,1.146.908,2.284,2.284,0,0,1,.422,1.352,2.415,2.415,0,0,1-.809,1.911,3.109,3.109,0,0,1-2.13.711,3.1,3.1,0,0,1-2.136-.714,2.426,2.426,0,0,1-.8-1.907A2.352,2.352,0,0,1,19.8-3.847a2.548,2.548,0,0,1,1.133-.914,2.422,2.422,0,0,1-.971-.844A2.177,2.177,0,0,1,19.6-6.83a2.389,2.389,0,0,1,.749-1.854,2.81,2.81,0,0,1,1.974-.686,2.812,2.812,0,0,1,1.971.686A2.384,2.384,0,0,1,25.048-6.83Zm-.958,4.31A1.7,1.7,0,0,0,23.6-3.783a1.745,1.745,0,0,0-1.285-.489,1.714,1.714,0,0,0-1.273.482,1.723,1.723,0,0,0-.479,1.27,1.641,1.641,0,0,0,.467,1.238,1.791,1.791,0,0,0,1.3.451,1.786,1.786,0,0,0,1.295-.454A1.637,1.637,0,0,0,24.089-2.52ZM22.325-8.4a1.515,1.515,0,0,0-1.12.428,1.574,1.574,0,0,0-.428,1.165A1.566,1.566,0,0,0,21.2-5.672a1.5,1.5,0,0,0,1.127.435,1.5,1.5,0,0,0,1.127-.435,1.566,1.566,0,0,0,.422-1.139,1.567,1.567,0,0,0-.438-1.149A1.494,1.494,0,0,0,22.325-8.4ZM32.538-3.942a5.371,5.371,0,0,1-.7,3.066,2.506,2.506,0,0,1-2.2,1,2.524,2.524,0,0,1-2.19-.981A5.1,5.1,0,0,1,26.7-3.783V-5.351a5.251,5.251,0,0,1,.7-3.028,2.525,2.525,0,0,1,2.209-.99,2.548,2.548,0,0,1,2.2.955,5.068,5.068,0,0,1,.724,2.948ZM31.364-5.548a4.3,4.3,0,0,0-.419-2.174A1.442,1.442,0,0,0,29.618-8.4a1.423,1.423,0,0,0-1.314.679,4.2,4.2,0,0,0-.425,2.088v1.879a4.372,4.372,0,0,0,.435,2.212,1.439,1.439,0,0,0,1.317.714A1.42,1.42,0,0,0,30.923-1.5a4.214,4.214,0,0,0,.441-2.12Z" transform="translate(-6645 3583.5)" fill="#12263f"/>
      <path id="Trazado_139062" data-name="Trazado 139062" d="M-26.451,0h-6.056V-.844l3.2-3.555a7.6,7.6,0,0,0,.981-1.311,2.188,2.188,0,0,0,.27-1.044,1.658,1.658,0,0,0-.438-1.187A1.531,1.531,0,0,0-29.663-8.4a1.814,1.814,0,0,0-1.362.5,1.9,1.9,0,0,0-.486,1.387h-1.174a2.726,2.726,0,0,1,.822-2.063,3.047,3.047,0,0,1,2.2-.787,2.928,2.928,0,0,1,2.038.676,2.306,2.306,0,0,1,.749,1.8,5.287,5.287,0,0,1-1.739,3.25L-31.091-.958h4.64Zm7.04-3.942a5.371,5.371,0,0,1-.7,3.066,2.506,2.506,0,0,1-2.2,1,2.524,2.524,0,0,1-2.19-.981,5.1,5.1,0,0,1-.736-2.929V-5.351a5.251,5.251,0,0,1,.7-3.028,2.525,2.525,0,0,1,2.209-.99,2.548,2.548,0,0,1,2.2.955,5.068,5.068,0,0,1,.724,2.948Zm-1.174-1.606A4.3,4.3,0,0,0-21-7.722,1.442,1.442,0,0,0-22.331-8.4a1.423,1.423,0,0,0-1.314.679,4.2,4.2,0,0,0-.425,2.088v1.879a4.372,4.372,0,0,0,.435,2.212,1.439,1.439,0,0,0,1.317.714A1.42,1.42,0,0,0-21.027-1.5a4.214,4.214,0,0,0,.441-2.12ZM-12.949-3.1h1.282v.958h-1.282V0H-14.13V-2.146h-4.208v-.692l4.139-6.4h1.25Zm-4.056,0h2.875V-7.636l-.14.254ZM-5-6.83A2.146,2.146,0,0,1-5.367-5.6a2.483,2.483,0,0,1-.987.844,2.649,2.649,0,0,1,1.146.908,2.284,2.284,0,0,1,.422,1.352A2.415,2.415,0,0,1-5.6-.584a3.109,3.109,0,0,1-2.13.711A3.1,3.1,0,0,1-9.861-.587a2.426,2.426,0,0,1-.8-1.907,2.352,2.352,0,0,1,.409-1.352,2.548,2.548,0,0,1,1.133-.914,2.422,2.422,0,0,1-.971-.844,2.177,2.177,0,0,1-.355-1.225A2.389,2.389,0,0,1-9.7-8.684a2.81,2.81,0,0,1,1.974-.686,2.812,2.812,0,0,1,1.971.686A2.384,2.384,0,0,1-5-6.83ZM-5.96-2.52a1.7,1.7,0,0,0-.492-1.263,1.745,1.745,0,0,0-1.285-.489A1.714,1.714,0,0,0-9.01-3.79,1.723,1.723,0,0,0-9.49-2.52a1.641,1.641,0,0,0,.467,1.238,1.791,1.791,0,0,0,1.3.451A1.786,1.786,0,0,0-6.43-1.285,1.637,1.637,0,0,0-5.96-2.52ZM-7.725-8.4a1.515,1.515,0,0,0-1.12.428,1.574,1.574,0,0,0-.428,1.165,1.566,1.566,0,0,0,.422,1.139,1.5,1.5,0,0,0,1.127.435A1.5,1.5,0,0,0-6.6-5.672a1.566,1.566,0,0,0,.422-1.139A1.567,1.567,0,0,0-6.614-7.96,1.494,1.494,0,0,0-7.725-8.4ZM.013-5.7,2.228-9.242H3.663L.743-4.659,3.732,0H2.285L.013-3.605-2.272,0H-3.713l3-4.659L-3.644-9.242h1.428ZM8.7,0H7.522V-7.827l-2.368.87V-8.023L8.519-9.287H8.7Zm3.98-4.634.47-4.608h4.735v1.085H14.149l-.279,2.52a2.983,2.983,0,0,1,1.542-.4,2.55,2.55,0,0,1,2.006.835,3.271,3.271,0,0,1,.743,2.257A3.158,3.158,0,0,1,17.389-.7a2.811,2.811,0,0,1-2.155.822,2.921,2.921,0,0,1-2-.679,2.711,2.711,0,0,1-.882-1.879h1.111a1.865,1.865,0,0,0,.565,1.2,1.757,1.757,0,0,0,1.206.4A1.585,1.585,0,0,0,16.52-1.39a2.335,2.335,0,0,0,.467-1.542,2.143,2.143,0,0,0-.5-1.489,1.717,1.717,0,0,0-1.343-.562,1.936,1.936,0,0,0-1.206.336l-.311.254Zm7.3,0,.47-4.608h4.735v1.085H21.449l-.279,2.52a2.983,2.983,0,0,1,1.542-.4,2.55,2.55,0,0,1,2.006.835,3.271,3.271,0,0,1,.743,2.257A3.158,3.158,0,0,1,24.689-.7a2.811,2.811,0,0,1-2.155.822,2.921,2.921,0,0,1-2-.679,2.711,2.711,0,0,1-.882-1.879h1.111a1.865,1.865,0,0,0,.565,1.2,1.757,1.757,0,0,0,1.206.4A1.585,1.585,0,0,0,23.82-1.39a2.335,2.335,0,0,0,.467-1.542,2.143,2.143,0,0,0-.5-1.489,1.717,1.717,0,0,0-1.343-.562,1.936,1.936,0,0,0-1.206.336l-.311.254ZM31.351-9.249v1h-.216a3.092,3.092,0,0,0-2.184.813,3.381,3.381,0,0,0-.939,2.215,2.507,2.507,0,0,1,1.993-.838,2.4,2.4,0,0,1,1.927.851,3.281,3.281,0,0,1,.72,2.2A3.27,3.27,0,0,1,31.875-.73,2.678,2.678,0,0,1,29.79.127,2.638,2.638,0,0,1,27.638-.892a4.038,4.038,0,0,1-.825-2.625v-.451a6.084,6.084,0,0,1,1.089-3.9,4,4,0,0,1,3.24-1.381ZM29.809-5.084a1.874,1.874,0,0,0-1.111.362,1.885,1.885,0,0,0-.7.908v.432a3.032,3.032,0,0,0,.514,1.841,1.541,1.541,0,0,0,1.282.7,1.493,1.493,0,0,0,1.247-.584,2.423,2.423,0,0,0,.454-1.53,2.424,2.424,0,0,0-.46-1.539A1.475,1.475,0,0,0,29.809-5.084Z" transform="translate(-6573 3583.5)" fill="#12263f"/>
      <path id="Trazado_139065" data-name="Trazado 139065" d="M-23.9-3.1h1.282v.958H-23.9V0H-25.08V-2.146h-4.208v-.692l4.139-6.4h1.25Zm-4.056,0h2.875V-7.636l-.14.254Zm12.194-.838a5.371,5.371,0,0,1-.7,3.066,2.506,2.506,0,0,1-2.2,1,2.524,2.524,0,0,1-2.19-.981,5.1,5.1,0,0,1-.736-2.929V-5.351a5.251,5.251,0,0,1,.7-3.028,2.525,2.525,0,0,1,2.209-.99,2.548,2.548,0,0,1,2.2.955,5.068,5.068,0,0,1,.724,2.948Zm-1.174-1.606a4.3,4.3,0,0,0-.419-2.174A1.442,1.442,0,0,0-18.681-8.4,1.423,1.423,0,0,0-20-7.725a4.2,4.2,0,0,0-.425,2.088v1.879a4.372,4.372,0,0,0,.435,2.212,1.439,1.439,0,0,0,1.317.714A1.42,1.42,0,0,0-17.377-1.5a4.214,4.214,0,0,0,.441-2.12Zm7.179,1.485a2.873,2.873,0,0,1-.879.7,2.385,2.385,0,0,1-1.12.267,2.463,2.463,0,0,1-1.393-.394,2.558,2.558,0,0,1-.917-1.108A3.776,3.776,0,0,1-14.39-6.17a3.847,3.847,0,0,1,.352-1.669,2.588,2.588,0,0,1,1-1.136,2.851,2.851,0,0,1,1.511-.394A2.581,2.581,0,0,1-9.366-8.344a4.471,4.471,0,0,1,.79,2.8v.343A5.974,5.974,0,0,1-9.642-1.266,4.1,4.1,0,0,1-12.86.006h-.229v-1h.248a3.233,3.233,0,0,0,2.234-.757A3.248,3.248,0,0,0-9.756-4.062Zm-1.809,0a1.813,1.813,0,0,0,1.089-.362,2.133,2.133,0,0,0,.727-.9v-.47a3.232,3.232,0,0,0-.5-1.879,1.5,1.5,0,0,0-1.27-.724,1.508,1.508,0,0,0-1.244.594,2.448,2.448,0,0,0-.47,1.565,2.548,2.548,0,0,0,.454,1.558A1.437,1.437,0,0,0-11.565-4.062Zm9.217-5.186v1h-.216a3.092,3.092,0,0,0-2.184.813,3.381,3.381,0,0,0-.939,2.215,2.507,2.507,0,0,1,1.993-.838,2.4,2.4,0,0,1,1.927.851,3.281,3.281,0,0,1,.72,2.2A3.27,3.27,0,0,1-1.825-.73,2.678,2.678,0,0,1-3.91.127,2.638,2.638,0,0,1-6.062-.892a4.038,4.038,0,0,1-.825-2.625v-.451A6.084,6.084,0,0,1-5.8-7.868a4,4,0,0,1,3.24-1.381ZM-3.891-5.084A1.874,1.874,0,0,0-5-4.723a1.885,1.885,0,0,0-.7.908v.432a3.032,3.032,0,0,0,.514,1.841,1.541,1.541,0,0,0,1.282.7,1.493,1.493,0,0,0,1.247-.584,2.423,2.423,0,0,0,.454-1.53A2.424,2.424,0,0,0-2.669-4.5,1.475,1.475,0,0,0-3.891-5.084ZM3.663-5.7,5.878-9.242H7.313L4.393-4.659,7.382,0H5.935L3.663-3.605,1.377,0H-.063l3-4.659L.006-9.242H1.435Zm6.538.508h.882a1.939,1.939,0,0,0,1.308-.438,1.463,1.463,0,0,0,.476-1.149A1.434,1.434,0,0,0,11.248-8.4a1.684,1.684,0,0,0-1.216.435,1.522,1.522,0,0,0-.454,1.152H8.4a2.358,2.358,0,0,1,.8-1.825,2.925,2.925,0,0,1,2.041-.727,2.891,2.891,0,0,1,2.05.692,2.5,2.5,0,0,1,.743,1.923,2.029,2.029,0,0,1-.39,1.168,2.357,2.357,0,0,1-1.063.844,2.271,2.271,0,0,1,1.177.8,2.221,2.221,0,0,1,.416,1.365A2.521,2.521,0,0,1,13.368-.6a3.043,3.043,0,0,1-2.114.73,3.123,3.123,0,0,1-2.117-.7,2.337,2.337,0,0,1-.816-1.86H9.5A1.511,1.511,0,0,0,9.979-1.27a1.811,1.811,0,0,0,1.276.438,1.777,1.777,0,0,0,1.3-.444,1.712,1.712,0,0,0,.451-1.276,1.554,1.554,0,0,0-.5-1.238,2.157,2.157,0,0,0-1.428-.444H10.2ZM19.652,0H18.472V-7.827l-2.368.87V-8.023l3.364-1.263h.184Zm7.3,0H25.771V-7.827l-2.368.87V-8.023l3.364-1.263h.184Z" transform="translate(-6501 3583.5)" fill="#12263f"/>
      <path id="Trazado_139068" data-name="Trazado 139068" d="M-26.9-6.83A2.146,2.146,0,0,1-27.266-5.6a2.483,2.483,0,0,1-.987.844,2.649,2.649,0,0,1,1.146.908,2.284,2.284,0,0,1,.422,1.352,2.415,2.415,0,0,1-.809,1.911,3.109,3.109,0,0,1-2.13.711A3.1,3.1,0,0,1-31.76-.587a2.426,2.426,0,0,1-.8-1.907,2.352,2.352,0,0,1,.409-1.352,2.548,2.548,0,0,1,1.133-.914,2.422,2.422,0,0,1-.971-.844,2.177,2.177,0,0,1-.355-1.225A2.389,2.389,0,0,1-31.6-8.684a2.81,2.81,0,0,1,1.974-.686,2.812,2.812,0,0,1,1.971.686A2.384,2.384,0,0,1-26.9-6.83Zm-.958,4.31a1.7,1.7,0,0,0-.492-1.263,1.745,1.745,0,0,0-1.285-.489,1.714,1.714,0,0,0-1.273.482,1.723,1.723,0,0,0-.479,1.27,1.641,1.641,0,0,0,.467,1.238,1.791,1.791,0,0,0,1.3.451,1.786,1.786,0,0,0,1.295-.454A1.637,1.637,0,0,0-27.86-2.52ZM-29.625-8.4a1.515,1.515,0,0,0-1.12.428,1.574,1.574,0,0,0-.428,1.165,1.566,1.566,0,0,0,.422,1.139,1.5,1.5,0,0,0,1.127.435A1.5,1.5,0,0,0-28.5-5.672a1.566,1.566,0,0,0,.422-1.139,1.567,1.567,0,0,0-.438-1.149A1.494,1.494,0,0,0-29.625-8.4ZM-21.347,0h-1.181V-7.827l-2.368.87V-8.023l3.364-1.263h.184Zm7.941-4.062a2.873,2.873,0,0,1-.879.7,2.385,2.385,0,0,1-1.12.267A2.463,2.463,0,0,1-16.8-3.485a2.558,2.558,0,0,1-.917-1.108A3.776,3.776,0,0,1-18.04-6.17a3.847,3.847,0,0,1,.352-1.669,2.588,2.588,0,0,1,1-1.136,2.851,2.851,0,0,1,1.511-.394,2.581,2.581,0,0,1,2.161,1.025,4.471,4.471,0,0,1,.79,2.8v.343a5.974,5.974,0,0,1-1.066,3.939A4.1,4.1,0,0,1-16.51.006h-.229v-1h.248a3.233,3.233,0,0,0,2.234-.757A3.248,3.248,0,0,0-13.406-4.062Zm-1.809,0a1.813,1.813,0,0,0,1.089-.362,2.133,2.133,0,0,0,.727-.9v-.47a3.232,3.232,0,0,0-.5-1.879,1.5,1.5,0,0,0-1.27-.724,1.508,1.508,0,0,0-1.244.594,2.448,2.448,0,0,0-.47,1.565,2.548,2.548,0,0,0,.454,1.558A1.437,1.437,0,0,0-15.215-4.062ZM-4.551,0h-6.056V-.844l3.2-3.555A7.6,7.6,0,0,0-6.427-5.71a2.188,2.188,0,0,0,.27-1.044A1.658,1.658,0,0,0-6.6-7.941,1.531,1.531,0,0,0-7.763-8.4a1.814,1.814,0,0,0-1.362.5A1.9,1.9,0,0,0-9.61-6.519h-1.174a2.726,2.726,0,0,1,.822-2.063,3.047,3.047,0,0,1,2.2-.787,2.928,2.928,0,0,1,2.038.676,2.306,2.306,0,0,1,.749,1.8,5.287,5.287,0,0,1-1.739,3.25L-9.191-.958h4.64ZM.013-5.7,2.228-9.242H3.663L.743-4.659,3.732,0H2.285L.013-3.605-2.272,0H-3.713l3-4.659L-3.644-9.242h1.428ZM9.8-3.1h1.282v.958H9.8V0H8.62V-2.146H4.412v-.692l4.139-6.4H9.8Zm-4.056,0H8.62V-7.636l-.14.254Zm8.106-2.088h.882a1.939,1.939,0,0,0,1.308-.438,1.463,1.463,0,0,0,.476-1.149A1.434,1.434,0,0,0,14.9-8.4a1.684,1.684,0,0,0-1.216.435,1.522,1.522,0,0,0-.454,1.152H12.054a2.358,2.358,0,0,1,.8-1.825A2.925,2.925,0,0,1,14.9-9.369a2.891,2.891,0,0,1,2.05.692,2.5,2.5,0,0,1,.743,1.923,2.029,2.029,0,0,1-.39,1.168,2.357,2.357,0,0,1-1.063.844,2.271,2.271,0,0,1,1.177.8,2.221,2.221,0,0,1,.416,1.365A2.521,2.521,0,0,1,17.018-.6,3.043,3.043,0,0,1,14.9.127a3.123,3.123,0,0,1-2.117-.7,2.337,2.337,0,0,1-.816-1.86h1.181a1.511,1.511,0,0,0,.476,1.168A1.811,1.811,0,0,0,14.9-.832a1.777,1.777,0,0,0,1.3-.444,1.712,1.712,0,0,0,.451-1.276,1.554,1.554,0,0,0-.5-1.238,2.157,2.157,0,0,0-1.428-.444h-.882ZM25.5,0H19.443V-.844l3.2-3.555a7.6,7.6,0,0,0,.981-1.311,2.188,2.188,0,0,0,.27-1.044,1.658,1.658,0,0,0-.438-1.187A1.531,1.531,0,0,0,22.287-8.4a1.814,1.814,0,0,0-1.362.5,1.9,1.9,0,0,0-.486,1.387H19.265a2.726,2.726,0,0,1,.822-2.063,3.047,3.047,0,0,1,2.2-.787,2.928,2.928,0,0,1,2.038.676,2.306,2.306,0,0,1,.749,1.8,5.287,5.287,0,0,1-1.739,3.25L20.858-.958H25.5Zm7.04-3.942a5.371,5.371,0,0,1-.7,3.066,2.506,2.506,0,0,1-2.2,1,2.524,2.524,0,0,1-2.19-.981A5.1,5.1,0,0,1,26.7-3.783V-5.351a5.251,5.251,0,0,1,.7-3.028,2.525,2.525,0,0,1,2.209-.99,2.548,2.548,0,0,1,2.2.955,5.068,5.068,0,0,1,.724,2.948ZM31.364-5.548a4.3,4.3,0,0,0-.419-2.174A1.442,1.442,0,0,0,29.618-8.4a1.423,1.423,0,0,0-1.314.679,4.2,4.2,0,0,0-.425,2.088v1.879a4.372,4.372,0,0,0,.435,2.212,1.439,1.439,0,0,0,1.317.714A1.42,1.42,0,0,0,30.923-1.5a4.214,4.214,0,0,0,.441-2.12Z" transform="translate(-6429 3583.5)" fill="#12263f"/>
      <path id="Trazado_139071" data-name="Trazado 139071" d="M-26.54-8.582-30.367,0H-31.6l3.815-8.277h-5v-.965h6.246Zm5.941-.667v1h-.216A3.092,3.092,0,0,0-23-7.439a3.381,3.381,0,0,0-.939,2.215,2.507,2.507,0,0,1,1.993-.838,2.4,2.4,0,0,1,1.927.851,3.281,3.281,0,0,1,.72,2.2A3.27,3.27,0,0,1-20.074-.73,2.678,2.678,0,0,1-22.16.127,2.638,2.638,0,0,1-24.312-.892a4.038,4.038,0,0,1-.825-2.625v-.451a6.084,6.084,0,0,1,1.089-3.9,4,4,0,0,1,3.24-1.381Zm-1.542,4.164a1.874,1.874,0,0,0-1.111.362,1.885,1.885,0,0,0-.7.908v.432a3.032,3.032,0,0,0,.514,1.841,1.541,1.541,0,0,0,1.282.7,1.493,1.493,0,0,0,1.247-.584,2.423,2.423,0,0,0,.454-1.53,2.424,2.424,0,0,0-.46-1.539A1.475,1.475,0,0,0-22.141-5.084ZM-12.3-6.83A2.146,2.146,0,0,1-12.667-5.6a2.483,2.483,0,0,1-.987.844,2.649,2.649,0,0,1,1.146.908,2.284,2.284,0,0,1,.422,1.352A2.415,2.415,0,0,1-12.9-.584a3.109,3.109,0,0,1-2.13.711,3.1,3.1,0,0,1-2.136-.714,2.426,2.426,0,0,1-.8-1.907,2.352,2.352,0,0,1,.409-1.352,2.548,2.548,0,0,1,1.133-.914,2.422,2.422,0,0,1-.971-.844,2.177,2.177,0,0,1-.355-1.225A2.389,2.389,0,0,1-17-8.684a2.81,2.81,0,0,1,1.974-.686,2.812,2.812,0,0,1,1.971.686A2.384,2.384,0,0,1-12.3-6.83Zm-.958,4.31a1.7,1.7,0,0,0-.492-1.263,1.745,1.745,0,0,0-1.285-.489,1.714,1.714,0,0,0-1.273.482,1.723,1.723,0,0,0-.479,1.27,1.641,1.641,0,0,0,.467,1.238,1.791,1.791,0,0,0,1.3.451,1.786,1.786,0,0,0,1.295-.454A1.637,1.637,0,0,0-13.26-2.52ZM-15.025-8.4a1.515,1.515,0,0,0-1.12.428,1.574,1.574,0,0,0-.428,1.165,1.566,1.566,0,0,0,.422,1.139,1.5,1.5,0,0,0,1.127.435A1.5,1.5,0,0,0-13.9-5.672a1.566,1.566,0,0,0,.422-1.139,1.567,1.567,0,0,0-.438-1.149A1.494,1.494,0,0,0-15.025-8.4ZM-4.812-3.942a5.371,5.371,0,0,1-.7,3.066,2.506,2.506,0,0,1-2.2,1,2.524,2.524,0,0,1-2.19-.981,5.1,5.1,0,0,1-.736-2.929V-5.351a5.251,5.251,0,0,1,.7-3.028,2.525,2.525,0,0,1,2.209-.99,2.548,2.548,0,0,1,2.2.955,5.068,5.068,0,0,1,.724,2.948ZM-5.986-5.548A4.3,4.3,0,0,0-6.4-7.722,1.442,1.442,0,0,0-7.731-8.4a1.423,1.423,0,0,0-1.314.679,4.2,4.2,0,0,0-.425,2.088v1.879a4.372,4.372,0,0,0,.435,2.212,1.439,1.439,0,0,0,1.317.714A1.42,1.42,0,0,0-6.427-1.5a4.214,4.214,0,0,0,.441-2.12Zm6-.152L2.228-9.242H3.663L.743-4.659,3.732,0H2.285L.013-3.605-2.272,0H-3.713l3-4.659L-3.644-9.242h1.428ZM9.8-3.1h1.282v.958H9.8V0H8.62V-2.146H4.412v-.692l4.139-6.4H9.8Zm-4.056,0H8.62V-7.636l-.14.254Zm8.106-2.088h.882a1.939,1.939,0,0,0,1.308-.438,1.463,1.463,0,0,0,.476-1.149A1.434,1.434,0,0,0,14.9-8.4a1.684,1.684,0,0,0-1.216.435,1.522,1.522,0,0,0-.454,1.152H12.054a2.358,2.358,0,0,1,.8-1.825A2.925,2.925,0,0,1,14.9-9.369a2.891,2.891,0,0,1,2.05.692,2.5,2.5,0,0,1,.743,1.923,2.029,2.029,0,0,1-.39,1.168,2.357,2.357,0,0,1-1.063.844,2.271,2.271,0,0,1,1.177.8,2.221,2.221,0,0,1,.416,1.365A2.521,2.521,0,0,1,17.018-.6,3.043,3.043,0,0,1,14.9.127a3.123,3.123,0,0,1-2.117-.7,2.337,2.337,0,0,1-.816-1.86h1.181a1.511,1.511,0,0,0,.476,1.168A1.811,1.811,0,0,0,14.9-.832a1.777,1.777,0,0,0,1.3-.444,1.712,1.712,0,0,0,.451-1.276,1.554,1.554,0,0,0-.5-1.238,2.157,2.157,0,0,0-1.428-.444h-.882ZM25.5,0H19.443V-.844l3.2-3.555a7.6,7.6,0,0,0,.981-1.311,2.188,2.188,0,0,0,.27-1.044,1.658,1.658,0,0,0-.438-1.187A1.531,1.531,0,0,0,22.287-8.4a1.814,1.814,0,0,0-1.362.5,1.9,1.9,0,0,0-.486,1.387H19.265a2.726,2.726,0,0,1,.822-2.063,3.047,3.047,0,0,1,2.2-.787,2.928,2.928,0,0,1,2.038.676,2.306,2.306,0,0,1,.749,1.8,5.287,5.287,0,0,1-1.739,3.25L20.858-.958H25.5Zm7.04-3.942a5.371,5.371,0,0,1-.7,3.066,2.506,2.506,0,0,1-2.2,1,2.524,2.524,0,0,1-2.19-.981A5.1,5.1,0,0,1,26.7-3.783V-5.351a5.251,5.251,0,0,1,.7-3.028,2.525,2.525,0,0,1,2.209-.99,2.548,2.548,0,0,1,2.2.955,5.068,5.068,0,0,1,.724,2.948ZM31.364-5.548a4.3,4.3,0,0,0-.419-2.174A1.442,1.442,0,0,0,29.618-8.4a1.423,1.423,0,0,0-1.314.679,4.2,4.2,0,0,0-.425,2.088v1.879a4.372,4.372,0,0,0,.435,2.212,1.439,1.439,0,0,0,1.317.714A1.42,1.42,0,0,0,30.923-1.5a4.214,4.214,0,0,0,.441-2.12Z" transform="translate(-6357 3583.5)" fill="#12263f"/>
      <path id="Trazado_139050" data-name="Trazado 139050" d="M-3.148-3.1h1.282v.958H-3.148V0H-4.329V-2.146H-8.538v-.692l4.139-6.4h1.25ZM-7.2-3.1h2.875V-7.636l-.14.254ZM-.724-.616a.735.735,0,0,1,.181-.508A.689.689,0,0,1,0-1.327a.71.71,0,0,1,.549.2.721.721,0,0,1,.187.508.681.681,0,0,1-.187.489A.723.723,0,0,1,0,.07a.7.7,0,0,1-.543-.2A.7.7,0,0,1-.724-.616Zm.006-5.6a.735.735,0,0,1,.181-.508.689.689,0,0,1,.543-.2.71.71,0,0,1,.549.2.721.721,0,0,1,.187.508.681.681,0,0,1-.187.489.723.723,0,0,1-.549.2.7.7,0,0,1-.543-.2A.7.7,0,0,1-.717-6.221ZM4.05-5.192h.882A1.939,1.939,0,0,0,6.24-5.63a1.463,1.463,0,0,0,.476-1.149A1.434,1.434,0,0,0,5.1-8.4a1.684,1.684,0,0,0-1.216.435,1.522,1.522,0,0,0-.454,1.152H2.253a2.358,2.358,0,0,1,.8-1.825A2.925,2.925,0,0,1,5.1-9.369a2.891,2.891,0,0,1,2.05.692A2.5,2.5,0,0,1,7.89-6.754,2.029,2.029,0,0,1,7.5-5.586a2.357,2.357,0,0,1-1.063.844,2.271,2.271,0,0,1,1.177.8A2.221,2.221,0,0,1,8.03-2.577,2.521,2.521,0,0,1,7.217-.6,3.043,3.043,0,0,1,5.1.127a3.123,3.123,0,0,1-2.117-.7,2.337,2.337,0,0,1-.816-1.86H3.352A1.511,1.511,0,0,0,3.828-1.27,1.811,1.811,0,0,0,5.1-.832a1.777,1.777,0,0,0,1.3-.444,1.712,1.712,0,0,0,.451-1.276,1.554,1.554,0,0,0-.5-1.238,2.157,2.157,0,0,0-1.428-.444H4.05Z" transform="translate(-6861 3616.5)" fill="#12263f"/>
      <path id="Trazado_139056" data-name="Trazado 139056" d="M-7.9,0H-9.077V-7.827l-2.368.87V-8.023l3.364-1.263H-7.9ZM.152-9.249v1H-.063a3.092,3.092,0,0,0-2.184.813,3.381,3.381,0,0,0-.939,2.215,2.507,2.507,0,0,1,1.993-.838,2.4,2.4,0,0,1,1.927.851,3.281,3.281,0,0,1,.72,2.2A3.27,3.27,0,0,1,.676-.73,2.678,2.678,0,0,1-1.409.127,2.638,2.638,0,0,1-3.561-.892a4.038,4.038,0,0,1-.825-2.625v-.451A6.084,6.084,0,0,1-3.3-7.868,4,4,0,0,1-.057-9.249ZM-1.39-5.084A1.874,1.874,0,0,0-2.5-4.723a1.885,1.885,0,0,0-.7.908v.432a3.032,3.032,0,0,0,.514,1.841,1.541,1.541,0,0,0,1.282.7A1.493,1.493,0,0,0-.162-1.428a2.423,2.423,0,0,0,.454-1.53A2.424,2.424,0,0,0-.168-4.5,1.475,1.475,0,0,0-1.39-5.084ZM2.926-.616a.735.735,0,0,1,.181-.508.689.689,0,0,1,.543-.2.71.71,0,0,1,.549.2.721.721,0,0,1,.187.508A.681.681,0,0,1,4.2-.127a.723.723,0,0,1-.549.2.7.7,0,0,1-.543-.2A.7.7,0,0,1,2.926-.616Zm.006-5.6a.735.735,0,0,1,.181-.508.689.689,0,0,1,.543-.2.71.71,0,0,1,.549.2.721.721,0,0,1,.187.508.681.681,0,0,1-.187.489.723.723,0,0,1-.549.2.7.7,0,0,1-.543-.2A.7.7,0,0,1,2.933-6.221Zm7.56,2.158a2.873,2.873,0,0,1-.879.7,2.385,2.385,0,0,1-1.12.267A2.463,2.463,0,0,1,7.1-3.485a2.558,2.558,0,0,1-.917-1.108A3.776,3.776,0,0,1,5.859-6.17a3.847,3.847,0,0,1,.352-1.669,2.588,2.588,0,0,1,1-1.136,2.851,2.851,0,0,1,1.511-.394,2.581,2.581,0,0,1,2.161,1.025,4.471,4.471,0,0,1,.79,2.8v.343a5.974,5.974,0,0,1-1.066,3.939A4.1,4.1,0,0,1,7.389.006H7.16v-1h.248a3.233,3.233,0,0,0,2.234-.757A3.248,3.248,0,0,0,10.493-4.062Zm-1.809,0a1.813,1.813,0,0,0,1.089-.362,2.133,2.133,0,0,0,.727-.9v-.47A3.232,3.232,0,0,0,10-7.668a1.5,1.5,0,0,0-1.27-.724A1.508,1.508,0,0,0,7.484-7.8a2.448,2.448,0,0,0-.47,1.565,2.548,2.548,0,0,0,.454,1.558A1.437,1.437,0,0,0,8.684-4.062Z" transform="translate(-6789 3616.5)" fill="#12263f"/>
      <path id="Trazado_139057" data-name="Trazado 139057" d="M-7.9,0H-9.077V-7.827l-2.368.87V-8.023l3.364-1.263H-7.9ZM.152-9.249v1H-.063a3.092,3.092,0,0,0-2.184.813,3.381,3.381,0,0,0-.939,2.215,2.507,2.507,0,0,1,1.993-.838,2.4,2.4,0,0,1,1.927.851,3.281,3.281,0,0,1,.72,2.2A3.27,3.27,0,0,1,.676-.73,2.678,2.678,0,0,1-1.409.127,2.638,2.638,0,0,1-3.561-.892a4.038,4.038,0,0,1-.825-2.625v-.451A6.084,6.084,0,0,1-3.3-7.868,4,4,0,0,1-.057-9.249ZM-1.39-5.084A1.874,1.874,0,0,0-2.5-4.723a1.885,1.885,0,0,0-.7.908v.432a3.032,3.032,0,0,0,.514,1.841,1.541,1.541,0,0,0,1.282.7A1.493,1.493,0,0,0-.162-1.428a2.423,2.423,0,0,0,.454-1.53A2.424,2.424,0,0,0-.168-4.5,1.475,1.475,0,0,0-1.39-5.084ZM2.926-.616a.735.735,0,0,1,.181-.508.689.689,0,0,1,.543-.2.71.71,0,0,1,.549.2.721.721,0,0,1,.187.508A.681.681,0,0,1,4.2-.127a.723.723,0,0,1-.549.2.7.7,0,0,1-.543-.2A.7.7,0,0,1,2.926-.616Zm.006-5.6a.735.735,0,0,1,.181-.508.689.689,0,0,1,.543-.2.71.71,0,0,1,.549.2.721.721,0,0,1,.187.508.681.681,0,0,1-.187.489.723.723,0,0,1-.549.2.7.7,0,0,1-.543-.2A.7.7,0,0,1,2.933-6.221Zm7.56,2.158a2.873,2.873,0,0,1-.879.7,2.385,2.385,0,0,1-1.12.267A2.463,2.463,0,0,1,7.1-3.485a2.558,2.558,0,0,1-.917-1.108A3.776,3.776,0,0,1,5.859-6.17a3.847,3.847,0,0,1,.352-1.669,2.588,2.588,0,0,1,1-1.136,2.851,2.851,0,0,1,1.511-.394,2.581,2.581,0,0,1,2.161,1.025,4.471,4.471,0,0,1,.79,2.8v.343a5.974,5.974,0,0,1-1.066,3.939A4.1,4.1,0,0,1,7.389.006H7.16v-1h.248a3.233,3.233,0,0,0,2.234-.757A3.248,3.248,0,0,0,10.493-4.062Zm-1.809,0a1.813,1.813,0,0,0,1.089-.362,2.133,2.133,0,0,0,.727-.9v-.47A3.232,3.232,0,0,0,10-7.668a1.5,1.5,0,0,0-1.27-.724A1.508,1.508,0,0,0,7.484-7.8a2.448,2.448,0,0,0-.47,1.565,2.548,2.548,0,0,0,.454,1.558A1.437,1.437,0,0,0,8.684-4.062Z" transform="translate(-6718 3616.5)" fill="#12263f"/>
      <path id="Trazado_139060" data-name="Trazado 139060" d="M-7.9,0H-9.077V-7.827l-2.368.87V-8.023l3.364-1.263H-7.9ZM.152-9.249v1H-.063a3.092,3.092,0,0,0-2.184.813,3.381,3.381,0,0,0-.939,2.215,2.507,2.507,0,0,1,1.993-.838,2.4,2.4,0,0,1,1.927.851,3.281,3.281,0,0,1,.72,2.2A3.27,3.27,0,0,1,.676-.73,2.678,2.678,0,0,1-1.409.127,2.638,2.638,0,0,1-3.561-.892a4.038,4.038,0,0,1-.825-2.625v-.451A6.084,6.084,0,0,1-3.3-7.868,4,4,0,0,1-.057-9.249ZM-1.39-5.084A1.874,1.874,0,0,0-2.5-4.723a1.885,1.885,0,0,0-.7.908v.432a3.032,3.032,0,0,0,.514,1.841,1.541,1.541,0,0,0,1.282.7A1.493,1.493,0,0,0-.162-1.428a2.423,2.423,0,0,0,.454-1.53A2.424,2.424,0,0,0-.168-4.5,1.475,1.475,0,0,0-1.39-5.084ZM2.926-.616a.735.735,0,0,1,.181-.508.689.689,0,0,1,.543-.2.71.71,0,0,1,.549.2.721.721,0,0,1,.187.508A.681.681,0,0,1,4.2-.127a.723.723,0,0,1-.549.2.7.7,0,0,1-.543-.2A.7.7,0,0,1,2.926-.616Zm.006-5.6a.735.735,0,0,1,.181-.508.689.689,0,0,1,.543-.2.71.71,0,0,1,.549.2.721.721,0,0,1,.187.508.681.681,0,0,1-.187.489.723.723,0,0,1-.549.2.7.7,0,0,1-.543-.2A.7.7,0,0,1,2.933-6.221Zm7.56,2.158a2.873,2.873,0,0,1-.879.7,2.385,2.385,0,0,1-1.12.267A2.463,2.463,0,0,1,7.1-3.485a2.558,2.558,0,0,1-.917-1.108A3.776,3.776,0,0,1,5.859-6.17a3.847,3.847,0,0,1,.352-1.669,2.588,2.588,0,0,1,1-1.136,2.851,2.851,0,0,1,1.511-.394,2.581,2.581,0,0,1,2.161,1.025,4.471,4.471,0,0,1,.79,2.8v.343a5.974,5.974,0,0,1-1.066,3.939A4.1,4.1,0,0,1,7.389.006H7.16v-1h.248a3.233,3.233,0,0,0,2.234-.757A3.248,3.248,0,0,0,10.493-4.062Zm-1.809,0a1.813,1.813,0,0,0,1.089-.362,2.133,2.133,0,0,0,.727-.9v-.47A3.232,3.232,0,0,0,10-7.668a1.5,1.5,0,0,0-1.27-.724A1.508,1.508,0,0,0,7.484-7.8a2.448,2.448,0,0,0-.47,1.565,2.548,2.548,0,0,0,.454,1.558A1.437,1.437,0,0,0,8.684-4.062Z" transform="translate(-6645 3616.5)" fill="#12263f"/>
      <path id="Trazado_139061" data-name="Trazado 139061" d="M-7.9,0H-9.077V-7.827l-2.368.87V-8.023l3.364-1.263H-7.9ZM.152-9.249v1H-.063a3.092,3.092,0,0,0-2.184.813,3.381,3.381,0,0,0-.939,2.215,2.507,2.507,0,0,1,1.993-.838,2.4,2.4,0,0,1,1.927.851,3.281,3.281,0,0,1,.72,2.2A3.27,3.27,0,0,1,.676-.73,2.678,2.678,0,0,1-1.409.127,2.638,2.638,0,0,1-3.561-.892a4.038,4.038,0,0,1-.825-2.625v-.451A6.084,6.084,0,0,1-3.3-7.868,4,4,0,0,1-.057-9.249ZM-1.39-5.084A1.874,1.874,0,0,0-2.5-4.723a1.885,1.885,0,0,0-.7.908v.432a3.032,3.032,0,0,0,.514,1.841,1.541,1.541,0,0,0,1.282.7A1.493,1.493,0,0,0-.162-1.428a2.423,2.423,0,0,0,.454-1.53A2.424,2.424,0,0,0-.168-4.5,1.475,1.475,0,0,0-1.39-5.084ZM2.926-.616a.735.735,0,0,1,.181-.508.689.689,0,0,1,.543-.2.71.71,0,0,1,.549.2.721.721,0,0,1,.187.508A.681.681,0,0,1,4.2-.127a.723.723,0,0,1-.549.2.7.7,0,0,1-.543-.2A.7.7,0,0,1,2.926-.616Zm.006-5.6a.735.735,0,0,1,.181-.508.689.689,0,0,1,.543-.2.71.71,0,0,1,.549.2.721.721,0,0,1,.187.508.681.681,0,0,1-.187.489.723.723,0,0,1-.549.2.7.7,0,0,1-.543-.2A.7.7,0,0,1,2.933-6.221Zm7.56,2.158a2.873,2.873,0,0,1-.879.7,2.385,2.385,0,0,1-1.12.267A2.463,2.463,0,0,1,7.1-3.485a2.558,2.558,0,0,1-.917-1.108A3.776,3.776,0,0,1,5.859-6.17a3.847,3.847,0,0,1,.352-1.669,2.588,2.588,0,0,1,1-1.136,2.851,2.851,0,0,1,1.511-.394,2.581,2.581,0,0,1,2.161,1.025,4.471,4.471,0,0,1,.79,2.8v.343a5.974,5.974,0,0,1-1.066,3.939A4.1,4.1,0,0,1,7.389.006H7.16v-1h.248a3.233,3.233,0,0,0,2.234-.757A3.248,3.248,0,0,0,10.493-4.062Zm-1.809,0a1.813,1.813,0,0,0,1.089-.362,2.133,2.133,0,0,0,.727-.9v-.47A3.232,3.232,0,0,0,10-7.668a1.5,1.5,0,0,0-1.27-.724A1.508,1.508,0,0,0,7.484-7.8a2.448,2.448,0,0,0-.47,1.565,2.548,2.548,0,0,0,.454,1.558A1.437,1.437,0,0,0,8.684-4.062Z" transform="translate(-6573 3616.5)" fill="#12263f"/>
      <path id="Trazado_139066" data-name="Trazado 139066" d="M-7.9,0H-9.077V-7.827l-2.368.87V-8.023l3.364-1.263H-7.9ZM.152-9.249v1H-.063a3.092,3.092,0,0,0-2.184.813,3.381,3.381,0,0,0-.939,2.215,2.507,2.507,0,0,1,1.993-.838,2.4,2.4,0,0,1,1.927.851,3.281,3.281,0,0,1,.72,2.2A3.27,3.27,0,0,1,.676-.73,2.678,2.678,0,0,1-1.409.127,2.638,2.638,0,0,1-3.561-.892a4.038,4.038,0,0,1-.825-2.625v-.451A6.084,6.084,0,0,1-3.3-7.868,4,4,0,0,1-.057-9.249ZM-1.39-5.084A1.874,1.874,0,0,0-2.5-4.723a1.885,1.885,0,0,0-.7.908v.432a3.032,3.032,0,0,0,.514,1.841,1.541,1.541,0,0,0,1.282.7A1.493,1.493,0,0,0-.162-1.428a2.423,2.423,0,0,0,.454-1.53A2.424,2.424,0,0,0-.168-4.5,1.475,1.475,0,0,0-1.39-5.084ZM2.926-.616a.735.735,0,0,1,.181-.508.689.689,0,0,1,.543-.2.71.71,0,0,1,.549.2.721.721,0,0,1,.187.508A.681.681,0,0,1,4.2-.127a.723.723,0,0,1-.549.2.7.7,0,0,1-.543-.2A.7.7,0,0,1,2.926-.616Zm.006-5.6a.735.735,0,0,1,.181-.508.689.689,0,0,1,.543-.2.71.71,0,0,1,.549.2.721.721,0,0,1,.187.508.681.681,0,0,1-.187.489.723.723,0,0,1-.549.2.7.7,0,0,1-.543-.2A.7.7,0,0,1,2.933-6.221Zm7.56,2.158a2.873,2.873,0,0,1-.879.7,2.385,2.385,0,0,1-1.12.267A2.463,2.463,0,0,1,7.1-3.485a2.558,2.558,0,0,1-.917-1.108A3.776,3.776,0,0,1,5.859-6.17a3.847,3.847,0,0,1,.352-1.669,2.588,2.588,0,0,1,1-1.136,2.851,2.851,0,0,1,1.511-.394,2.581,2.581,0,0,1,2.161,1.025,4.471,4.471,0,0,1,.79,2.8v.343a5.974,5.974,0,0,1-1.066,3.939A4.1,4.1,0,0,1,7.389.006H7.16v-1h.248a3.233,3.233,0,0,0,2.234-.757A3.248,3.248,0,0,0,10.493-4.062Zm-1.809,0a1.813,1.813,0,0,0,1.089-.362,2.133,2.133,0,0,0,.727-.9v-.47A3.232,3.232,0,0,0,10-7.668a1.5,1.5,0,0,0-1.27-.724A1.508,1.508,0,0,0,7.484-7.8a2.448,2.448,0,0,0-.47,1.565,2.548,2.548,0,0,0,.454,1.558A1.437,1.437,0,0,0,8.684-4.062Z" transform="translate(-6501 3616.5)" fill="#12263f"/>
      <path id="Trazado_139067" data-name="Trazado 139067" d="M-7.9,0H-9.077V-7.827l-2.368.87V-8.023l3.364-1.263H-7.9ZM1.511-8.582-2.317,0H-3.548L.267-8.277h-5v-.965H1.511ZM2.926-.616a.735.735,0,0,1,.181-.508.689.689,0,0,1,.543-.2.71.71,0,0,1,.549.2.721.721,0,0,1,.187.508A.681.681,0,0,1,4.2-.127a.723.723,0,0,1-.549.2.7.7,0,0,1-.543-.2A.7.7,0,0,1,2.926-.616Zm.006-5.6a.735.735,0,0,1,.181-.508.689.689,0,0,1,.543-.2.71.71,0,0,1,.549.2.721.721,0,0,1,.187.508.681.681,0,0,1-.187.489.723.723,0,0,1-.549.2.7.7,0,0,1-.543-.2A.7.7,0,0,1,2.933-6.221Zm7.56,2.158a2.873,2.873,0,0,1-.879.7,2.385,2.385,0,0,1-1.12.267A2.463,2.463,0,0,1,7.1-3.485a2.558,2.558,0,0,1-.917-1.108A3.776,3.776,0,0,1,5.859-6.17a3.847,3.847,0,0,1,.352-1.669,2.588,2.588,0,0,1,1-1.136,2.851,2.851,0,0,1,1.511-.394,2.581,2.581,0,0,1,2.161,1.025,4.471,4.471,0,0,1,.79,2.8v.343a5.974,5.974,0,0,1-1.066,3.939A4.1,4.1,0,0,1,7.389.006H7.16v-1h.248a3.233,3.233,0,0,0,2.234-.757A3.248,3.248,0,0,0,10.493-4.062Zm-1.809,0a1.813,1.813,0,0,0,1.089-.362,2.133,2.133,0,0,0,.727-.9v-.47A3.232,3.232,0,0,0,10-7.668a1.5,1.5,0,0,0-1.27-.724A1.508,1.508,0,0,0,7.484-7.8a2.448,2.448,0,0,0-.47,1.565,2.548,2.548,0,0,0,.454,1.558A1.437,1.437,0,0,0,8.684-4.062Z" transform="translate(-6429 3616.5)" fill="#12263f"/>
      <path id="Trazado_139072" data-name="Trazado 139072" d="M-7.9,0H-9.077V-7.827l-2.368.87V-8.023l3.364-1.263H-7.9ZM.152-9.249v1H-.063a3.092,3.092,0,0,0-2.184.813,3.381,3.381,0,0,0-.939,2.215,2.507,2.507,0,0,1,1.993-.838,2.4,2.4,0,0,1,1.927.851,3.281,3.281,0,0,1,.72,2.2A3.27,3.27,0,0,1,.676-.73,2.678,2.678,0,0,1-1.409.127,2.638,2.638,0,0,1-3.561-.892a4.038,4.038,0,0,1-.825-2.625v-.451A6.084,6.084,0,0,1-3.3-7.868,4,4,0,0,1-.057-9.249ZM-1.39-5.084A1.874,1.874,0,0,0-2.5-4.723a1.885,1.885,0,0,0-.7.908v.432a3.032,3.032,0,0,0,.514,1.841,1.541,1.541,0,0,0,1.282.7A1.493,1.493,0,0,0-.162-1.428a2.423,2.423,0,0,0,.454-1.53A2.424,2.424,0,0,0-.168-4.5,1.475,1.475,0,0,0-1.39-5.084ZM2.926-.616a.735.735,0,0,1,.181-.508.689.689,0,0,1,.543-.2.71.71,0,0,1,.549.2.721.721,0,0,1,.187.508A.681.681,0,0,1,4.2-.127a.723.723,0,0,1-.549.2.7.7,0,0,1-.543-.2A.7.7,0,0,1,2.926-.616Zm.006-5.6a.735.735,0,0,1,.181-.508.689.689,0,0,1,.543-.2.71.71,0,0,1,.549.2.721.721,0,0,1,.187.508.681.681,0,0,1-.187.489.723.723,0,0,1-.549.2.7.7,0,0,1-.543-.2A.7.7,0,0,1,2.933-6.221Zm7.56,2.158a2.873,2.873,0,0,1-.879.7,2.385,2.385,0,0,1-1.12.267A2.463,2.463,0,0,1,7.1-3.485a2.558,2.558,0,0,1-.917-1.108A3.776,3.776,0,0,1,5.859-6.17a3.847,3.847,0,0,1,.352-1.669,2.588,2.588,0,0,1,1-1.136,2.851,2.851,0,0,1,1.511-.394,2.581,2.581,0,0,1,2.161,1.025,4.471,4.471,0,0,1,.79,2.8v.343a5.974,5.974,0,0,1-1.066,3.939A4.1,4.1,0,0,1,7.389.006H7.16v-1h.248a3.233,3.233,0,0,0,2.234-.757A3.248,3.248,0,0,0,10.493-4.062Zm-1.809,0a1.813,1.813,0,0,0,1.089-.362,2.133,2.133,0,0,0,.727-.9v-.47A3.232,3.232,0,0,0,10-7.668a1.5,1.5,0,0,0-1.27-.724A1.508,1.508,0,0,0,7.484-7.8a2.448,2.448,0,0,0-.47,1.565,2.548,2.548,0,0,0,.454,1.558A1.437,1.437,0,0,0,8.684-4.062Z" transform="translate(-6357 3616.5)" fill="#12263f"/>
      <path id="Trazado_139048" data-name="Trazado 139048" d="M6.043-1.9H2.7L2.069,0H.044l3.44-9.242H5.25L8.709,0H6.684ZM3.218-3.447H5.529L4.367-6.906ZM13.171-1.9a.591.591,0,0,0-.333-.53,3.785,3.785,0,0,0-1.07-.346q-2.45-.514-2.45-2.082a1.887,1.887,0,0,1,.759-1.527A3.06,3.06,0,0,1,12.061-7a3.293,3.293,0,0,1,2.092.616,1.94,1.94,0,0,1,.784,1.6H13.1a.888.888,0,0,0-.254-.651,1.075,1.075,0,0,0-.793-.257,1.1,1.1,0,0,0-.717.209.661.661,0,0,0-.254.533.565.565,0,0,0,.289.492,2.971,2.971,0,0,0,.974.324,7.959,7.959,0,0,1,1.155.308,1.9,1.9,0,0,1,1.454,1.847,1.792,1.792,0,0,1-.806,1.52,3.478,3.478,0,0,1-2.082.581,3.632,3.632,0,0,1-1.533-.308,2.572,2.572,0,0,1-1.051-.844A1.962,1.962,0,0,1,9.1-2.184h1.739a.958.958,0,0,0,.362.749,1.435,1.435,0,0,0,.9.26,1.328,1.328,0,0,0,.8-.2A.622.622,0,0,0,13.171-1.9Zm9.147-1.473A4.119,4.119,0,0,1,21.6-.828a2.31,2.31,0,0,1-1.946.955A2.14,2.14,0,0,1,17.97-.6V2.641H16.136V-6.868h1.7L17.9-6.2A2.156,2.156,0,0,1,19.64-7a2.326,2.326,0,0,1,1.974.939,4.231,4.231,0,0,1,.7,2.59Zm-1.834-.14a2.718,2.718,0,0,0-.34-1.484,1.105,1.105,0,0,0-.987-.522,1.2,1.2,0,0,0-1.187.662v2.821a1.221,1.221,0,0,0,1.2.681Q20.484-1.352,20.484-3.51ZM26.616.127A3.372,3.372,0,0,1,24.156-.8a3.294,3.294,0,0,1-.949-2.469v-.178a4.149,4.149,0,0,1,.4-1.85A2.935,2.935,0,0,1,24.74-6.554,3.18,3.18,0,0,1,26.413-7a2.85,2.85,0,0,1,2.219.889,3.611,3.611,0,0,1,.809,2.52v.749H25.067A1.7,1.7,0,0,0,25.6-1.758a1.621,1.621,0,0,0,1.133.406,1.98,1.98,0,0,0,1.657-.768l.9,1.009A2.754,2.754,0,0,1,28.177-.2,3.665,3.665,0,0,1,26.616.127Zm-.209-5.643a1.146,1.146,0,0,0-.885.37,1.915,1.915,0,0,0-.435,1.058h2.552v-.147a1.366,1.366,0,0,0-.33-.947A1.183,1.183,0,0,0,26.406-5.516Zm6.932,4.164a1.2,1.2,0,0,0,.825-.279.979.979,0,0,0,.33-.743h1.72a2.353,2.353,0,0,1-.381,1.279,2.513,2.513,0,0,1-1.025.9A3.208,3.208,0,0,1,33.37.127a2.982,2.982,0,0,1-2.323-.936A3.705,3.705,0,0,1,30.2-3.4v-.121a3.663,3.663,0,0,1,.844-2.533A2.947,2.947,0,0,1,33.357-7a2.889,2.889,0,0,1,2.066.733,2.6,2.6,0,0,1,.79,1.952h-1.72a1.261,1.261,0,0,0-.33-.871,1.1,1.1,0,0,0-.838-.335,1.1,1.1,0,0,0-.968.467,2.708,2.708,0,0,0-.327,1.516v.191a2.742,2.742,0,0,0,.324,1.526A1.119,1.119,0,0,0,33.338-1.352Zm6.119-7.2v1.688h1.174v1.346H39.457v3.428a.818.818,0,0,0,.146.546.733.733,0,0,0,.559.165,2.925,2.925,0,0,0,.54-.044v1.39A3.777,3.777,0,0,1,39.59.127a1.752,1.752,0,0,1-1.968-1.949v-3.7h-1V-6.868h1V-8.557ZM41.177-3.5a4.073,4.073,0,0,1,.394-1.822A2.881,2.881,0,0,1,42.7-6.557,3.306,3.306,0,0,1,44.421-7a3.128,3.128,0,0,1,2.269.851,3.414,3.414,0,0,1,.981,2.311l.013.47A3.59,3.59,0,0,1,46.8-.828a3.067,3.067,0,0,1-2.368.955,3.082,3.082,0,0,1-2.371-.952,3.653,3.653,0,0,1-.885-2.59Zm1.834.13a2.567,2.567,0,0,0,.368,1.5,1.215,1.215,0,0,0,1.054.518,1.217,1.217,0,0,0,1.041-.512A2.809,2.809,0,0,0,45.849-3.5a2.542,2.542,0,0,0-.375-1.488,1.217,1.217,0,0,0-1.054-.528,1.2,1.2,0,0,0-1.041.524A2.857,2.857,0,0,0,43.012-3.367Zm12.581-.016H54.076V0h-1.9V-9.242h3.434a3.882,3.882,0,0,1,2.526.73,2.519,2.519,0,0,1,.889,2.063,2.843,2.843,0,0,1-.409,1.577A2.792,2.792,0,0,1,57.37-3.866l2,3.777V0H57.326ZM54.076-4.926h1.536a1.573,1.573,0,0,0,1.111-.365A1.3,1.3,0,0,0,57.116-6.3a1.4,1.4,0,0,0-.371-1.028A1.543,1.543,0,0,0,55.605-7.7h-1.53ZM64.327,0a2.037,2.037,0,0,1-.184-.616A2.22,2.22,0,0,1,62.41.127a2.439,2.439,0,0,1-1.673-.584,1.878,1.878,0,0,1-.663-1.473,1.941,1.941,0,0,1,.809-1.676,3.994,3.994,0,0,1,2.339-.59h.844v-.394a1.132,1.132,0,0,0-.244-.762.961.961,0,0,0-.771-.286,1.093,1.093,0,0,0-.727.222.755.755,0,0,0-.263.609H60.227a1.843,1.843,0,0,1,.368-1.1,2.434,2.434,0,0,1,1.041-.8A3.794,3.794,0,0,1,63.146-7a3,3,0,0,1,2.015.638,2.232,2.232,0,0,1,.746,1.793v2.977a3.284,3.284,0,0,0,.273,1.479V0ZM62.81-1.276a1.58,1.58,0,0,0,.749-.181,1.188,1.188,0,0,0,.508-.486V-3.123h-.686q-1.377,0-1.466.952l-.006.108a.734.734,0,0,0,.241.565A.937.937,0,0,0,62.81-1.276Zm6.7-7.281v1.688h1.174v1.346H69.513v3.428a.818.818,0,0,0,.146.546.733.733,0,0,0,.559.165,2.925,2.925,0,0,0,.54-.044v1.39a3.777,3.777,0,0,1-1.111.165,1.752,1.752,0,0,1-1.968-1.949v-3.7h-1V-6.868h1V-8.557ZM73.646,0H71.8V-6.868h1.841ZM71.7-8.646a.9.9,0,0,1,.276-.679,1.037,1.037,0,0,1,.752-.267,1.04,1.04,0,0,1,.749.267.9.9,0,0,1,.279.679.9.9,0,0,1-.282.686,1.042,1.042,0,0,1-.746.267,1.042,1.042,0,0,1-.746-.267A.9.9,0,0,1,71.7-8.646ZM74.871-3.5a4.073,4.073,0,0,1,.394-1.822A2.881,2.881,0,0,1,76.4-6.557,3.306,3.306,0,0,1,78.114-7a3.127,3.127,0,0,1,2.269.851,3.414,3.414,0,0,1,.981,2.311l.013.47a3.59,3.59,0,0,1-.882,2.536,3.067,3.067,0,0,1-2.368.955,3.082,3.082,0,0,1-2.371-.952,3.653,3.653,0,0,1-.885-2.59Zm1.834.13a2.567,2.567,0,0,0,.368,1.5,1.215,1.215,0,0,0,1.054.518,1.217,1.217,0,0,0,1.041-.512A2.809,2.809,0,0,0,79.542-3.5a2.542,2.542,0,0,0-.375-1.488,1.217,1.217,0,0,0-1.054-.528,1.2,1.2,0,0,0-1.041.524A2.857,2.857,0,0,0,76.705-3.367Z" transform="translate(-6985 3616.5)" fill="#12263f"/>
    </g>
  </g>
</svg>
