<svg xmlns="http://www.w3.org/2000/svg" xmlns:xlink="http://www.w3.org/1999/xlink" width="1240" height="593" viewBox="0 0 1240 593">
  <defs>
    <clipPath id="clip-path">
      <rect id="Rectángulo_35159" data-name="Rectángulo 35159" width="1240" height="593" rx="20" transform="translate(180 475)" fill="#f8e8d5"/>
    </clipPath>
    <clipPath id="clip-path-2">
      <rect id="Rectángulo_8877" data-name="Rectángulo 8877" width="831.992" height="669.647" fill="none"/>
    </clipPath>
    <clipPath id="clip-path-3">
      <rect id="Rectángulo_8877-2" data-name="Rectángulo 8877" width="637.637" height="513.216" fill="none"/>
    </clipPath>
  </defs>
  <g id="Grupo_91089" data-name="Grupo 91089" transform="translate(-180 -475)">
    <rect id="Rectángulo_34834" data-name="Rectángulo 34834" width="1240" height="593" rx="20" transform="translate(180 475)" fill="#f8e8d5"/>
    <g id="Enmascarar_grupo_142" data-name="Enmascarar grupo 142" clip-path="url(#clip-path)">
      <g id="Grupo_91075" data-name="Grupo 91075">
        <g id="Grupo_66593" data-name="Grupo 66593" transform="translate(-572.817 329.018)" style="mix-blend-mode: overlay;isolation: isolate">
          <g id="Grupo_66592" data-name="Grupo 66592" transform="translate(777.825 84.315)">
            <g id="Grupo_66591" data-name="Grupo 66591" clip-path="url(#clip-path-2)">
              <path id="Trazado_138022" data-name="Trazado 138022" d="M1609.539,189.1c-1.671-31.674-13.363-56.739-34.755-74.5-28.953-24.04-69.755-30.281-104.3-30.281a324.4,324.4,0,0,0-41.868,2.826c-57.684,7.6-109.625,31.5-159.854,54.611-24.216,11.143-49.254,22.665-74.922,32.409-57.677,21.892-120.348,36.362-186.271,43-7.844.789-16.372,1.509-25.371,2.269-64.641,5.459-153.169,12.932-188.775,62.787-16.126,22.578-19.769,51.973-10.831,87.357,15.983,63.285,62.527,123.916,104.9,175.773,47.781,58.486,101.97,106.463,161.058,142.607,58.462,35.758,118.747,57.073,179.18,63.347,77.779,8.085,180.023,1.636,225.337-74.967,18.762-31.717,26.753-67.672,34.483-102.447l.151-.68-3.944-.876,3.944.873c12.338-55.514,33.768-108.837,51.06-149.091,4.583-10.676,9.447-21.576,14.392-32.66,28.109-63.027,59.971-134.465,56.391-202.353M1546.1,388.314c-4.961,11.118-9.837,22.051-14.436,32.758-17.421,40.563-39.021,94.321-51.5,150.461h0l-.153.685c-7.6,34.184-15.456,69.533-33.593,100.195-43.233,73.089-142.364,79.073-217.9,71.226-59.281-6.157-118.478-27.1-175.951-62.257-58.348-35.688-111.882-83.094-159.11-140.906-41.847-51.219-87.8-111.036-103.4-172.784-8.357-33.1-5.117-60.35,9.633-81,33.533-46.953,120.006-54.255,183.148-59.585,9.042-.764,17.611-1.487,25.493-2.281,66.6-6.709,129.928-21.333,188.238-43.469,25.913-9.834,51.075-21.412,75.407-32.608,52-23.924,101.109-46.524,157.637-53.966,35.21-4.64,100.245-7.461,140.231,25.741,19.672,16.334,30.43,39.539,31.983,68.976,3.484,66.046-27.977,136.581-55.734,198.816" transform="translate(-777.825 -84.316)" fill="#fff"/>
            </g>
          </g>
        </g>
        <g id="Grupo_91074" data-name="Grupo 91074" transform="matrix(0.809, 0.588, -0.588, 0.809, 301.946, -44.247)" style="mix-blend-mode: overlay;isolation: isolate">
          <g id="Grupo_66592-2" data-name="Grupo 66592" transform="translate(777.825 84.315)">
            <g id="Grupo_66591-2" data-name="Grupo 66591" clip-path="url(#clip-path-3)">
              <path id="Trazado_138022-2" data-name="Trazado 138022" d="M1415.248,164.619c-1.281-24.275-10.242-43.484-26.636-57.1-22.19-18.424-53.46-23.207-79.936-23.207a248.616,248.616,0,0,0-32.088,2.166c-44.209,5.824-84.016,24.14-122.511,41.854-18.559,8.54-37.748,17.371-57.42,24.838-44.2,16.778-92.234,27.868-142.758,32.955-6.012.6-12.548,1.156-19.444,1.739-49.541,4.184-117.389,9.911-144.677,48.12-12.359,17.3-15.151,39.832-8.3,66.95,12.249,48.5,47.92,94.969,80.392,134.712,36.619,44.823,78.15,81.593,123.435,109.294,44.805,27.405,91.007,43.74,137.323,48.549,59.61,6.2,137.969,1.254,172.7-57.454,14.379-24.308,20.5-51.864,26.428-78.515l.116-.521-3.022-.671,3.022.669c9.456-42.545,25.88-83.413,39.132-114.263,3.512-8.182,7.24-16.536,11.03-25.031,21.543-48.3,45.961-103.053,43.218-155.083M1366.631,317.3c-3.8,8.521-7.539,16.9-11.063,25.105-13.351,31.087-29.905,72.288-39.468,115.313h0l-.117.525c-5.822,26.2-11.845,53.29-25.746,76.789-33.133,56.015-109.107,60.6-167,54.588-45.433-4.719-90.8-20.771-134.848-47.713-44.718-27.351-85.746-63.683-121.942-107.99-32.071-39.254-67.288-85.1-79.242-132.421-6.4-25.367-3.921-46.252,7.383-62.079,25.7-35.985,91.972-41.581,140.364-45.666,6.93-.585,13.5-1.139,19.538-1.748,51.04-5.142,99.577-16.349,144.265-33.315,19.859-7.537,39.144-16.41,57.792-24.991,39.851-18.335,77.49-35.656,120.812-41.36,26.984-3.556,76.828-5.718,107.473,19.728,15.076,12.518,23.322,30.3,24.511,52.863,2.67,50.617-21.441,104.675-42.714,152.372" transform="translate(-777.825 -84.315)" fill="#fff"/>
            </g>
          </g>
        </g>
      </g>
    </g>
    <path id="Trazado_138639" data-name="Trazado 138639" d="M38.147,215.629a.849.849,0,0,0,.217.569.839.839,0,0,0,1.192.063l1.968-1.789,1.968,1.788a.84.84,0,0,0,1.193-.064.855.855,0,0,0-.064-1.2l-1.837-1.667,1.835-1.67a.856.856,0,0,0,.063-1.2.84.84,0,0,0-1.193-.063l-1.967,1.789-1.969-1.788a.844.844,0,0,0-1.408.634.85.85,0,0,0,.279.633l1.837,1.669-1.835,1.669a.856.856,0,0,0-.279.634m.01,18.92a.845.845,0,0,0,1.409.631l1.967-1.789,1.969,1.788a.837.837,0,0,0,1.192-.064.852.852,0,0,0-.063-1.2l-1.837-1.669,1.835-1.67a.855.855,0,0,0,.062-1.2.839.839,0,0,0-1.192-.063l-1.967,1.79-1.969-1.788a.838.838,0,0,0-1.192.063.855.855,0,0,0,.063,1.2l1.837,1.669-1.835,1.67a.848.848,0,0,0-.279.633m.008,18.92a.855.855,0,0,0,.217.57.84.84,0,0,0,1.193.063l1.967-1.79,1.969,1.788a.839.839,0,0,0,1.192-.063.855.855,0,0,0-.064-1.2L42.8,251.165l1.835-1.67a.854.854,0,0,0,.063-1.2.841.841,0,0,0-1.193-.061l-1.967,1.789-1.969-1.788a.839.839,0,0,0-1.192.063.857.857,0,0,0,.064,1.2l1.837,1.669-1.835,1.67a.851.851,0,0,0-.28.633m.01,18.92a.855.855,0,0,0,.217.57.839.839,0,0,0,1.192.063l1.967-1.789,1.969,1.788a.839.839,0,0,0,1.192-.064.854.854,0,0,0-.063-1.2l-1.837-1.669,1.835-1.669a.856.856,0,0,0,.062-1.2.839.839,0,0,0-1.192-.063l-1.967,1.789-1.969-1.788a.837.837,0,0,0-1.192.064.854.854,0,0,0,.063,1.2l1.837,1.669-1.835,1.67a.855.855,0,0,0-.279.633m.008,18.92a.857.857,0,0,0,.217.57.84.84,0,0,0,1.193.063l1.967-1.789,1.969,1.788a.839.839,0,0,0,1.192-.064.855.855,0,0,0-.063-1.2l-1.837-1.667,1.835-1.67a.855.855,0,0,0,.062-1.2.839.839,0,0,0-1.192-.063l-1.968,1.79-1.968-1.789a.84.84,0,0,0-1.193.064.857.857,0,0,0,.064,1.2l1.837,1.667-1.835,1.67a.851.851,0,0,0-.28.633m.01,18.921a.849.849,0,0,0,.217.569.836.836,0,0,0,1.192.063l1.968-1.789,1.968,1.788a.84.84,0,0,0,1.193-.063.855.855,0,0,0-.064-1.2l-1.837-1.669,1.835-1.67a.856.856,0,0,0,.063-1.2.84.84,0,0,0-1.193-.063l-1.967,1.79L39.6,304.993a.843.843,0,0,0-1.408.633.848.848,0,0,0,.279.633l1.838,1.669-1.837,1.67a.853.853,0,0,0-.279.633m4.647,16.616,1.835-1.67a.854.854,0,0,0,.062-1.2.837.837,0,0,0-1.192-.063L41.578,325.7l-1.969-1.788a.837.837,0,0,0-1.192.064.854.854,0,0,0,.063,1.2l1.837,1.669-1.835,1.67a.857.857,0,0,0-.061,1.2.838.838,0,0,0,1.192.063l1.967-1.79,1.969,1.788a.839.839,0,0,0,1.192-.063.854.854,0,0,0-.063-1.2ZM55.05,215.62a.855.855,0,0,0,.217.57.839.839,0,0,0,1.192.063l1.968-1.79L60.4,216.25a.84.84,0,0,0,1.193-.063.855.855,0,0,0-.064-1.2l-1.837-1.669,1.835-1.67a.853.853,0,0,0,.062-1.2.837.837,0,0,0-1.192-.063l-1.967,1.789-1.969-1.788a.837.837,0,0,0-1.192.064.854.854,0,0,0,.063,1.2l1.837,1.669-1.835,1.67a.855.855,0,0,0-.279.633m.01,18.92a.848.848,0,0,0,.217.57.838.838,0,0,0,1.192.063l1.967-1.789,1.969,1.788a.839.839,0,0,0,1.192-.064.854.854,0,0,0-.063-1.2L59.7,232.238l1.835-1.67a.856.856,0,0,0,.062-1.2A.839.839,0,0,0,60.4,229.3l-1.968,1.789L56.466,229.3a.84.84,0,0,0-1.193.064.857.857,0,0,0,.064,1.2l1.837,1.667-1.835,1.67a.845.845,0,0,0-.279.633m.008,18.921a.849.849,0,0,0,.217.569.839.839,0,0,0,1.192.063l1.968-1.789,1.968,1.788a.839.839,0,0,0,1.193-.064.855.855,0,0,0-.063-1.2l-1.838-1.669,1.835-1.67a.856.856,0,0,0,.063-1.2.84.84,0,0,0-1.193-.063l-1.967,1.79-1.969-1.788a.839.839,0,0,0-1.192.063.859.859,0,0,0,.063,1.2l1.838,1.669-1.837,1.669a.856.856,0,0,0-.279.634m.01,18.92a.848.848,0,0,0,.217.57.839.839,0,0,0,1.192.063l1.967-1.79,1.969,1.788a.837.837,0,0,0,1.192-.064.853.853,0,0,0-.063-1.2l-1.837-1.669,1.835-1.67a.855.855,0,0,0,.062-1.2.839.839,0,0,0-1.192-.063l-1.967,1.79-1.969-1.788a.838.838,0,0,0-1.192.063.855.855,0,0,0,.063,1.2l1.837,1.669-1.835,1.67a.848.848,0,0,0-.279.633m.008,18.92a.862.862,0,0,0,.217.57.84.84,0,0,0,1.193.063l1.967-1.79,1.969,1.789a.84.84,0,0,0,1.192-.064.855.855,0,0,0-.063-1.2L59.723,289l1.837-1.669a.856.856,0,0,0,.062-1.2.839.839,0,0,0-1.192-.063l-1.968,1.789-1.968-1.788a.839.839,0,0,0-1.193.064.855.855,0,0,0,.064,1.2L57.2,289l-1.835,1.67a.851.851,0,0,0-.28.633m.01,18.92a.85.85,0,0,0,.217.57.839.839,0,0,0,1.192.063l1.968-1.789,1.968,1.788a.84.84,0,0,0,1.193-.064.855.855,0,0,0-.064-1.2l-1.837-1.667,1.835-1.67a.856.856,0,0,0,.063-1.2.84.84,0,0,0-1.193-.063l-1.967,1.789L56.5,304.985a.839.839,0,0,0-1.192.064.855.855,0,0,0,.063,1.2l1.837,1.669-1.835,1.669a.855.855,0,0,0-.279.633m4.645,16.617,1.837-1.67a.855.855,0,0,0,.061-1.2.839.839,0,0,0-1.192-.063l-1.968,1.79-1.968-1.788a.84.84,0,0,0-1.193.063.857.857,0,0,0,.064,1.2l1.837,1.669-1.835,1.669a.848.848,0,0,0,1.13,1.266l1.967-1.789,1.969,1.788a.837.837,0,0,0,1.192-.064.854.854,0,0,0-.063-1.2Zm12.8-111.226a.849.849,0,0,0,.217.569.839.839,0,0,0,1.192.063l1.968-1.789,1.968,1.788a.84.84,0,0,0,1.193-.064.855.855,0,0,0-.064-1.2l-1.837-1.667,1.835-1.67a.856.856,0,0,0,.063-1.2.84.84,0,0,0-1.193-.063l-1.967,1.789-1.969-1.788a.839.839,0,0,0-1.192.064.859.859,0,0,0,.063,1.2l1.838,1.669-1.837,1.669a.855.855,0,0,0-.279.634m.01,18.92a.845.845,0,0,0,1.409.631l1.967-1.789,1.969,1.788a.837.837,0,0,0,1.192-.064.852.852,0,0,0-.063-1.2l-1.837-1.669,1.835-1.67a.855.855,0,0,0,.062-1.2.839.839,0,0,0-1.192-.063l-1.967,1.79L73.957,229.3a.838.838,0,0,0-1.192.063.855.855,0,0,0,.063,1.2l1.837,1.669-1.835,1.67a.848.848,0,0,0-.279.633m.008,18.92a.855.855,0,0,0,.217.57.84.84,0,0,0,1.193.063l1.967-1.79,1.969,1.788a.839.839,0,0,0,1.192-.063.857.857,0,0,0-.063-1.2L77.2,251.149l1.835-1.67a.854.854,0,0,0,.063-1.2.838.838,0,0,0-1.192-.061L75.934,250l-1.968-1.788a.84.84,0,0,0-1.193.063.859.859,0,0,0,.063,1.2l1.838,1.669-1.835,1.67a.851.851,0,0,0-.28.633m.01,18.92a.855.855,0,0,0,.217.57.839.839,0,0,0,1.192.063l1.968-1.79,1.968,1.789a.84.84,0,0,0,1.192-.064.854.854,0,0,0-.063-1.2l-1.837-1.669,1.835-1.669a.856.856,0,0,0,.062-1.2.838.838,0,0,0-1.192-.063l-1.967,1.789-1.969-1.788a.839.839,0,0,0-1.192.064.855.855,0,0,0-.217.57.846.846,0,0,0,.28.631l1.837,1.669-1.835,1.67a.855.855,0,0,0-.279.633m.01,18.92a.844.844,0,0,0,1.409.633l1.967-1.789,1.969,1.788a.837.837,0,0,0,1.192-.064.854.854,0,0,0-.063-1.2l-1.838-1.667,1.837-1.67a.855.855,0,0,0,.062-1.2.839.839,0,0,0-1.192-.063l-1.968,1.79-1.968-1.789a.841.841,0,0,0-1.193.064.857.857,0,0,0,.064,1.2l1.837,1.667-1.835,1.67a.845.845,0,0,0-.279.633m.008,18.921a.849.849,0,0,0,.217.569.837.837,0,0,0,1.192.063l1.968-1.789,1.968,1.788a.84.84,0,0,0,1.193-.063.855.855,0,0,0-.064-1.2l-1.837-1.669,1.835-1.67a.856.856,0,0,0,.063-1.2.84.84,0,0,0-1.193-.063l-1.967,1.79-1.969-1.788a.843.843,0,0,0-1.408.633.853.853,0,0,0,.279.633l1.838,1.669-1.837,1.67a.852.852,0,0,0-.279.633M79.069,328.5l-1.837-1.669,1.835-1.67a.854.854,0,0,0,.062-1.2.838.838,0,0,0-1.192-.063l-1.967,1.789L74,323.9a.845.845,0,0,0-1.409.633.852.852,0,0,0,.28.634l1.837,1.667-1.835,1.67a.857.857,0,0,0-.062,1.2.839.839,0,0,0,1.192.063l1.967-1.79,1.969,1.788a.838.838,0,0,0,1.192-.063.854.854,0,0,0-.063-1.2" transform="translate(161.355 365.998)" fill="#d44f4a"/>
    <path id="Trazado_138027" data-name="Trazado 138027" d="M109.959,185.916l-4.41,13.7,14.389-3.131Z" transform="translate(137 340.173)" fill="#d44f4a"/>
    <path id="Trazado_138642" data-name="Trazado 138642" d="M109.959,185.916l-4.41,13.7,14.389-3.131Z" transform="matrix(0.407, -0.914, 0.914, 0.407, 1120.237, 996.53)" fill="#d44f4a"/>
    <path id="Trazado_138640" data-name="Trazado 138640" d="M563.79,67.87a22.333,22.333,0,1,0-.236,31.6,22.373,22.373,0,0,0,.236-31.6m-6.3,25.439a13.694,13.694,0,1,1,.142-19.373,13.715,13.715,0,0,1-.142,19.373" transform="translate(809.462 934.898)" fill="#d44f4a"/>
    <path id="Trazado_138641" data-name="Trazado 138641" d="M554.655,66.282a17,17,0,1,0-.18,24.05,17.03,17.03,0,0,0,.18-24.05m-4.8,19.364a10.423,10.423,0,1,1,.108-14.746,10.44,10.44,0,0,1-.108,14.746" transform="translate(775.462 481.03)" fill="#d44f4a"/>
    <circle id="Elipse_4391" data-name="Elipse 4391" cx="8" cy="8" r="8" transform="translate(1335 597)" fill="#d44f4a"/>
    <path id="Trazado_138014" data-name="Trazado 138014" d="M821.426,152.556l-.165-.435-.032-.058.235.7Z" transform="translate(-572.817 551.762)" fill="#fff"/>
    <path id="Trazado_138015" data-name="Trazado 138015" d="M812.592,134.524l-.127-.23.1.319Z" transform="translate(-572.817 551.762)" fill="#fff"/>
    <path id="Trazado_138026" data-name="Trazado 138026" d="M805.844,333.667a4.025,4.025,0,1,0,4.025,4.025,4.025,4.025,0,0,0-4.025-4.025" transform="translate(-572.817 551.762)" fill="#fff"/>
    <path id="Trazado_138029" data-name="Trazado 138029" d="M1276.243,232.765a5.481,5.481,0,1,0-.058,7.755,5.491,5.491,0,0,0,.058-7.755m-1.547,6.244a3.361,3.361,0,1,1,.035-4.755,3.367,3.367,0,0,1-.035,4.755" transform="translate(-896.854 809.648)" fill="#fff"/>
  </g>
</svg>
