<svg id="Grupo_91215" data-name="Grupo 91215" xmlns="http://www.w3.org/2000/svg" width="42.631" height="78.631" viewBox="0 0 42.631 78.631">
  <path id="Trazado_138858" data-name="Trazado 138858" d="M318.107,17.747a8.988,8.988,0,0,1-.771-.766c-.182-.241-.771-.124-.771-.124L292.234,30.9a3.312,3.312,0,0,0-1.5,2.594v21.07l1.543.891L331.921,30.9V25.723C324.26,26.728,318.107,17.747,318.107,17.747Z" transform="translate(-290.737 -16.699)" fill="#327a8a"/>
  <path id="Trazado_138859" data-name="Trazado 138859" d="M290.737,56.988v38.8a1.055,1.055,0,0,0,.433.966c.271.16,1.589.912,1.589.912l37.665-22.951a3.312,3.312,0,0,0,1.5-2.594v-38.8L292.28,57.879Z" transform="translate(-290.737 -19.119)" fill="#dedede"/>
  <path id="Trazado_138860" data-name="Trazado 138860" d="M318.372,17.905l-24.33,14.047a3.307,3.307,0,0,0-1.5,2.594v21.07l41.088-23.722V26.716C325.022,27.845,318.751,19.875,318.372,17.905Z" transform="translate(-291.002 -16.857)" fill="#3ca5bd"/>
  <path id="Trazado_138861" data-name="Trazado 138861" d="M292.545,96.824c0,.955.67,1.342,1.5.864L332.135,75.7a3.31,3.31,0,0,0,1.5-2.594V34.3L292.545,58.022Z" transform="translate(-291.002 -19.262)" fill="#f6f6f6"/>
  <path id="Trazado_138862" data-name="Trazado 138862" d="M306.073,91.9,334.121,75.7a3.31,3.31,0,0,0,1.5-2.594V34.351C334.2,36.76,337.051,68.446,306.073,91.9Z" transform="translate(-292.987 -19.27)" fill="#f0f0f0"/>
  <path id="Trazado_138863" data-name="Trazado 138863" d="M319.916,34.485c-.259,2.925,1.092,2.618,2.684,1.784l15.044-9.409-16.453-8.148Z" transform="translate(-295.014 -16.975)" fill="#3695ab"/>
  <path id="Trazado_138864" data-name="Trazado 138864" d="M336.54,27.38a10.309,10.309,0,0,1,1.447-.835c-.209-.137-15.769-9.8-15.769-9.8C323.336,23.892,336.049,27.76,336.54,27.38Z" transform="translate(-295.356 -16.686)" fill="#3faec7"/>
  <path id="Trazado_138865" data-name="Trazado 138865" d="M321.392,18.594l-.144,14.737c.045,1.51,2.175,1.536,2.175,1.536l13.336-8.712-14.175-8.249Z" transform="translate(-295.214 -16.857)" fill="#327a8a"/>
  <path id="Trazado_138866" data-name="Trazado 138866" d="M322.814,33.8c0,.955.67,1.341,1.5.864l13.763-7.946-15.261-8.811Z" transform="translate(-295.444 -16.857)" fill="#3faec7"/>
  <path id="Trazado_138867" data-name="Trazado 138867" d="M321.006,16.835c.8.06.351,1.579.351,1.579l1.192-.689C322.549,16.121,321.006,16.835,321.006,16.835Z" transform="translate(-295.179 -16.676)" fill="#327a8a"/>
  <path id="Trazado_138868" data-name="Trazado 138868" d="M298.414,90.322,329.89,72.15V43.225L298.414,61.4Z" transform="translate(-291.864 -20.572)" fill="#d5d5d5"/>
  <g id="Grupo_91213" data-name="Grupo 91213" transform="translate(7.831 24.87)">
    <path id="Trazado_138869" data-name="Trazado 138869" d="M299.914,68.779l3.213-1.855v-3.71l-3.213,1.855Z" transform="translate(-299.914 -48.375)" fill="#a9a9a9"/>
    <path id="Trazado_138870" data-name="Trazado 138870" d="M307.445,64.431l3.213-1.855v-3.71l-3.213,1.855Z" transform="translate(-301.02 -47.737)" fill="#a9a9a9"/>
    <path id="Trazado_138871" data-name="Trazado 138871" d="M314.976,60.084l3.213-1.855v-3.71l-3.213,1.855Z" transform="translate(-302.125 -47.099)" fill="#a9a9a9"/>
    <path id="Trazado_138872" data-name="Trazado 138872" d="M322.507,55.736l3.213-1.855v-3.71l-3.213,1.855Z" transform="translate(-303.23 -46.461)" fill="#a9a9a9"/>
    <path id="Trazado_138873" data-name="Trazado 138873" d="M330.037,51.388l3.213-1.855v-3.71l-3.213,1.855Z" transform="translate(-304.335 -45.823)" fill="#a9a9a9"/>
    <path id="Trazado_138874" data-name="Trazado 138874" d="M303.68,70.953l3.213-1.855v-3.71l-3.213,1.855Z" transform="translate(-300.467 -48.694)" fill="#a9a9a9"/>
    <path id="Trazado_138875" data-name="Trazado 138875" d="M311.21,66.605l3.213-1.855v-3.71L311.21,62.9Z" transform="translate(-301.572 -48.056)" fill="#a9a9a9"/>
    <path id="Trazado_138876" data-name="Trazado 138876" d="M318.741,62.257l3.213-1.855v-3.71l-3.213,1.855Z" transform="translate(-302.677 -47.418)" fill="#a9a9a9"/>
    <path id="Trazado_138877" data-name="Trazado 138877" d="M326.272,57.91l3.213-1.855v-3.71L326.272,54.2Z" transform="translate(-303.782 -46.78)" fill="#a9a9a9"/>
    <path id="Trazado_138878" data-name="Trazado 138878" d="M299.914,77.475l3.213-1.855V71.91l-3.213,1.855Z" transform="translate(-299.914 -49.651)" fill="#a9a9a9"/>
    <path id="Trazado_138879" data-name="Trazado 138879" d="M307.445,73.127l3.213-1.855v-3.71l-3.213,1.855Z" transform="translate(-301.02 -49.013)" fill="#a9a9a9"/>
    <path id="Trazado_138880" data-name="Trazado 138880" d="M314.976,68.779l3.213-1.855v-3.71l-3.213,1.855Z" transform="translate(-302.125 -48.375)" fill="#a9a9a9"/>
    <path id="Trazado_138881" data-name="Trazado 138881" d="M322.507,64.431l3.213-1.855v-3.71l-3.213,1.855Z" transform="translate(-303.23 -47.737)" fill="#a9a9a9"/>
    <path id="Trazado_138882" data-name="Trazado 138882" d="M330.037,60.084l3.213-1.855v-3.71l-3.213,1.855Z" transform="translate(-304.335 -47.099)" fill="#a9a9a9"/>
    <path id="Trazado_138883" data-name="Trazado 138883" d="M303.68,79.649l3.213-1.855v-3.71l-3.213,1.855Z" transform="translate(-300.467 -49.97)" fill="#a9a9a9"/>
    <path id="Trazado_138884" data-name="Trazado 138884" d="M311.21,75.3l3.213-1.855v-3.71l-3.213,1.855Z" transform="translate(-301.572 -49.332)" fill="#a9a9a9"/>
    <path id="Trazado_138885" data-name="Trazado 138885" d="M318.741,70.953l3.213-1.855v-3.71l-3.213,1.855Z" transform="translate(-302.677 -48.694)" fill="#a9a9a9"/>
    <path id="Trazado_138886" data-name="Trazado 138886" d="M326.272,66.605l3.213-1.855v-3.71L326.272,62.9Z" transform="translate(-303.782 -48.056)" fill="#a9a9a9"/>
    <path id="Trazado_138887" data-name="Trazado 138887" d="M299.914,86.171l3.213-1.855v-3.71l-3.213,1.855Z" transform="translate(-299.914 -50.927)" fill="#a9a9a9"/>
    <path id="Trazado_138888" data-name="Trazado 138888" d="M307.445,81.823l3.213-1.855v-3.71l-3.213,1.855Z" transform="translate(-301.02 -50.289)" fill="#a9a9a9"/>
    <path id="Trazado_138889" data-name="Trazado 138889" d="M314.976,77.475l3.213-1.855V71.91l-3.213,1.855Z" transform="translate(-302.125 -49.651)" fill="#a9a9a9"/>
    <path id="Trazado_138890" data-name="Trazado 138890" d="M322.507,73.127l3.213-1.855v-3.71l-3.213,1.855Z" transform="translate(-303.23 -49.013)" fill="#a9a9a9"/>
    <path id="Trazado_138891" data-name="Trazado 138891" d="M330.037,68.779l3.213-1.855v-3.71l-3.213,1.855Z" transform="translate(-304.335 -48.375)" fill="#a9a9a9"/>
    <path id="Trazado_138892" data-name="Trazado 138892" d="M303.68,88.344l3.213-1.855V82.78l-3.213,1.855Z" transform="translate(-300.467 -51.246)" fill="#a9a9a9"/>
    <path id="Trazado_138893" data-name="Trazado 138893" d="M311.21,84l3.213-1.855v-3.71l-3.213,1.855Z" transform="translate(-301.572 -50.608)" fill="#a9a9a9"/>
    <path id="Trazado_138894" data-name="Trazado 138894" d="M318.741,79.649l3.213-1.855v-3.71l-3.213,1.855Z" transform="translate(-302.677 -49.97)" fill="#a9a9a9"/>
    <path id="Trazado_138895" data-name="Trazado 138895" d="M326.272,75.3l3.213-1.855v-3.71l-3.213,1.855Z" transform="translate(-303.782 -49.332)" fill="#a9a9a9"/>
    <path id="Trazado_138896" data-name="Trazado 138896" d="M299.914,94.866l3.213-1.855V89.3l-3.213,1.855Z" transform="translate(-299.914 -52.203)" fill="#a9a9a9"/>
    <path id="Trazado_138897" data-name="Trazado 138897" d="M307.445,90.518l3.213-1.855v-3.71l-3.213,1.855Z" transform="translate(-301.02 -51.565)" fill="#a9a9a9"/>
    <path id="Trazado_138898" data-name="Trazado 138898" d="M314.976,86.171l3.213-1.855v-3.71l-3.213,1.855Z" transform="translate(-302.125 -50.927)" fill="#a9a9a9"/>
    <path id="Trazado_138899" data-name="Trazado 138899" d="M322.507,81.823l3.213-1.855v-3.71l-3.213,1.855Z" transform="translate(-303.23 -50.289)" fill="#a9a9a9"/>
    <path id="Trazado_138900" data-name="Trazado 138900" d="M330.037,77.475l3.213-1.855V71.91l-3.213,1.855Z" transform="translate(-304.335 -49.651)" fill="#a9a9a9"/>
  </g>
  <g id="Grupo_91214" data-name="Grupo 91214" transform="translate(7.831 26.725)">
    <path id="Trazado_138901" data-name="Trazado 138901" d="M303.68,66.605l3.213-1.855v-3.71L303.68,62.9Z" transform="translate(-300.467 -49.911)" fill="#fff"/>
    <path id="Trazado_138902" data-name="Trazado 138902" d="M311.21,62.257l3.213-1.855v-3.71l-3.213,1.855Z" transform="translate(-301.572 -49.273)" fill="#fff"/>
    <path id="Trazado_138903" data-name="Trazado 138903" d="M318.741,57.91l3.213-1.855v-3.71L318.741,54.2Z" transform="translate(-302.677 -48.635)" fill="#fff"/>
    <path id="Trazado_138904" data-name="Trazado 138904" d="M326.272,53.562l3.213-1.855V48l-3.213,1.855Z" transform="translate(-303.782 -47.997)" fill="#fff"/>
    <path id="Trazado_138905" data-name="Trazado 138905" d="M307.445,68.779l3.213-1.855v-3.71l-3.213,1.855Z" transform="translate(-301.02 -50.23)" fill="#fff"/>
    <path id="Trazado_138906" data-name="Trazado 138906" d="M314.976,64.431l3.213-1.855v-3.71l-3.213,1.855Z" transform="translate(-302.125 -49.592)" fill="#fff"/>
    <path id="Trazado_138907" data-name="Trazado 138907" d="M322.507,60.084l3.213-1.855v-3.71l-3.213,1.855Z" transform="translate(-303.23 -48.954)" fill="#fff"/>
    <path id="Trazado_138908" data-name="Trazado 138908" d="M330.037,55.736l3.213-1.855v-3.71l-3.213,1.855Z" transform="translate(-304.335 -48.316)" fill="#fff"/>
    <path id="Trazado_138909" data-name="Trazado 138909" d="M299.914,73.127l3.213-1.855v-3.71l-3.213,1.855Z" transform="translate(-299.914 -50.868)" fill="#fff"/>
    <path id="Trazado_138910" data-name="Trazado 138910" d="M303.68,75.3l3.213-1.855v-3.71l-3.213,1.855Z" transform="translate(-300.467 -51.187)" fill="#fff"/>
    <path id="Trazado_138911" data-name="Trazado 138911" d="M311.21,70.953l3.213-1.855v-3.71l-3.213,1.855Z" transform="translate(-301.572 -50.549)" fill="#fff"/>
    <path id="Trazado_138912" data-name="Trazado 138912" d="M318.741,66.605l3.213-1.855v-3.71L318.741,62.9Z" transform="translate(-302.677 -49.911)" fill="#fff"/>
    <path id="Trazado_138913" data-name="Trazado 138913" d="M326.272,62.257l3.213-1.855v-3.71l-3.213,1.855Z" transform="translate(-303.782 -49.273)" fill="#fff"/>
    <path id="Trazado_138914" data-name="Trazado 138914" d="M307.445,77.475l3.213-1.855V71.91l-3.213,1.855Z" transform="translate(-301.02 -51.506)" fill="#fff"/>
    <path id="Trazado_138915" data-name="Trazado 138915" d="M314.976,73.127l3.213-1.855v-3.71l-3.213,1.855Z" transform="translate(-302.125 -50.868)" fill="#fff"/>
    <path id="Trazado_138916" data-name="Trazado 138916" d="M322.507,68.779l3.213-1.855v-3.71l-3.213,1.855Z" transform="translate(-303.23 -50.23)" fill="#fff"/>
    <path id="Trazado_138917" data-name="Trazado 138917" d="M330.037,64.431l3.213-1.855v-3.71l-3.213,1.855Z" transform="translate(-304.335 -49.592)" fill="#fff"/>
    <path id="Trazado_138918" data-name="Trazado 138918" d="M299.914,81.823l3.213-1.855v-3.71l-3.213,1.855Z" transform="translate(-299.914 -52.144)" fill="#fff"/>
    <path id="Trazado_138919" data-name="Trazado 138919" d="M303.68,84l3.213-1.855v-3.71l-3.213,1.855Z" transform="translate(-300.467 -52.463)" fill="#fff"/>
    <path id="Trazado_138920" data-name="Trazado 138920" d="M311.21,79.649l3.213-1.855v-3.71l-3.213,1.855Z" transform="translate(-301.572 -51.825)" fill="#fff"/>
    <path id="Trazado_138921" data-name="Trazado 138921" d="M318.741,75.3l3.213-1.855v-3.71l-3.213,1.855Z" transform="translate(-302.677 -51.187)" fill="#fff"/>
    <path id="Trazado_138922" data-name="Trazado 138922" d="M326.272,70.953l3.213-1.855v-3.71l-3.213,1.855Z" transform="translate(-303.782 -50.549)" fill="#fff"/>
    <path id="Trazado_138923" data-name="Trazado 138923" d="M307.445,86.171l3.213-1.855v-3.71l-3.213,1.855Z" transform="translate(-301.02 -52.782)" fill="#fff"/>
    <path id="Trazado_138924" data-name="Trazado 138924" d="M314.976,81.823l3.213-1.855v-3.71l-3.213,1.855Z" transform="translate(-302.125 -52.144)" fill="#fff"/>
    <path id="Trazado_138925" data-name="Trazado 138925" d="M322.507,77.475l3.213-1.855V71.91l-3.213,1.855Z" transform="translate(-303.23 -51.506)" fill="#fff"/>
    <path id="Trazado_138926" data-name="Trazado 138926" d="M330.037,73.127l3.213-1.855v-3.71l-3.213,1.855Z" transform="translate(-304.335 -50.868)" fill="#fff"/>
    <path id="Trazado_138927" data-name="Trazado 138927" d="M299.914,90.518l3.213-1.855v-3.71l-3.213,1.855Z" transform="translate(-299.914 -53.42)" fill="#fff"/>
    <path id="Trazado_138928" data-name="Trazado 138928" d="M303.68,92.692l3.213-1.855v-3.71l-3.213,1.855Z" transform="translate(-300.467 -53.739)" fill="#fff"/>
    <path id="Trazado_138929" data-name="Trazado 138929" d="M311.21,88.344l3.213-1.855V82.78l-3.213,1.855Z" transform="translate(-301.572 -53.101)" fill="#fff"/>
    <path id="Trazado_138930" data-name="Trazado 138930" d="M326.272,79.649l3.213-1.855v-3.71l-3.213,1.855Z" transform="translate(-303.782 -51.825)" fill="#fff"/>
    <path id="Trazado_138931" data-name="Trazado 138931" d="M318.741,84l3.213-1.855v-3.71l-3.213,1.855Z" transform="translate(-302.677 -52.463)" fill="#fff"/>
  </g>
  <path id="Trazado_138932" data-name="Trazado 138932" d="M299.115,38.994a10.434,10.434,0,0,0-1.794.906L294.9,41.3v8.626l.811.468.7-4.592.984-.568a12.589,12.589,0,0,0,1.564-1.027,4.65,4.65,0,0,0,.782-.861,4.928,4.928,0,0,0,.635-1.217,4.307,4.307,0,0,0,.25-1.479,2.318,2.318,0,0,1,.225-1.079s-.807-.474-.888-.515A1.121,1.121,0,0,0,299.115,38.994Zm-.217,3.344a2.354,2.354,0,0,1-.47.7,6.091,6.091,0,0,1-1.193.823l-.826.477V41.885l.73-.421a8.873,8.873,0,0,1,1.085-.567.626.626,0,0,1,.606.032.728.728,0,0,1,.239.638A1.887,1.887,0,0,1,298.9,42.338Z" transform="translate(-291.348 -19.943)" fill="#d7d7d7"/>
  <path id="Trazado_138933" data-name="Trazado 138933" d="M307.6,33.781v5.76l-2.247-3.527-.811-.468-1.467.847V45.02l.811.468.591-6.9,3.011,3.887.811.468,1.514-9.5L309,32.972Z" transform="translate(-292.548 -19.068)" fill="#d7d7d7"/>
  <path id="Trazado_138934" data-name="Trazado 138934" d="M315.324,33.412v1.453l.811.468.916-1.465v1.095a7.4,7.4,0,0,1-.817.992,4.458,4.458,0,0,1-.951.765,1.374,1.374,0,0,1-1.55.126q-.591-.427-.59-1.962a5.077,5.077,0,0,1,.584-2.486,4.142,4.142,0,0,1,1.572-1.631,1.488,1.488,0,0,1,1.088-.26.862.862,0,0,1,.594.661l.811.468.928-2.248a5.107,5.107,0,0,0-1.247-.69,3.044,3.044,0,0,0-2.174.58,6.747,6.747,0,0,0-1.788,1.462,7.957,7.957,0,0,0-1.433,2.434,7.7,7.7,0,0,0-.489,2.678,4.231,4.231,0,0,0,.439,2.044,1.765,1.765,0,0,0,.457.555,11.607,11.607,0,0,0,1,.595,17.424,17.424,0,0,0,1.892-.893A8.558,8.558,0,0,0,317.2,36.7a9.388,9.388,0,0,0,1.374-1.725L319.386,32l-.811-.468Z" transform="translate(-293.797 -18.433)" fill="#d7d7d7"/>
  <path id="Trazado_138935" data-name="Trazado 138935" d="M300.065,39.543a10.474,10.474,0,0,0-1.794.905l-2.421,1.4v8.626l1.509-.871V46.347l.984-.568a12.5,12.5,0,0,0,1.564-1.027,4.65,4.65,0,0,0,.783-.86,4.984,4.984,0,0,0,.634-1.217,4.312,4.312,0,0,0,.25-1.48,1.9,1.9,0,0,0-.433-1.43A1.068,1.068,0,0,0,300.065,39.543Zm-.217,3.344a2.361,2.361,0,0,1-.47.695,6.086,6.086,0,0,1-1.193.824l-.826.476V42.434l.73-.422a8.948,8.948,0,0,1,1.084-.567.63.63,0,0,1,.607.032.73.73,0,0,1,.24.638A1.9,1.9,0,0,1,299.849,42.887Z" transform="translate(-291.487 -20.024)" fill="#fafafa"/>
  <path id="Trazado_138936" data-name="Trazado 138936" d="M308.553,40.09,305.495,36.1l-1.467.847v8.626l1.4-.809V39.134l3.011,3.887,1.514-.874V33.521l-1.4.809Z" transform="translate(-292.687 -19.148)" fill="#fafafa"/>
  <path id="Trazado_138937" data-name="Trazado 138937" d="M316.274,35.413l1.727-1v1.095a7.449,7.449,0,0,1-.817.992,4.478,4.478,0,0,1-.951.764,1.372,1.372,0,0,1-1.55.126q-.591-.426-.59-1.963a5.074,5.074,0,0,1,.584-2.485,4.13,4.13,0,0,1,1.572-1.631,1.484,1.484,0,0,1,1.088-.26.859.859,0,0,1,.594.661l1.5-1.19a1.5,1.5,0,0,0-1.006-1.281,3.045,3.045,0,0,0-2.174.581,6.747,6.747,0,0,0-1.788,1.462,7.952,7.952,0,0,0-1.433,2.434,7.725,7.725,0,0,0-.489,2.678,4.226,4.226,0,0,0,.439,2.044,1.55,1.55,0,0,0,1.31.869,3.668,3.668,0,0,0,2.043-.612,8.531,8.531,0,0,0,1.823-1.456,9.359,9.359,0,0,0,1.374-1.725V32.083l-3.252,1.877Z" transform="translate(-293.936 -18.514)" fill="#fafafa"/>
</svg>
