<svg id="Grupo_91229" data-name="Grupo 91229" xmlns="http://www.w3.org/2000/svg" width="42.631" height="78.631" viewBox="0 0 42.631 78.631">
  <path id="Trazado_138969" data-name="Trazado 138969" d="M65.091,390.72a9.033,9.033,0,0,1-.771-.767c-.182-.24-.771-.124-.771-.124l-24.33,14.047a3.309,3.309,0,0,0-1.5,2.593v21.07l1.543.891L78.9,403.873v-5.178C71.244,399.7,65.091,390.72,65.091,390.72Z" transform="translate(-37.721 -389.671)" fill="#81232d"/>
  <path id="Trazado_138970" data-name="Trazado 138970" d="M37.721,429.96v38.8a1.057,1.057,0,0,0,.433.966c.271.16,1.589.911,1.589.911l37.665-22.951a3.309,3.309,0,0,0,1.5-2.593v-38.8L39.264,430.851Z" transform="translate(-37.721 -392.091)" fill="#dedede"/>
  <path id="Trazado_138971" data-name="Trazado 138971" d="M65.356,390.878l-24.33,14.046a3.309,3.309,0,0,0-1.5,2.594v21.07l41.088-23.722v-5.178C72.006,400.818,65.735,392.847,65.356,390.878Z" transform="translate(-37.986 -389.829)" fill="#c2323c"/>
  <path id="Trazado_138972" data-name="Trazado 138972" d="M39.529,469.8c0,.955.67,1.342,1.5.865l38.093-21.994a3.309,3.309,0,0,0,1.5-2.593v-38.8L39.529,430.994Z" transform="translate(-37.986 -392.234)" fill="#f6f6f6"/>
  <path id="Trazado_138973" data-name="Trazado 138973" d="M53.057,464.869,81.1,448.675a3.309,3.309,0,0,0,1.5-2.593V407.323C81.184,409.732,84.035,441.418,53.057,464.869Z" transform="translate(-39.971 -392.242)" fill="#f0f0f0"/>
  <path id="Trazado_138974" data-name="Trazado 138974" d="M66.9,407.457c-.259,2.925,1.092,2.619,2.684,1.785l15.044-9.41-16.453-8.148Z" transform="translate(-41.998 -389.947)" fill="#be2530"/>
  <path id="Trazado_138975" data-name="Trazado 138975" d="M83.524,400.353a10.347,10.347,0,0,1,1.447-.836c-.209-.136-15.769-9.8-15.769-9.8C70.32,396.864,83.033,400.733,83.524,400.353Z" transform="translate(-42.34 -389.658)" fill="#cf3a3c"/>
  <path id="Trazado_138976" data-name="Trazado 138976" d="M68.376,391.566,68.232,406.3c.045,1.51,2.175,1.537,2.175,1.537l13.336-8.713-14.175-8.249Z" transform="translate(-42.198 -389.829)" fill="#81232d"/>
  <path id="Trazado_138977" data-name="Trazado 138977" d="M69.8,406.77c0,.955.671,1.342,1.5.864l13.763-7.946L69.8,390.878Z" transform="translate(-42.428 -389.829)" fill="#cf3a3c"/>
  <path id="Trazado_138978" data-name="Trazado 138978" d="M67.99,389.807c.8.061.351,1.579.351,1.579l1.192-.688C69.533,389.093,67.99,389.807,67.99,389.807Z" transform="translate(-42.163 -389.648)" fill="#81232d"/>
  <g id="Grupo_91228" data-name="Grupo 91228" transform="translate(10.153 30.196)">
    <g id="Grupo_91226" data-name="Grupo 91226" transform="translate(2.715 3.527)">
      <g id="Grupo_91220" data-name="Grupo 91220" transform="translate(7.933)">
        <path id="Trazado_138979" data-name="Trazado 138979" d="M63.927,430.787c-.424.264-.838.561-1.247.875-1.494,5.312.226,7.952,1.361,9.031a25,25,0,0,1,6.832-11.147C69,428.8,66.567,429.144,63.927,430.787Z" transform="translate(-62.098 -429.171)" fill="#959595"/>
      </g>
      <g id="Grupo_91221" data-name="Grupo 91221" transform="translate(0 14.946)">
        <path id="Trazado_138980" data-name="Trazado 138980" d="M52.964,448.554a15.087,15.087,0,0,0-.155,2.62,7.393,7.393,0,0,0,2.3,5.638,20.241,20.241,0,0,0,6.678-10.124c-.3.211-.629.437-.994.664C58.666,448.677,55.505,450.028,52.964,448.554Z" transform="translate(-52.801 -446.687)" fill="#959595"/>
      </g>
      <g id="Grupo_91222" data-name="Grupo 91222" transform="translate(11.338 1.148)">
        <path id="Trazado_138981" data-name="Trazado 138981" d="M72.763,430.517a20.32,20.32,0,0,0-6.674,10.121c2.022-1.443,5.844-3.577,8.818-1.851a15.072,15.072,0,0,0,.158-2.632A7.4,7.4,0,0,0,72.763,430.517Z" transform="translate(-66.089 -430.517)" fill="#959595"/>
      </g>
      <g id="Grupo_91223" data-name="Grupo 91223" transform="translate(3.612 14.696)">
        <path id="Trazado_138982" data-name="Trazado 138982" d="M57.035,457.543c1.871.745,4.307.4,6.947-1.242.424-.265.838-.561,1.247-.875,1.495-5.316-.229-7.955-1.364-9.033A25.006,25.006,0,0,1,57.035,457.543Z" transform="translate(-57.035 -446.394)" fill="#959595"/>
      </g>
      <g id="Grupo_91224" data-name="Grupo 91224" transform="translate(11.619 10.773)">
        <path id="Trazado_138983" data-name="Trazado 138983" d="M66.418,443.888c1.218,1.183,3.077,3.97,1.977,9.3a24.19,24.19,0,0,0,6.071-10.4C71.881,440.581,68.291,442.546,66.418,443.888Z" transform="translate(-66.418 -441.796)" fill="#959595"/>
      </g>
      <g id="Grupo_91225" data-name="Grupo 91225" transform="translate(0.654 4.049)">
        <path id="Trazado_138984" data-name="Trazado 138984" d="M59.639,433.917a24.193,24.193,0,0,0-6.071,10.4c2.592,2.233,6.182.256,8.051-1.091C60.4,442.044,58.539,439.256,59.639,433.917Z" transform="translate(-53.568 -433.917)" fill="#959595"/>
      </g>
    </g>
    <g id="Grupo_91227" data-name="Grupo 91227">
      <path id="Trazado_138985" data-name="Trazado 138985" d="M61.99,427.11a26.939,26.939,0,0,0-8.949,9.93,25.341,25.341,0,0,0-3.41,12.645c.272,7.852,5.92,10.865,12.857,6.86.171-.1.342-.2.514-.309,7.095-4.418,12.639-14.545,12.36-22.576S69.146,422.66,61.99,427.11Zm.927,26.709c-5.976,3.713-10.917,1.245-11.15-5.464a21.142,21.142,0,0,1,2.844-10.545,22.478,22.478,0,0,1,7.463-8.281c.144-.09.288-.177.431-.259,5.783-3.34,10.493-.826,10.72,5.722C73.457,441.689,68.833,450.135,62.917,453.819Z" transform="translate(-49.62 -425.037)" fill="#b6b6b6"/>
    </g>
  </g>
  <path id="Trazado_138986" data-name="Trazado 138986" d="M44.976,418.892a1.727,1.727,0,0,0-.808-.258,5.085,5.085,0,0,0,1.479-1.651,3.948,3.948,0,0,0,.494-1.889,2.275,2.275,0,0,1,.215-.931s-.677-.387-.754-.438a.9.9,0,0,0-.656-.127,5.96,5.96,0,0,0-1.741.772l-2.714,1.567v8.626l.811.468.7-4.94.305-.176a2.757,2.757,0,0,1,.759-.342c.16-.026-.148.27-.007.363a5.361,5.361,0,0,1,.8.81l1.09,1.247.811.468.993-1.509-.912-1.156A4.325,4.325,0,0,0,44.976,418.892Zm-1.862-.822L42,418.715v-2.188l.717-.415q.918-.53,1.1-.606a.575.575,0,0,1,.568.01.7.7,0,0,1,.2.587,1.809,1.809,0,0,1-.153.736,1.925,1.925,0,0,1-.423.609A3.029,3.029,0,0,1,43.114,418.071Z" transform="translate(-38.127 -393.161)" fill="#d7d7d7"/>
  <path id="Trazado_138987" data-name="Trazado 138987" d="M52.393,409.023l-1.6.921-2.91,10.307.811.468,1.406-3.707,2.986-1.724.653,1.583.811.468.83-1.416L53.2,409.491Zm-1.825,6.267,1.009-3.783,1.029,2.607Z" transform="translate(-39.213 -392.491)" fill="#d7d7d7"/>
  <path id="Trazado_138988" data-name="Trazado 138988" d="M63.785,401.92l-1.147,6.688-.5-4.8-.811-.468-1.794,1.036-1.365,6.715-.316-4.808-.811-.468L55.5,406.7l1.784,7.6.811.468.825-1.412,1.483-7.306,1.488,5.59.811.468.79-1.392,2.624-9.206-.811-.468Z" transform="translate(-40.33 -391.32)" fill="#d7d7d7"/>
  <path id="Trazado_138989" data-name="Trazado 138989" d="M45.926,419.44a1.736,1.736,0,0,0-.808-.258,5.085,5.085,0,0,0,1.479-1.651,3.946,3.946,0,0,0,.494-1.889,1.832,1.832,0,0,0-.327-1.171.875.875,0,0,0-.869-.324,5.914,5.914,0,0,0-1.741.772l-2.714,1.567v8.626l1.509-.87v-3.6l.305-.177a.671.671,0,0,1,.753.021,5.458,5.458,0,0,1,.794.81l1.09,1.247,1.8-1.042-.912-1.155A4.336,4.336,0,0,0,45.926,419.44Zm-2.321-.555-.656.379v-2.189l.717-.414q.918-.53,1.1-.606a.579.579,0,0,1,.569.009.7.7,0,0,1,.2.587,1.813,1.813,0,0,1-.153.736,1.945,1.945,0,0,1-.423.609A8.665,8.665,0,0,1,43.6,418.885Z" transform="translate(-38.267 -393.241)" fill="#fafafa"/>
  <path id="Trazado_138990" data-name="Trazado 138990" d="M51.748,410.493,48.838,420.8l1.6-.924.616-2.316,2.986-1.724.653,1.584,1.641-.947-2.992-6.9Zm-.23,5.347,1.009-3.784,1.029,2.607Z" transform="translate(-39.352 -392.572)" fill="#fafafa"/>
  <path id="Trazado_138991" data-name="Trazado 138991" d="M63.588,409.157l-1.309-5.27-1.794,1.036-1.366,6.714-1.126-5.276-1.544.891,1.784,7.6,1.635-.944,1.483-7.306,1.488,5.59,1.6-.924,1.814-9.674-1.518.877Z" transform="translate(-40.469 -391.401)" fill="#fafafa"/>
</svg>
